<svg xmlns="http://www.w3.org/2000/svg" width="512" height="512" viewBox="0 0 512 512" version="1.1"><path d="M 228.500 19.109 C 140.344 29.895, 66.042 87.453, 33.663 170.040 C 29.276 181.231, 24.148 198.749, 21.966 210 C 16.507 238.153, 16.713 276.459, 22.472 304 C 28.226 331.520, 40.391 361.242, 55.416 384.495 C 60.751 392.751, 61.998 394.142, 62.580 392.495 C 77.063 351.495, 105.775 314.781, 142.612 290.155 C 151.710 284.073, 169.080 274.679, 176.843 271.641 L 181.187 269.941 174.681 263.045 C 133.264 219.141, 135.321 149.088, 179.251 107.368 C 200.360 87.321, 226.751 76.815, 256 76.815 C 285.249 76.815, 311.640 87.321, 332.749 107.368 C 376.679 149.088, 378.736 219.141, 337.319 263.045 L 330.813 269.941 335.157 271.641 C 342.920 274.679, 360.290 284.073, 369.388 290.155 C 406.359 314.870, 434.885 351.347, 449.420 392.495 C 450.995 396.953, 471.501 360.335, 479.376 339 C 489.629 311.223, 493.978 286.514, 493.992 255.962 C 494.010 215.788, 485.733 181.498, 467.548 146.415 C 434.378 82.421, 372.019 35.544, 302 21.966 C 282.695 18.223, 247.066 16.838, 228.500 19.109" stroke="none" fill="#efece8" fill-rule="evenodd"/><path d="M 228 1.067 C 178.381 7.188, 133.408 25.975, 95 56.628 C 84.098 65.329, 65.329 84.098, 56.628 95 C 29.199 129.369, 11.142 169.298, 3.264 213 C 0.888 226.185, 0.644 229.949, 0.575 254.500 C 0.496 282.991, 1.146 290.136, 5.670 310.500 C 16.363 358.630, 40.044 402.024, 74.471 436.571 C 88.417 450.566, 99.046 459.308, 114.646 469.614 C 149.686 492.764, 189.831 507.006, 231.565 511.095 C 249.918 512.893, 281.136 511.760, 299 508.648 C 342.146 501.132, 383.810 482.283, 417.605 454.989 C 436.762 439.518, 458.487 414.953, 472.162 393.301 C 492.475 361.139, 506.153 323.438, 510.021 288.951 C 510.665 283.203, 511.599 277.719, 512.096 276.764 C 513.374 274.309, 513.281 233.708, 512 234.500 C 511.397 234.872, 511 233.537, 511 231.138 C 511 224.205, 506.257 198.969, 502.517 186 C 490.282 143.579, 468.179 106.091, 437.044 74.956 C 399.262 37.174, 352.101 12.699, 299 3.316 C 286.604 1.125, 280.944 0.709, 260 0.448 C 246.525 0.279, 232.125 0.558, 228 1.067 M 237.500 17.616 C 204.133 21.109, 178.694 28.156, 151.500 41.439 C 103.189 65.038, 65.038 103.189, 41.439 151.500 C 30.103 174.707, 23.430 196.280, 19.320 223 C 17.171 236.978, 16.932 270.668, 18.882 285 C 23.989 322.542, 36.086 355.434, 56.387 386.972 C 61.611 395.088, 61.883 395.341, 62.865 392.972 C 63.428 391.613, 65.941 385.550, 68.449 379.500 C 87.079 334.558, 127.678 293.590, 173 273.997 C 177.125 272.214, 180.672 270.601, 180.882 270.412 C 181.092 270.224, 178.895 267.478, 176 264.310 C 148.531 234.254, 138.775 194.607, 149.631 157.146 C 163.292 110.002, 207.088 77.006, 256 77.006 C 285.803 77.006, 314.379 89.173, 335.045 110.663 C 348.745 124.908, 357.191 139.275, 362.369 157.146 C 373.225 194.607, 363.469 234.254, 336 264.310 C 333.105 267.478, 330.908 270.224, 331.118 270.412 C 331.328 270.601, 334.875 272.214, 339 273.997 C 376.555 290.232, 411.040 321.064, 432.702 357.773 C 437.757 366.340, 446.014 383.906, 449.006 392.459 L 450.041 395.417 454.451 388.844 C 474.564 358.862, 487.967 322.868, 493.118 285 C 495.068 270.668, 494.829 236.978, 492.680 223 C 488.570 196.280, 481.897 174.707, 470.561 151.500 C 446.962 103.189, 408.811 65.038, 360.500 41.439 C 337.574 30.240, 315.620 23.407, 290 19.494 C 279.940 17.958, 245.875 16.739, 237.500 17.616 M 244 94.598 C 219.845 99.047, 202.922 107.811, 187.940 123.630 C 149.476 164.241, 155.384 229.768, 200.500 262.925 C 221.725 278.523, 248.681 284.364, 274.843 279.032 C 346.469 264.434, 374.273 176.645, 324.060 123.630 C 306.339 104.919, 284.869 95.313, 259 94.521 C 252.125 94.310, 245.375 94.345, 244 94.598 M 0.425 256 C 0.425 267.825, 0.569 272.663, 0.746 266.750 C 0.923 260.837, 0.923 251.162, 0.746 245.250 C 0.569 239.338, 0.425 244.175, 0.425 256 M 185 287.437 C 133.947 308.678, 95.398 349.911, 77.977 401.909 L 74.882 411.147 79.523 416.579 C 82.076 419.567, 88.321 425.849, 93.402 430.540 C 131.201 465.435, 175.170 486.035, 227 493.132 C 239.275 494.813, 272.798 494.806, 285 493.120 C 329.261 487.006, 366.991 471.520, 400.837 445.576 C 412.033 436.994, 426.757 423.456, 432.983 416.020 L 437.102 411.100 434.015 401.886 C 429.711 389.037, 425.729 380.201, 418.745 368 C 401.179 337.310, 377.184 313.821, 345.494 296.294 C 336.059 291.076, 317.255 283, 314.538 283 C 313.665 283, 309.699 284.639, 305.725 286.642 C 289.756 294.691, 274.235 298.343, 256 298.343 C 237.765 298.343, 222.244 294.691, 206.275 286.642 C 202.301 284.639, 198.251 283.015, 197.275 283.034 C 196.299 283.053, 190.775 285.035, 185 287.437" stroke="none" fill="#4d443d" fill-rule="evenodd"/><path d="M 248.250 17.743 C 252.512 17.931, 259.488 17.931, 263.750 17.743 C 268.012 17.556, 264.525 17.402, 256 17.402 C 247.475 17.402, 243.988 17.556, 248.250 17.743 M 94 80.500 C 91.571 82.975, 89.809 85, 90.084 85 C 90.359 85, 92.571 82.975, 95 80.500 C 97.429 78.025, 99.191 76, 98.916 76 C 98.641 76, 96.429 78.025, 94 80.500 M 416.958 80.250 C 421.102 84.665, 422 85.459, 422 84.708 C 422 84.548, 419.863 82.410, 417.250 79.958 L 412.500 75.500 416.958 80.250 M 80 94.500 C 77.571 96.975, 75.809 99, 76.084 99 C 76.359 99, 78.571 96.975, 81 94.500 C 83.429 92.025, 85.191 90, 84.916 90 C 84.641 90, 82.429 92.025, 80 94.500 M 430.958 94.250 C 435.102 98.665, 436 99.459, 436 98.708 C 436 98.548, 433.863 96.410, 431.250 93.958 L 426.500 89.500 430.958 94.250 M 244 94.598 C 219.845 99.047, 202.922 107.811, 187.940 123.630 C 149.476 164.241, 155.384 229.768, 200.500 262.925 C 221.725 278.523, 248.681 284.364, 274.843 279.032 C 346.469 264.434, 374.273 176.645, 324.060 123.630 C 306.339 104.919, 284.869 95.313, 259 94.521 C 252.125 94.310, 245.375 94.345, 244 94.598 M 177 109.500 C 172.903 113.625, 169.775 117, 170.050 117 C 170.325 117, 173.903 113.625, 178 109.500 C 182.097 105.375, 185.225 102, 184.950 102 C 184.675 102, 181.097 105.375, 177 109.500 M 327 102.275 C 327 102.426, 330.488 105.914, 334.750 110.025 L 342.500 117.500 335.025 109.750 C 328.082 102.552, 327 101.544, 327 102.275 M 145.232 177 C 145.232 178.925, 145.438 179.713, 145.689 178.750 C 145.941 177.787, 145.941 176.213, 145.689 175.250 C 145.438 174.287, 145.232 175.075, 145.232 177 M 366.232 177 C 366.232 178.925, 366.438 179.713, 366.689 178.750 C 366.941 177.787, 366.941 176.213, 366.689 175.250 C 366.438 174.287, 366.232 175.075, 366.232 177 M 145.232 198 C 145.232 199.925, 145.438 200.713, 145.689 199.750 C 145.941 198.787, 145.941 197.213, 145.689 196.250 C 145.438 195.287, 145.232 196.075, 145.232 198 M 366.232 198 C 366.232 199.925, 366.438 200.713, 366.689 199.750 C 366.941 198.787, 366.941 197.213, 366.689 196.250 C 366.438 195.287, 366.232 196.075, 366.232 198 M 17.395 254.500 C 17.396 262.200, 17.553 265.218, 17.743 261.206 C 17.934 257.195, 17.932 250.895, 17.741 247.206 C 17.549 243.518, 17.393 246.800, 17.395 254.500 M 494.395 254.500 C 494.396 262.200, 494.553 265.218, 494.743 261.206 C 494.934 257.195, 494.932 250.895, 494.741 247.206 C 494.549 243.518, 494.393 246.800, 494.395 254.500 M 185 287.437 C 133.947 308.678, 95.398 349.911, 77.977 401.909 L 74.882 411.147 79.523 416.579 C 82.076 419.567, 88.321 425.849, 93.402 430.540 C 131.201 465.435, 175.170 486.035, 227 493.132 C 239.275 494.813, 272.798 494.806, 285 493.120 C 329.261 487.006, 366.991 471.520, 400.837 445.576 C 412.033 436.994, 426.757 423.456, 432.983 416.020 L 437.102 411.100 434.015 401.886 C 429.711 389.037, 425.729 380.201, 418.745 368 C 401.179 337.310, 377.184 313.821, 345.494 296.294 C 336.059 291.076, 317.255 283, 314.538 283 C 313.665 283, 309.699 284.639, 305.725 286.642 C 289.756 294.691, 274.235 298.343, 256 298.343 C 237.765 298.343, 222.244 294.691, 206.275 286.642 C 202.301 284.639, 198.251 283.015, 197.275 283.034 C 196.299 283.053, 190.775 285.035, 185 287.437 M 399 314.313 C 399 314.485, 400.462 315.948, 402.250 317.563 L 405.500 320.500 402.563 317.250 C 399.825 314.221, 399 313.540, 399 314.313 M 101.437 326.250 L 98.500 329.500 101.750 326.563 C 103.537 324.948, 105 323.485, 105 323.313 C 105 322.540, 104.175 323.221, 101.437 326.250 M 407 323.313 C 407 323.485, 408.462 324.948, 410.250 326.563 L 413.500 329.500 410.563 326.250 C 407.825 323.221, 407 322.540, 407 323.313" stroke="none" fill="#d6d6d2" fill-rule="evenodd"/></svg>