<svg xmlns="http://www.w3.org/2000/svg" width="512" height="512" viewBox="0 0 512 512" version="1.1"><path d="M 423 124.840 C 423 128.218, 416.976 138.789, 413.009 142.373 C 408.275 146.650, 402.739 149.583, 397.571 150.553 C 394.822 151.068, 394.153 151.506, 395.208 152.097 C 397.887 153.596, 414.445 155.310, 419.265 154.588 L 424 153.877 424 138.439 C 424 129.947, 423.775 123, 423.500 123 C 423.225 123, 423 123.828, 423 124.840 M 230 163.500 C 231.866 165.425, 233.617 167, 233.892 167 C 234.167 167, 232.866 165.425, 231 163.500 C 229.134 161.575, 227.383 160, 227.108 160 C 226.833 160, 228.134 161.575, 230 163.500 M 205.437 267.250 L 202.500 270.500 205.750 267.563 C 207.537 265.948, 209 264.485, 209 264.313 C 209 263.540, 208.175 264.221, 205.437 267.250" stroke="none" fill="#fd9997" fill-rule="evenodd"/><path d="M 367.301 40.077 C 355.966 43.669, 348.623 51.027, 344.420 63.002 C 340.923 72.970, 341.303 82.110, 345.537 89.891 C 347.919 94.268, 352.450 99, 354.259 99 C 354.507 99, 354.966 95.963, 355.280 92.250 C 355.593 88.537, 356.317 84.277, 356.888 82.781 L 357.927 80.063 362.213 81.585 C 368.252 83.729, 384.043 85.978, 393.500 86.042 L 401.500 86.096 405 91.656 C 409.025 98.051, 418.035 106.720, 421.582 107.610 C 423.945 108.203, 424 108.452, 424 118.608 C 424 127.847, 424.194 128.998, 425.750 128.978 C 431.969 128.900, 442.612 119.646, 447.440 110.117 C 455.795 93.631, 454.463 76.878, 443.917 65.792 C 441.825 63.593, 439.838 60.539, 439.501 59.005 C 437.441 49.623, 428.023 42.509, 413.792 39.584 C 402.145 37.190, 375.519 37.472, 367.301 40.077 M 366.428 101.431 C 365.569 104.853, 366.592 107.225, 368.747 106.810 C 371.204 106.337, 371.238 99.669, 368.786 99.197 C 367.639 98.976, 366.858 99.716, 366.428 101.431 M 389.418 100.353 C 388.306 103.250, 389.407 106.500, 391.500 106.500 C 393.118 106.500, 393.500 105.833, 393.500 103.014 C 393.500 100.486, 393.018 99.435, 391.747 99.190 C 390.783 99.004, 389.735 99.528, 389.418 100.353 M 392.250 173.875 C 388.880 176.946, 387 179.467, 387 180.916 C 387 182.158, 386.031 188.474, 384.846 194.952 C 383.078 204.615, 382.854 208.051, 383.596 214.082 L 384.500 221.435 391.250 213.543 L 398 205.651 398 195.759 C 398 186.741, 398.222 185.576, 400.506 182.581 L 403.012 179.296 400.873 174.148 C 399.696 171.316, 398.456 169.020, 398.117 169.045 C 397.778 169.070, 395.137 171.244, 392.250 173.875" stroke="none" fill="#333077" fill-rule="evenodd"/><path d="M 355.272 95 C 355.272 97.475, 355.467 98.487, 355.706 97.250 C 355.944 96.013, 355.944 93.987, 355.706 92.750 C 355.467 91.513, 355.272 92.525, 355.272 95 M 264.430 262.323 C 264.028 263.369, 273.873 305.637, 281.241 334.500 L 282.517 339.500 314.285 339.764 C 341.567 339.991, 346.132 339.819, 346.620 338.549 C 346.932 337.736, 346.405 333.752, 345.449 329.698 L 343.711 322.325 330.105 326.233 C 313.723 330.938, 309.341 331.598, 304.685 330.061 C 300.090 328.545, 294.297 322.101, 293.445 317.560 C 292.075 310.258, 295.512 302.357, 301.604 298.799 C 303.308 297.804, 311.631 295.596, 320.101 293.892 C 328.570 292.189, 335.630 290.674, 335.788 290.526 C 335.946 290.378, 334.428 283.674, 332.414 275.629 L 328.752 261 296.845 261 C 271.307 261, 264.836 261.264, 264.430 262.323" stroke="none" fill="#48609d" fill-rule="evenodd"/><path d="M 59 432.500 L 59 474 78 474 L 97 474 97 432.500 L 97 391 78 391 L 59 391 59 432.500 M 231 432.500 L 231 474 250.500 474 L 270 474 270 432.500 L 270 391 250.500 391 L 231 391 231 432.500 M 371.719 408.849 C 366.233 417.139, 354.113 422.477, 343.295 421.369 L 337 420.724 337 447.362 L 337 474 356 474 L 375 474 375 439.500 C 375 420.525, 374.835 405, 374.633 405 C 374.431 405, 373.120 406.732, 371.719 408.849 M 385 444.068 L 385 474 425 474 L 465 474 465 448.500 L 465 423 433.750 422.994 C 415.453 422.991, 400.967 422.563, 398.802 421.962 C 396.768 421.397, 392.831 419.405, 390.052 417.535 L 385 414.135 385 444.068" stroke="none" fill="#5150ac" fill-rule="evenodd"/><path d="M 376.678 399.067 C 376.320 400.405, 376.021 417.813, 376.014 437.750 L 376 474 380 474 L 384 474 384 442.904 C 384 413.948, 383.869 411.625, 382.098 409.138 C 381.053 407.670, 379.552 404.255, 378.763 401.550 C 377.504 397.233, 377.250 396.930, 376.678 399.067" stroke="none" fill="#363383" fill-rule="evenodd"/><path d="M 32.315 53.007 C 31.114 53.491, 29.651 54.783, 29.065 55.878 C 28.324 57.263, 28 107.771, 28 221.980 L 28 386.091 30.308 388.399 L 32.617 390.708 164.058 390.738 C 295.358 390.767, 295.502 390.765, 297.750 388.709 C 299.960 386.688, 300 386.239, 300 363.326 L 300 340 291.700 340 C 286.578 340, 282.941 339.541, 282.200 338.800 C 281.267 337.867, 281 341.200, 281 353.800 L 281 370 163.997 370 L 46.993 370 47.247 221.750 L 47.500 73.500 164.250 73.246 L 281 72.992 281 160.401 L 281 247.810 284.750 247.429 C 286.813 247.220, 291.087 246.780, 294.250 246.452 L 300 245.856 300 151.383 L 300 56.909 297.545 54.455 L 295.091 52 164.795 52.063 C 92.245 52.099, 33.532 52.517, 32.315 53.007 M 373.750 167.706 C 374.988 167.944, 377.012 167.944, 378.250 167.706 C 379.488 167.467, 378.475 167.272, 376 167.272 C 373.525 167.272, 372.512 167.467, 373.750 167.706 M 433.250 167.716 C 434.762 167.945, 437.238 167.945, 438.750 167.716 C 440.262 167.487, 439.025 167.300, 436 167.300 C 432.975 167.300, 431.738 167.487, 433.250 167.716 M 380.252 173.500 C 380.263 175.700, 380.468 176.482, 380.707 175.238 C 380.946 173.994, 380.937 172.194, 380.687 171.238 C 380.437 170.282, 380.241 171.300, 380.252 173.500 M 381.272 190 C 381.272 192.475, 381.467 193.488, 381.706 192.250 C 381.944 191.012, 381.944 188.988, 381.706 187.750 C 381.467 186.512, 381.272 187.525, 381.272 190 M 422.528 195.250 C 420.672 200.912, 417.679 223.787, 415.494 249 C 414.612 259.175, 413.577 267.769, 413.195 268.097 C 412.813 268.426, 407.100 269.455, 400.500 270.385 C 393.900 271.315, 387.228 272.327, 385.673 272.634 L 382.846 273.193 383.512 251.846 C 384.319 225.970, 384.473 223.680, 385.521 221.899 C 385.978 221.122, 385.432 221.298, 384.293 222.295 C 382.372 223.978, 382.196 225.632, 381.508 248.555 C 380.792 272.444, 380.724 273.029, 378.637 273.486 C 377.462 273.743, 368.697 275.054, 359.161 276.400 C 342.456 278.756, 339.996 279.329, 341.241 280.574 C 341.557 280.890, 358.394 278.741, 378.658 275.799 L 415.500 270.449 416.225 264.474 C 416.624 261.188, 417.870 248.790, 418.995 236.923 C 420.820 217.668, 423.133 200.716, 424.613 195.750 C 425.199 193.784, 423.168 193.297, 422.528 195.250 M 330.792 247.250 C 330.599 259.977, 330.901 267.856, 331.683 270.500 C 332.678 273.865, 332.877 270.810, 332.933 251.250 C 332.974 237.047, 332.627 228, 332.042 228 C 331.474 228, 330.965 235.846, 330.792 247.250 M 480.998 259.750 C 480.990 265.719, 477.836 291.291, 476.816 293.653 C 472.596 303.426, 464.992 310.065, 455.313 312.428 C 452.116 313.209, 433.702 314.866, 414.393 316.111 L 379.285 318.375 378.653 331.437 C 377.477 355.746, 376.977 394.574, 377.875 391.899 C 378.355 390.468, 379.301 374.043, 379.978 355.399 C 380.655 336.754, 381.319 321.380, 381.454 321.234 C 381.946 320.700, 413.743 334.313, 422.297 338.719 C 430.089 342.733, 431.358 343.779, 433.408 347.875 C 439.873 360.790, 442 374.096, 442 401.631 L 442 423 461.383 423 L 480.765 423 480.943 366.250 C 481.040 335.038, 481.324 297.913, 481.574 283.750 C 481.823 269.587, 481.796 258, 481.514 258 C 481.231 258, 480.999 258.788, 480.998 259.750" stroke="none" fill="#c7dafa" fill-rule="evenodd"/><path d="M 32.315 53.007 C 31.114 53.491, 29.651 54.783, 29.065 55.878 C 28.324 57.263, 28 107.771, 28 221.980 L 28 386.091 30.308 388.399 L 32.617 390.708 164.058 390.738 C 295.358 390.767, 295.502 390.765, 297.750 388.709 C 299.960 386.688, 300 386.239, 300 363.326 L 300 340 291.700 340 C 286.578 340, 282.941 339.541, 282.200 338.800 C 281.267 337.867, 281 341.200, 281 353.800 L 281 370 163.997 370 L 46.993 370 47.247 221.750 L 47.500 73.500 164.250 73.246 L 281 72.992 281 160.401 L 281 247.810 284.750 247.429 C 286.813 247.220, 291.087 246.780, 294.250 246.452 L 300 245.856 300 151.383 L 300 56.909 297.545 54.455 L 295.091 52 164.795 52.063 C 92.245 52.099, 33.532 52.517, 32.315 53.007 M 373.750 167.706 C 374.988 167.944, 377.012 167.944, 378.250 167.706 C 379.488 167.467, 378.475 167.272, 376 167.272 C 373.525 167.272, 372.512 167.467, 373.750 167.706 M 433.250 167.716 C 434.762 167.945, 437.238 167.945, 438.750 167.716 C 440.262 167.487, 439.025 167.300, 436 167.300 C 432.975 167.300, 431.738 167.487, 433.250 167.716 M 380.252 173.500 C 380.263 175.700, 380.468 176.482, 380.707 175.238 C 380.946 173.994, 380.937 172.194, 380.687 171.238 C 380.437 170.282, 380.241 171.300, 380.252 173.500 M 381.272 190 C 381.272 192.475, 381.467 193.488, 381.706 192.250 C 381.944 191.012, 381.944 188.988, 381.706 187.750 C 381.467 186.512, 381.272 187.525, 381.272 190 M 422.528 195.250 C 420.672 200.912, 417.679 223.787, 415.494 249 C 414.612 259.175, 413.577 267.769, 413.195 268.097 C 412.813 268.426, 407.100 269.455, 400.500 270.385 C 393.900 271.315, 387.228 272.327, 385.673 272.634 L 382.846 273.193 383.512 251.846 C 384.319 225.970, 384.473 223.680, 385.521 221.899 C 385.978 221.122, 385.432 221.298, 384.293 222.295 C 382.372 223.978, 382.196 225.632, 381.508 248.555 C 380.792 272.444, 380.724 273.029, 378.637 273.486 C 377.462 273.743, 368.697 275.054, 359.161 276.400 C 342.456 278.756, 339.996 279.329, 341.241 280.574 C 341.557 280.890, 358.394 278.741, 378.658 275.799 L 415.500 270.449 416.225 264.474 C 416.624 261.188, 417.870 248.790, 418.995 236.923 C 420.820 217.668, 423.133 200.716, 424.613 195.750 C 425.199 193.784, 423.168 193.297, 422.528 195.250 M 330.792 247.250 C 330.599 259.977, 330.901 267.856, 331.683 270.500 C 332.678 273.865, 332.877 270.810, 332.933 251.250 C 332.974 237.047, 332.627 228, 332.042 228 C 331.474 228, 330.965 235.846, 330.792 247.250 M 480.998 259.750 C 480.990 265.719, 477.836 291.291, 476.816 293.653 C 472.596 303.426, 464.992 310.065, 455.313 312.428 C 452.116 313.209, 433.702 314.866, 414.393 316.111 L 379.285 318.375 378.653 331.437 C 377.477 355.746, 376.977 394.574, 377.875 391.899 C 378.355 390.468, 379.301 374.043, 379.978 355.399 C 380.655 336.754, 381.319 321.380, 381.454 321.234 C 381.946 320.700, 413.743 334.313, 422.297 338.719 C 430.089 342.733, 431.358 343.779, 433.408 347.875 C 439.873 360.790, 442 374.096, 442 401.631 L 442 423 461.383 423 L 480.765 423 480.943 366.250 C 481.040 335.038, 481.324 297.913, 481.574 283.750 C 481.823 269.587, 481.796 258, 481.514 258 C 481.231 258, 480.999 258.788, 480.998 259.750" stroke="none" fill="#c7dafa" fill-rule="evenodd"/><path d="M 418.200 175.672 C 407.133 182.487, 405.778 183.078, 404.676 181.572 C 403.575 180.066, 403.203 180.229, 400.976 183.199 C 398.799 186.101, 398.460 187.707, 398.166 196.500 C 397.963 202.576, 398.190 206.108, 398.745 205.500 C 402.169 201.751, 431.058 168.010, 430.810 168.049 C 430.639 168.076, 424.965 171.507, 418.200 175.672 M 381.609 183.500 C 381.817 187.900, 382.050 195.325, 382.125 200 L 382.263 208.500 383.065 202 C 383.506 198.425, 384.533 192.125, 385.346 188 C 386.683 181.218, 386.282 177.117, 384.554 179.913 C 383.382 181.809, 382.142 181.092, 381.678 178.250 C 381.431 176.738, 381.400 179.100, 381.609 183.500 M 281.312 260.748 C 290.009 260.915, 303.959 260.915, 312.312 260.748 C 320.666 260.581, 313.550 260.444, 296.500 260.445 C 279.450 260.445, 272.616 260.582, 281.312 260.748 M 68.250 390.746 C 73.612 390.925, 82.388 390.925, 87.750 390.746 C 93.112 390.566, 88.725 390.419, 78 390.419 C 67.275 390.419, 62.888 390.566, 68.250 390.746 M 240.250 390.746 C 245.613 390.925, 254.387 390.925, 259.750 390.746 C 265.113 390.566, 260.725 390.419, 250 390.419 C 239.275 390.419, 234.887 390.566, 240.250 390.746" stroke="none" fill="#79affe" fill-rule="evenodd"/><path d="M 412.500 163.575 C 406.450 165.444, 400.318 166.979, 398.874 166.986 C 397.430 166.994, 393.616 165.836, 390.398 164.413 L 384.547 161.825 382.447 164.267 C 380.509 166.520, 380.422 167.263, 381.319 173.889 C 381.854 177.838, 382.657 180.942, 383.103 180.785 C 383.550 180.628, 387.117 177.630, 391.030 174.122 C 394.943 170.614, 398.483 168.139, 398.898 168.622 C 399.312 169.105, 400.916 172.425, 402.462 176 C 404.008 179.575, 405.408 182.659, 405.572 182.852 C 405.881 183.216, 425.946 171.295, 429.500 168.636 C 431.461 167.169, 431.432 167.069, 428.054 163.570 C 426.158 161.606, 424.358 160.040, 424.054 160.089 C 423.749 160.138, 418.550 161.706, 412.500 163.575" stroke="none" fill="#5592ff" fill-rule="evenodd"/><path d="M 367.301 40.077 C 355.966 43.669, 348.623 51.027, 344.420 63.002 C 340.923 72.970, 341.303 82.110, 345.537 89.891 C 347.919 94.268, 352.450 99, 354.259 99 C 354.507 99, 354.966 95.963, 355.280 92.250 C 355.593 88.537, 356.317 84.277, 356.888 82.781 L 357.927 80.063 362.213 81.585 C 368.252 83.729, 384.043 85.978, 393.500 86.042 L 401.500 86.096 405 91.656 C 409.025 98.051, 418.035 106.720, 421.582 107.610 C 423.945 108.203, 424 108.452, 424 118.608 C 424 127.847, 424.194 128.998, 425.750 128.978 C 431.969 128.900, 442.612 119.646, 447.440 110.117 C 455.795 93.631, 454.463 76.878, 443.917 65.792 C 441.825 63.593, 439.838 60.539, 439.501 59.005 C 437.441 49.623, 428.023 42.509, 413.792 39.584 C 402.145 37.190, 375.519 37.472, 367.301 40.077 M 366.428 101.431 C 365.569 104.853, 366.592 107.225, 368.747 106.810 C 371.204 106.337, 371.238 99.669, 368.786 99.197 C 367.639 98.976, 366.858 99.716, 366.428 101.431 M 389.418 100.353 C 388.306 103.250, 389.407 106.500, 391.500 106.500 C 393.118 106.500, 393.500 105.833, 393.500 103.014 C 393.500 100.486, 393.018 99.435, 391.747 99.190 C 390.783 99.004, 389.735 99.528, 389.418 100.353 M 392.250 173.875 C 388.880 176.946, 387 179.467, 387 180.916 C 387 182.158, 386.031 188.474, 384.846 194.952 C 383.078 204.615, 382.854 208.051, 383.596 214.082 L 384.500 221.435 391.250 213.543 L 398 205.651 398 195.759 C 398 186.741, 398.222 185.576, 400.506 182.581 L 403.012 179.296 400.873 174.148 C 399.696 171.316, 398.456 169.020, 398.117 169.045 C 397.778 169.070, 395.137 171.244, 392.250 173.875" stroke="none" fill="#333077" fill-rule="evenodd"/><path d="M 356.888 86.402 C 356.172 89.350, 355.618 98.669, 355.575 108.500 C 355.503 124.856, 355.600 125.713, 358.135 131.120 C 359.585 134.211, 362.435 138.582, 364.469 140.834 C 368.156 144.915, 378.713 151, 382.107 151 C 383.559 151, 383.952 151.987, 384.198 156.247 L 384.500 161.494 391.605 164.380 L 398.709 167.266 411.355 163.484 C 423.719 159.786, 424 159.639, 424 156.842 L 424 153.983 418.633 154.613 C 413.240 155.247, 397.481 153.534, 395.085 152.053 C 394.252 151.538, 395.153 151.009, 397.651 150.546 C 412.096 147.867, 422.925 134.140, 423.808 117.389 L 424.236 109.278 421.110 108.188 C 417.057 106.775, 407.916 98.102, 403.924 91.882 L 400.792 87 394.646 86.997 C 386.092 86.993, 372.040 85.162, 364.482 83.066 L 358.127 81.304 356.888 86.402 M 366.569 99.573 C 365.706 100.437, 365 101.979, 365 103 C 365 104.831, 367.453 108, 368.871 108 C 370.459 108, 372 105.457, 372 102.835 C 372 99.223, 368.826 97.317, 366.569 99.573 M 389.529 99.614 C 386.418 102.725, 388.619 108.851, 392.335 107.425 C 395.499 106.211, 395.612 99.832, 392.491 98.635 C 391.703 98.332, 390.370 98.773, 389.529 99.614 M 366.388 125.430 C 365.503 127.738, 369.083 134.079, 372.420 136.114 C 380.515 141.051, 392 135.467, 392 126.596 L 392 124 379.469 124 C 369.525 124, 366.824 124.295, 366.388 125.430 M 91.286 198.500 C 91.294 201.250, 91.488 202.256, 91.718 200.736 C 91.947 199.216, 91.941 196.966, 91.704 195.736 C 91.467 194.506, 91.279 195.750, 91.286 198.500 M 245 245 C 242.098 247.902, 242.511 249.844, 246.923 254.042 L 250.846 257.774 241.173 258.193 C 234.703 258.473, 230.441 259.173, 228.302 260.305 C 219.806 264.802, 216.385 276.576, 221.125 285.009 C 224.470 290.960, 230.072 294, 237.693 294 C 244.796 294, 269.237 292.096, 269.837 291.496 C 270.065 291.268, 268.807 285.268, 267.041 278.163 C 263.168 262.588, 263.251 260.620, 267.798 260.183 L 271.096 259.866 270.798 254.264 L 270.500 248.661 260.500 245.863 C 248.466 242.495, 247.555 242.445, 245 245 M 138 275.500 C 142.651 280.175, 146.681 284, 146.956 284 C 147.231 284, 143.651 280.175, 139 275.500 C 134.349 270.825, 130.319 267, 130.044 267 C 129.769 267, 133.349 270.825, 138 275.500 M 334.359 281.685 C 334.653 282.683, 335.184 285.144, 335.540 287.153 C 336.302 291.459, 337.653 290.855, 319 294.545 C 311.575 296.014, 304.277 297.846, 302.782 298.617 C 291.039 304.672, 290.435 321.162, 301.703 328.125 C 304.194 329.665, 306.678 330.255, 310.349 330.180 C 317.464 330.035, 349.551 320.748, 349.346 318.893 C 349.261 318.127, 347.491 309.930, 345.414 300.678 L 341.637 283.855 337.730 281.862 C 334.056 279.988, 333.856 279.977, 334.359 281.685" stroke="none" fill="#f9c4c0" fill-rule="evenodd"/><path d="M 32.315 53.007 C 31.114 53.491, 29.651 54.783, 29.065 55.878 C 28.324 57.263, 28 107.771, 28 221.980 L 28 386.091 30.308 388.399 L 32.617 390.708 164.058 390.738 C 295.358 390.767, 295.502 390.765, 297.750 388.709 C 299.960 386.688, 300 386.239, 300 363.326 L 300 340 291.700 340 C 286.578 340, 282.941 339.541, 282.200 338.800 C 281.267 337.867, 281 341.200, 281 353.800 L 281 370 163.997 370 L 46.993 370 47.247 221.750 L 47.500 73.500 164.250 73.246 L 281 72.992 281 160.401 L 281 247.810 284.750 247.429 C 286.813 247.220, 291.087 246.780, 294.250 246.452 L 300 245.856 300 151.383 L 300 56.909 297.545 54.455 L 295.091 52 164.795 52.063 C 92.245 52.099, 33.532 52.517, 32.315 53.007 M 373.750 167.706 C 374.988 167.944, 377.012 167.944, 378.250 167.706 C 379.488 167.467, 378.475 167.272, 376 167.272 C 373.525 167.272, 372.512 167.467, 373.750 167.706 M 433.250 167.716 C 434.762 167.945, 437.238 167.945, 438.750 167.716 C 440.262 167.487, 439.025 167.300, 436 167.300 C 432.975 167.300, 431.738 167.487, 433.250 167.716 M 380.252 173.500 C 380.263 175.700, 380.468 176.482, 380.707 175.238 C 380.946 173.994, 380.937 172.194, 380.687 171.238 C 380.437 170.282, 380.241 171.300, 380.252 173.500 M 381.272 190 C 381.272 192.475, 381.467 193.488, 381.706 192.250 C 381.944 191.012, 381.944 188.988, 381.706 187.750 C 381.467 186.512, 381.272 187.525, 381.272 190 M 422.528 195.250 C 420.672 200.912, 417.679 223.787, 415.494 249 C 414.612 259.175, 413.577 267.769, 413.195 268.097 C 412.813 268.426, 407.100 269.455, 400.500 270.385 C 393.900 271.315, 387.228 272.327, 385.673 272.634 L 382.846 273.193 383.512 251.846 C 384.319 225.970, 384.473 223.680, 385.521 221.899 C 385.978 221.122, 385.432 221.298, 384.293 222.295 C 382.372 223.978, 382.196 225.632, 381.508 248.555 C 380.792 272.444, 380.724 273.029, 378.637 273.486 C 377.462 273.743, 368.697 275.054, 359.161 276.400 C 342.456 278.756, 339.996 279.329, 341.241 280.574 C 341.557 280.890, 358.394 278.741, 378.658 275.799 L 415.500 270.449 416.225 264.474 C 416.624 261.188, 417.870 248.790, 418.995 236.923 C 420.820 217.668, 423.133 200.716, 424.613 195.750 C 425.199 193.784, 423.168 193.297, 422.528 195.250 M 330.792 247.250 C 330.599 259.977, 330.901 267.856, 331.683 270.500 C 332.678 273.865, 332.877 270.810, 332.933 251.250 C 332.974 237.047, 332.627 228, 332.042 228 C 331.474 228, 330.965 235.846, 330.792 247.250 M 480.998 259.750 C 480.990 265.719, 477.836 291.291, 476.816 293.653 C 472.596 303.426, 464.992 310.065, 455.313 312.428 C 452.116 313.209, 433.702 314.866, 414.393 316.111 L 379.285 318.375 378.653 331.437 C 377.477 355.746, 376.977 394.574, 377.875 391.899 C 378.355 390.468, 379.301 374.043, 379.978 355.399 C 380.655 336.754, 381.319 321.380, 381.454 321.234 C 381.946 320.700, 413.743 334.313, 422.297 338.719 C 430.089 342.733, 431.358 343.779, 433.408 347.875 C 439.873 360.790, 442 374.096, 442 401.631 L 442 423 461.383 423 L 480.765 423 480.943 366.250 C 481.040 335.038, 481.324 297.913, 481.574 283.750 C 481.823 269.587, 481.796 258, 481.514 258 C 481.231 258, 480.999 258.788, 480.998 259.750" stroke="none" fill="#c7dafa" fill-rule="evenodd"/><path d="M 48 222 L 48 370 164.500 370 L 281 370 281 353.305 C 281 336.707, 280.971 336.488, 275.962 315.555 C 273.191 303.975, 270.767 294.034, 270.575 293.464 C 270.337 292.755, 264.750 292.824, 252.864 293.682 C 240.335 294.587, 234.396 294.640, 231.536 293.872 C 224.363 291.946, 218.027 283.318, 218.006 275.446 C 217.995 271.692, 222.858 263.573, 226.658 261 C 229.807 258.868, 231.823 258.426, 240.357 258 L 250.363 257.500 246.682 254.699 C 242.498 251.516, 241.747 247.444, 244.829 244.655 C 247.306 242.413, 249.685 242.557, 261.167 245.642 L 271 248.285 271 254.142 L 271 260 300.032 260 L 329.064 260 329.969 262.250 C 330.560 263.721, 330.895 258.183, 330.937 246.250 C 330.991 230.723, 331.224 228, 332.500 228 C 333.795 228, 334 231.543, 334 253.891 L 334 279.783 337.920 281.351 C 340.076 282.214, 342.080 283.725, 342.375 284.710 C 343.509 288.506, 350 318.037, 350 319.402 C 350 320.193, 348.702 321.126, 347.116 321.475 L 344.232 322.108 346.173 329.684 C 347.240 333.852, 347.877 337.877, 347.588 338.631 C 347.212 339.610, 345.061 340, 340.031 340 L 333 340 333 380.341 L 333 420.681 343.250 420.523 C 351.545 420.395, 354.505 419.924, 358.770 418.051 C 368.968 413.573, 378.104 400.100, 376.648 391.691 C 376.344 389.936, 376.674 373.200, 377.381 354.500 C 378.527 324.213, 378.501 320.363, 377.143 319.250 C 375.824 318.169, 375.924 318, 377.881 318 C 379.126 318, 396.650 316.861, 416.823 315.469 C 441.949 313.735, 455.072 312.425, 458.490 311.309 C 465.350 309.069, 474.080 300.332, 476.295 293.490 C 478.856 285.581, 483.838 233.962, 483.919 214.500 C 484.017 191.216, 477.899 178.355, 463.481 171.535 C 455.640 167.825, 449.870 166.859, 440.144 167.626 L 431.500 168.309 425.500 175.304 C 422.200 179.152, 411.784 191.287, 402.352 202.271 L 385.205 222.243 384.599 239.872 C 384.266 249.567, 383.804 260.762, 383.574 264.750 C 383.185 271.461, 383.302 272, 385.144 272 C 387.260 272, 413.337 268.057, 413.539 267.707 C 413.604 267.593, 414.218 260.300, 414.902 251.500 C 417.474 218.420, 421.219 194, 423.720 194 C 424.843 194, 425.085 194.709, 424.660 196.750 C 422.912 205.127, 419.704 231.286, 418.184 249.552 C 416.577 268.858, 416.289 270.513, 414.471 270.865 C 413.387 271.074, 396.412 273.595, 376.750 276.467 C 345.219 281.072, 341 281.497, 341 280.063 C 341 278.713, 344.243 277.980, 360.147 275.739 C 370.678 274.254, 379.485 272.848, 379.720 272.614 C 379.954 272.379, 380.562 261.683, 381.070 248.844 C 381.579 236.005, 382.232 224.375, 382.521 223 C 382.811 221.625, 382.366 209.925, 381.534 197 C 380.701 184.075, 380.015 172.306, 380.010 170.847 C 380.001 168.366, 379.657 168.166, 374.750 167.777 C 371.863 167.548, 369.088 167.577, 368.586 167.841 C 368.083 168.105, 366.446 168.418, 364.949 168.535 C 357.027 169.159, 342.059 180.261, 338.034 188.500 C 337.228 190.150, 334.021 195.100, 330.907 199.500 C 324.734 208.222, 305.463 237.504, 302.416 242.791 C 300.310 246.446, 299.779 246.631, 288.750 247.535 L 281 248.171 281 161.085 L 281 74 164.500 74 L 48 74 48 222 M 367 127.600 C 367 131.130, 372.674 136.661, 377.159 137.502 C 381.947 138.400, 387.445 135.958, 389.974 131.810 C 393.951 125.287, 393.509 125, 379.500 125 L 367 125 367 127.600 M 125.772 150.345 C 112.744 154.784, 102.310 164.072, 96.386 176.500 C 87.310 195.545, 90.097 213.226, 105.957 237.215 C 117.416 254.546, 134.577 273.442, 156.296 292.643 L 168.093 303.072 170.796 300.956 C 179.192 294.387, 197.650 276.981, 206.805 267 C 229.628 242.118, 242.678 220.874, 244.837 205.083 C 248.240 180.197, 232.464 156.652, 207.571 149.466 C 203.082 148.170, 199.173 147.864, 191.486 148.205 C 182.823 148.591, 180.373 149.105, 174.827 151.700 C 169.003 154.426, 168.072 154.602, 165.912 153.389 C 155.670 147.637, 137.713 146.275, 125.772 150.345 M 381.598 325.250 C 381.003 329.167, 378.684 388.331, 378.835 395.725 C 379.028 405.230, 386.364 415.570, 396 419.923 C 400.056 421.756, 402.559 421.958, 421.368 421.978 L 442.236 422 441.746 399.250 C 441.215 374.607, 439.805 364.496, 435.295 353 C 431.964 344.509, 430.389 342.924, 420.500 338.114 C 412.637 334.290, 383.748 322, 382.620 322 C 382.329 322, 381.869 323.462, 381.598 325.250" stroke="none" fill="#ffffff" fill-rule="evenodd"/><path d="M 391.768 86.725 C 393.565 86.947, 396.265 86.943, 397.768 86.715 C 399.271 86.486, 397.800 86.304, 394.500 86.310 C 391.200 86.315, 389.971 86.502, 391.768 86.725 M 133.067 149.135 C 124.185 150.608, 113.337 156.443, 106.500 163.425 C 90.225 180.043, 87.678 201.480, 99.244 224.500 C 108.930 243.778, 134.180 273.022, 160.807 295.803 L 168.115 302.055 170.807 299.958 C 178.908 293.649, 198.862 274.670, 207.753 264.817 C 234.167 235.545, 246.577 211.654, 244.572 193.932 C 243.163 181.478, 237.899 170.974, 228.722 162.303 C 213.642 148.057, 194.331 144.650, 174.170 152.680 L 167.840 155.201 162.170 152.660 C 156.639 150.181, 146.016 147.905, 141 148.124 C 139.625 148.185, 136.055 148.639, 133.067 149.135" stroke="none" fill="#f99072" fill-rule="evenodd"/><path d="M 375.481 439 L 375.500 474.500 380.250 474.805 L 385 475.110 384.765 443.805 L 384.530 412.500 384.251 443.250 L 383.971 474 379.998 474 L 376.025 474 375.744 438.750 L 375.462 403.500 375.481 439" stroke="none" fill="#4a509c" fill-rule="evenodd"/><path d="M 47.462 74.250 C 47.200 74.938, 47.103 141.875, 47.246 223 L 47.507 370.500 47.753 222.254 L 48 74.008 164.750 73.750 L 281.500 73.492 164.719 73.246 C 72.032 73.051, 47.839 73.258, 47.462 74.250 M 366.345 125.543 C 366.019 126.392, 366.034 127.367, 366.376 127.710 C 366.719 128.053, 367 127.597, 367 126.697 C 367 125.283, 368.737 125.017, 379.750 124.747 L 392.500 124.435 379.719 124.217 C 368.986 124.035, 366.842 124.247, 366.345 125.543 M 384.320 233 C 384.320 236.575, 384.502 238.037, 384.723 236.250 C 384.945 234.463, 384.945 231.537, 384.723 229.750 C 384.502 227.963, 384.320 229.425, 384.320 233 M 333.435 253 C 333.435 267.025, 333.575 272.762, 333.747 265.750 C 333.919 258.738, 333.919 247.263, 333.747 240.250 C 333.575 233.238, 333.435 238.975, 333.435 253 M 381.320 243 C 381.320 246.575, 381.502 248.037, 381.723 246.250 C 381.945 244.463, 381.945 241.537, 381.723 239.750 C 381.502 237.963, 381.320 239.425, 381.320 243 M 417.232 254 C 417.232 255.925, 417.438 256.712, 417.689 255.750 C 417.941 254.787, 417.941 253.213, 417.689 252.250 C 417.438 251.287, 417.232 252.075, 417.232 254 M 481.252 254.500 C 481.263 256.700, 481.468 257.482, 481.707 256.238 C 481.946 254.994, 481.937 253.194, 481.687 252.238 C 481.437 251.282, 481.241 252.300, 481.252 254.500 M 383.328 261.500 C 383.333 265.350, 383.513 266.802, 383.730 264.728 C 383.946 262.653, 383.943 259.503, 383.722 257.728 C 383.501 255.952, 383.324 257.650, 383.328 261.500 M 414.232 258 C 414.232 259.925, 414.438 260.712, 414.689 259.750 C 414.941 258.788, 414.941 257.212, 414.689 256.250 C 414.438 255.287, 414.232 256.075, 414.232 258 M 415.921 267.249 C 415.623 269.399, 415.776 270.624, 416.279 270.121 C 416.762 269.638, 416.995 267.951, 416.798 266.372 C 416.468 263.728, 416.399 263.798, 415.921 267.249 M 380.272 269 C 380.272 271.475, 380.467 272.488, 380.706 271.250 C 380.944 270.012, 380.944 267.988, 380.706 266.750 C 380.467 265.512, 380.272 266.525, 380.272 269 M 197 276.500 C 192.903 280.625, 189.775 284, 190.050 284 C 190.325 284, 193.903 280.625, 198 276.500 C 202.097 272.375, 205.225 269, 204.950 269 C 204.675 269, 201.097 272.375, 197 276.500 M 218.232 276 C 218.232 277.925, 218.438 278.712, 218.689 277.750 C 218.941 276.788, 218.941 275.212, 218.689 274.250 C 218.438 273.288, 218.232 274.075, 218.232 276 M 264.250 292.689 C 265.212 292.941, 266.788 292.941, 267.750 292.689 C 268.712 292.438, 267.925 292.232, 266 292.232 C 264.075 292.232, 263.288 292.438, 264.250 292.689 M 250.250 293.689 C 251.213 293.941, 252.787 293.941, 253.750 293.689 C 254.713 293.438, 253.925 293.232, 252 293.232 C 250.075 293.232, 249.287 293.438, 250.250 293.689 M 235.762 294.707 C 237.006 294.946, 238.806 294.937, 239.762 294.687 C 240.718 294.437, 239.700 294.241, 237.500 294.252 C 235.300 294.263, 234.518 294.468, 235.762 294.707 M 481.232 298 C 481.232 299.925, 481.438 300.712, 481.689 299.750 C 481.941 298.788, 481.941 297.212, 481.689 296.250 C 481.438 295.288, 481.232 296.075, 481.232 298 M 446.250 313.689 C 447.212 313.941, 448.788 313.941, 449.750 313.689 C 450.712 313.438, 449.925 313.232, 448 313.232 C 446.075 313.232, 445.288 313.438, 446.250 313.689 M 432.250 314.689 C 433.212 314.941, 434.788 314.941, 435.750 314.689 C 436.712 314.438, 435.925 314.232, 434 314.232 C 432.075 314.232, 431.288 314.438, 432.250 314.689 M 417.762 315.707 C 419.006 315.946, 420.806 315.937, 421.762 315.687 C 422.718 315.437, 421.700 315.241, 419.500 315.252 C 417.300 315.263, 416.518 315.468, 417.762 315.707 M 402.762 316.707 C 404.006 316.946, 405.806 316.937, 406.762 316.687 C 407.718 316.437, 406.700 316.241, 404.500 316.252 C 402.300 316.263, 401.518 316.468, 402.762 316.707 M 388.250 317.689 C 389.212 317.941, 390.788 317.941, 391.750 317.689 C 392.712 317.438, 391.925 317.232, 390 317.232 C 388.075 317.232, 387.288 317.438, 388.250 317.689 M 378.320 329 C 378.320 332.575, 378.502 334.038, 378.723 332.250 C 378.945 330.462, 378.945 327.538, 378.723 325.750 C 378.502 323.962, 378.320 325.425, 378.320 329 M 380.320 347 C 380.320 350.575, 380.502 352.038, 380.723 350.250 C 380.945 348.462, 380.945 345.538, 380.723 343.750 C 380.502 341.962, 380.320 343.425, 380.320 347 M 377.320 357 C 377.320 360.575, 377.502 362.038, 377.723 360.250 C 377.945 358.462, 377.945 355.538, 377.723 353.750 C 377.502 351.962, 377.320 353.425, 377.320 357 M 379.328 375.500 C 379.333 379.350, 379.513 380.802, 379.730 378.728 C 379.946 376.653, 379.943 373.503, 379.722 371.728 C 379.501 369.952, 379.324 371.650, 379.328 375.500 M 376.310 385.500 C 376.315 388.800, 376.502 390.029, 376.725 388.232 C 376.947 386.435, 376.943 383.735, 376.715 382.232 C 376.486 380.729, 376.304 382.200, 376.310 385.500 M 415.199 422.744 C 419.984 422.927, 428.084 422.928, 433.199 422.746 C 438.315 422.564, 434.400 422.414, 424.500 422.413 C 414.600 422.412, 410.415 422.561, 415.199 422.744" stroke="none" fill="#eee2e7" fill-rule="evenodd"/></svg>