<svg xmlns="http://www.w3.org/2000/svg" width="512" height="512" viewBox="0 0 512 512" version="1.1"><path d="M 393 459.445 L 393 482.890 388.250 483.265 L 383.500 483.640 388.750 483.820 L 394 484 394 460 C 394 446.800, 393.775 436, 393.500 436 C 393.225 436, 393 446.550, 393 459.445" stroke="none" fill="#423f95" fill-rule="evenodd"/><path d="M 376 404.290 C 376 417.406, 375.569 424.266, 374.475 428.540 C 371.461 440.324, 361.941 450.217, 350.381 453.578 L 345 455.142 345 469.571 L 345 484 364.500 484 L 384 484 384 457.368 L 384 430.736 387.500 427.435 L 391 424.134 390.989 408.817 C 390.983 400.393, 390.699 391.813, 390.358 389.750 L 389.738 386 382.869 386 L 376 386 376 404.290 M 394 460.804 L 394 484 435.500 484 L 477 484 477 470.566 L 477 457.132 446.750 456.816 C 417.723 456.513, 416.300 456.408, 411.555 454.220 C 404.558 450.994, 400.237 447.443, 396.895 442.173 L 394 437.608 394 460.804" stroke="none" fill="#5150ac" fill-rule="evenodd"/><path d="M 385.354 41.454 C 382.523 42.253, 374.756 45.199, 368.093 48.001 C 361.431 50.804, 353.694 53.367, 350.901 53.698 C 348.108 54.029, 345.607 54.860, 345.344 55.545 C 344.501 57.743, 346.990 64.879, 349.120 66.372 L 351.183 67.817 349.092 69.908 C 347.899 71.101, 345.710 72, 344 72 C 341.620 72, 341 72.433, 341 74.099 C 341 77.521, 344.128 83.096, 348.194 86.922 L 351.997 90.500 351.998 100.559 C 351.999 107.402, 352.430 111.205, 353.344 112.456 C 354.529 114.076, 354.762 113.413, 355.303 106.898 C 355.640 102.829, 356.453 97.837, 357.109 95.805 C 358.227 92.341, 358.496 92.154, 361.401 92.805 C 363.105 93.187, 370.350 93.472, 377.500 93.438 C 387.852 93.388, 392.741 92.846, 401.500 90.776 C 407.550 89.347, 413.288 87.865, 414.250 87.482 C 415.694 86.908, 416 87.338, 416 89.943 C 416 94.008, 418.220 98.259, 421.449 100.375 C 423.827 101.933, 424 102.581, 424 109.941 C 424 119.140, 424.523 121, 427.107 121 C 428.614 121, 429 120.265, 429 117.393 C 429 114.515, 429.320 113.909, 430.582 114.393 C 431.452 114.727, 432.636 115, 433.214 115 C 433.791 115, 435.754 116.580, 437.575 118.511 L 440.887 122.023 443.868 115.761 C 448.327 106.397, 450.365 94.736, 449.764 82.037 C 448.903 63.881, 444.141 56.886, 428.577 50.912 C 424.135 49.207, 419.763 47.155, 418.862 46.352 C 413.200 41.308, 395.201 38.677, 385.354 41.454 M 106.272 111 C 106.272 113.475, 106.467 114.487, 106.706 113.250 C 106.944 112.013, 106.944 109.987, 106.706 108.750 C 106.467 107.513, 106.272 108.525, 106.272 111 M 106.286 120.500 C 106.294 123.250, 106.488 124.256, 106.718 122.736 C 106.947 121.216, 106.941 118.966, 106.704 117.736 C 106.467 116.506, 106.279 117.750, 106.286 120.500 M 131.184 173.269 C 128.484 179.784, 128.480 179.630, 131.403 183.462 C 133.480 186.185, 133.906 188.166, 134.537 198.056 L 135.269 209.500 141.770 217.225 C 145.345 221.474, 148.620 224.735, 149.046 224.472 C 149.472 224.208, 150.132 220.260, 150.512 215.699 C 151.087 208.799, 150.755 205.185, 148.541 194.204 C 147.077 186.944, 146.122 180.612, 146.418 180.133 C 146.991 179.205, 135.761 168, 134.258 168 C 133.769 168, 132.385 170.371, 131.184 173.269 M 375.419 405 C 375.419 415.725, 375.566 420.113, 375.746 414.750 C 375.925 409.387, 375.925 400.613, 375.746 395.250 C 375.566 389.887, 375.419 394.275, 375.419 405 M 391.272 422 C 391.272 424.475, 391.467 425.488, 391.706 424.250 C 391.944 423.012, 391.944 420.988, 391.706 419.750 C 391.467 418.512, 391.272 419.525, 391.272 422 M 72.815 440.749 C 82.888 440.912, 99.088 440.912, 108.815 440.748 C 118.542 440.585, 110.300 440.451, 90.500 440.451 C 70.700 440.452, 62.742 440.586, 72.815 440.749 M 398 444.313 C 398 444.485, 399.462 445.948, 401.250 447.563 L 404.500 450.500 401.563 447.250 C 398.825 444.221, 398 443.540, 398 444.313" stroke="none" fill="#48609d" fill-rule="evenodd"/><path d="M 141 123.050 C 141 126.394, 143.873 130.952, 147.299 133.040 C 153.972 137.110, 163.082 134.562, 166.330 127.717 C 169.522 120.990, 169.540 121, 154.500 121 C 141.558 121, 141 121.085, 141 123.050 M 369 142.550 C 369 145.436, 372.082 150.079, 375.299 152.040 C 382.005 156.130, 391.705 153.345, 394.560 146.510 C 395.352 144.615, 396 142.600, 396 142.032 C 396 141.374, 391.113 141, 382.500 141 C 370.974 141, 369 141.227, 369 142.550" stroke="none" fill="#ffffff" fill-rule="evenodd"/><path d="M 367.422 115.342 C 367.108 116.161, 366.997 118.107, 367.175 119.666 C 367.411 121.725, 368.047 122.500, 369.500 122.500 C 371.166 122.500, 371.500 121.833, 371.500 118.514 C 371.500 115.510, 371.068 114.444, 369.747 114.190 C 368.783 114.004, 367.737 114.522, 367.422 115.342 M 391.372 116.655 C 390.056 121.899, 394.649 124.782, 396.398 119.810 C 397.074 117.886, 396.975 116.675, 396.050 115.560 C 394.103 113.214, 392.119 113.679, 391.372 116.655 M 429 176.232 C 429 178.226, 429.563 180.460, 430.250 181.197 C 432.709 183.832, 435 188.857, 435.019 191.654 C 435.030 193.219, 431.543 204.510, 427.269 216.744 L 419.500 238.987 415 239.015 C 410.348 239.045, 402.939 241.841, 399.662 244.805 C 396.931 247.275, 394.379 252.729, 392.524 260.060 C 391.628 263.602, 390.663 267.288, 390.380 268.250 C 390.009 269.511, 390.432 270, 391.894 270 C 393.443 270, 394.181 268.994, 395.016 265.750 C 398.140 253.596, 399.080 251.315, 402.209 248.297 C 406.054 244.588, 409.768 243, 414.597 243 C 418.407 243, 424.493 245.231, 427.086 247.578 C 428.577 248.927, 428.800 248.873, 429.280 247.039 C 429.774 245.146, 426.896 241.799, 423.921 240.807 C 423.383 240.628, 426.591 230.135, 431.049 217.490 C 438.456 196.484, 439.112 194.010, 438.652 188.822 C 438.058 182.133, 437.347 180.638, 432.582 176.054 L 429 172.608 429 176.232 M 379.783 178.291 C 374.487 183.153, 375.318 181.372, 364.996 209.982 L 357.247 231.463 353.519 232.238 C 342.552 234.516, 337.132 246.286, 343.923 253.077 C 349.445 258.599, 360.370 256.362, 365.005 248.759 C 367.900 244.012, 367.576 239.725, 364.016 235.671 L 361.031 232.272 367.587 213.886 C 376.218 189.682, 377.101 187.807, 381.908 183.464 C 384.897 180.764, 386 178.990, 386 176.884 C 386 175.298, 385.653 174, 385.228 174 C 384.804 174, 382.353 175.931, 379.783 178.291 M 283.574 235.681 C 265.196 236.057, 263 236.535, 263 240.162 C 263 241.217, 265.475 250.715, 268.500 261.269 C 271.525 271.824, 274.001 281.143, 274.002 281.979 C 274.003 282.816, 276.470 292.275, 279.484 303 C 283.641 317.794, 285.506 322.946, 287.213 324.347 C 289.337 326.092, 291.229 326.155, 321.481 325.482 C 355.723 324.720, 357.021 324.505, 356.985 319.595 C 356.956 315.674, 355.806 315.280, 343 314.793 C 329.517 314.282, 326.528 313.369, 321.871 308.339 C 313.858 299.687, 316.606 285.274, 327.250 280.121 C 330.375 278.608, 333.548 278, 338.316 278 C 341.992 278, 344.986 277.663, 344.970 277.250 C 344.852 274.352, 333.962 238.536, 332.870 237.459 C 331.238 235.848, 311.049 235.120, 283.574 235.681 M 156.025 415 C 156.010 415.825, 154.719 419.200, 153.155 422.500 C 149.932 429.303, 144.068 435.103, 137.170 438.312 C 132.671 440.405, 131.081 440.496, 93.750 440.796 L 55 441.108 55 462.554 L 55 484 127.500 484 L 200 484 199.996 461.250 L 199.993 438.500 190.246 438.478 C 182.447 438.460, 179.566 438.028, 175.824 436.317 C 169.027 433.208, 162.432 426.654, 159.018 419.615 C 157.386 416.252, 156.039 414.175, 156.025 415 M 386.924 428.579 C 384.506 431.151, 384.499 431.218, 384.189 457.079 L 383.877 483 388.511 483 L 393.145 483 392.786 456.250 C 392.454 431.490, 391.961 426, 390.067 426 C 389.672 426, 388.258 427.160, 386.924 428.579" stroke="none" fill="#333077" fill-rule="evenodd"/><path d="M 368.015 141.750 C 368.026 142.963, 368.269 143.125, 368.805 142.280 C 369.335 141.447, 373.842 140.962, 383.040 140.749 L 396.500 140.437 382.250 140.218 C 369.257 140.019, 368.001 140.154, 368.015 141.750 M 380.250 154.689 C 381.212 154.941, 382.788 154.941, 383.750 154.689 C 384.712 154.438, 383.925 154.232, 382 154.232 C 380.075 154.232, 379.288 154.438, 380.250 154.689 M 382.231 194.914 C 379.914 199.205, 376.891 205.709, 375.514 209.367 C 373.055 215.900, 373.020 216.392, 373.545 237.259 C 373.838 248.941, 374.322 261.313, 374.619 264.750 L 375.159 271 381.730 271 L 388.301 271 387.639 260.105 C 386.473 240.906, 389.704 228.171, 398.761 216.275 C 401.367 212.851, 409.125 205.261, 416 199.407 C 422.875 193.554, 428.725 188.532, 429 188.247 C 429.944 187.269, 425.460 189.837, 405.107 201.931 C 393.891 208.595, 384.581 213.914, 384.417 213.751 C 384.254 213.587, 384.699 207.614, 385.406 200.477 C 386.113 193.339, 386.636 187.413, 386.568 187.306 C 386.501 187.199, 384.549 190.623, 382.231 194.914 M 376.750 313.689 C 375.125 314.114, 375 316.675, 375 349.573 L 375 385 383.025 385 L 391.051 385 390.521 371.750 C 390.230 364.462, 389.718 348.262, 389.384 335.750 L 388.777 313 383.639 313.116 C 380.812 313.180, 377.712 313.438, 376.750 313.689" stroke="none" fill="#fdf3e3" fill-rule="evenodd"/><path d="M 439.232 192 C 439.232 193.925, 439.438 194.713, 439.689 193.750 C 439.941 192.787, 439.941 191.213, 439.689 190.250 C 439.438 189.287, 439.232 190.075, 439.232 192 M 134.300 202 C 134.300 205.025, 134.487 206.262, 134.716 204.750 C 134.945 203.238, 134.945 200.762, 134.716 199.250 C 134.487 197.738, 134.300 198.975, 134.300 202 M 335.832 234.028 C 335.609 238.748, 336.125 243.350, 337.404 248.041 C 338.451 251.883, 339.465 254.868, 339.657 254.676 C 340.085 254.249, 340.299 245.164, 340.128 234.750 C 340.014 227.822, 339.797 227, 338.082 227 C 336.405 227, 336.122 227.882, 335.832 234.028 M 431.992 237.750 C 430.720 243.662, 429.246 249.063, 428.717 249.750 C 428.188 250.438, 427.984 251, 428.264 251 C 428.544 251, 427.784 254.938, 426.575 259.750 L 424.378 268.500 416.439 269.273 C 412.073 269.698, 405.236 269.923, 401.247 269.773 C 397.258 269.623, 393.883 269.821, 393.747 270.212 C 393.611 270.604, 386.188 271.236, 377.250 271.616 C 364.637 272.152, 361 272.608, 361 273.653 C 361 274.587, 362.411 275, 365.601 275 C 371.759 275, 426.420 271.903, 426.796 271.533 C 427.671 270.672, 436.998 229.438, 436.570 228.323 C 435.367 225.186, 434.160 227.669, 431.992 237.750 M 412.762 238.707 C 414.006 238.946, 415.806 238.937, 416.762 238.687 C 417.718 238.437, 416.700 238.241, 414.500 238.252 C 412.300 238.263, 411.518 238.468, 412.762 238.707 M 398.437 245.250 L 395.500 248.500 398.750 245.563 C 401.779 242.825, 402.460 242, 401.687 242 C 401.515 242, 400.052 243.463, 398.437 245.250 M 473.532 276.979 C 468.652 288.518, 463.376 299.514, 461.809 301.416 C 460.242 303.317, 456.412 306.119, 453.300 307.642 C 448.015 310.228, 446.344 310.478, 428.070 311.431 C 409.024 312.424, 408.741 312.469, 417.500 313.144 C 442.904 315.099, 460.089 328.400, 469.493 353.386 C 474.283 366.111, 475.246 376.465, 474.481 407 C 473.806 433.917, 474.351 443.815, 477.030 453.250 C 477.888 456.275, 478.568 457, 480.547 457 L 483 457 483 356.500 C 483 301.225, 482.866 256, 482.703 256 C 482.540 256, 478.413 265.441, 473.532 276.979 M 356.968 316.888 C 357.495 318.725, 357.368 320.635, 356.620 322.138 C 355.463 324.462, 355.146 324.509, 336.972 325.034 C 325.029 325.380, 321.946 325.645, 328.250 325.784 L 338 326 338 390.500 L 338 455 341 455 L 344 455 344.030 447.750 C 344.172 412.913, 346.101 358.515, 347.439 351.583 C 350.297 336.781, 358.405 324.405, 368.678 319.164 C 370.854 318.054, 373.221 316.438, 373.939 315.573 C 375.111 314.161, 374.267 314, 365.692 314 L 356.140 314 356.968 316.888 M 411 386.804 C 411 399.571, 411.190 400.989, 413.533 405.691 C 419.208 417.079, 432.564 421.232, 444.136 415.207 C 448.274 413.052, 450.243 411.176, 452.750 407.001 L 456 401.588 456 387.294 L 456 373 433.500 373 L 411 373 411 386.804 M 391.355 409.500 C 391.352 414.450, 391.521 416.601, 391.731 414.280 C 391.940 411.959, 391.943 407.909, 391.736 405.280 C 391.530 402.651, 391.358 404.550, 391.355 409.500 M 436.250 456.748 C 443.813 456.917, 456.188 456.917, 463.750 456.748 C 471.313 456.578, 465.125 456.439, 450 456.439 C 434.875 456.439, 428.688 456.578, 436.250 456.748" stroke="none" fill="#5db19c" fill-rule="evenodd"/><path d="M 367.422 115.342 C 367.108 116.161, 366.997 118.107, 367.175 119.666 C 367.411 121.725, 368.047 122.500, 369.500 122.500 C 371.166 122.500, 371.500 121.833, 371.500 118.514 C 371.500 115.510, 371.068 114.444, 369.747 114.190 C 368.783 114.004, 367.737 114.522, 367.422 115.342 M 391.372 116.655 C 390.056 121.899, 394.649 124.782, 396.398 119.810 C 397.074 117.886, 396.975 116.675, 396.050 115.560 C 394.103 113.214, 392.119 113.679, 391.372 116.655 M 429 176.232 C 429 178.226, 429.563 180.460, 430.250 181.197 C 432.709 183.832, 435 188.857, 435.019 191.654 C 435.030 193.219, 431.543 204.510, 427.269 216.744 L 419.500 238.987 415 239.015 C 410.348 239.045, 402.939 241.841, 399.662 244.805 C 396.931 247.275, 394.379 252.729, 392.524 260.060 C 391.628 263.602, 390.663 267.288, 390.380 268.250 C 390.009 269.511, 390.432 270, 391.894 270 C 393.443 270, 394.181 268.994, 395.016 265.750 C 398.140 253.596, 399.080 251.315, 402.209 248.297 C 406.054 244.588, 409.768 243, 414.597 243 C 418.407 243, 424.493 245.231, 427.086 247.578 C 428.577 248.927, 428.800 248.873, 429.280 247.039 C 429.774 245.146, 426.896 241.799, 423.921 240.807 C 423.383 240.628, 426.591 230.135, 431.049 217.490 C 438.456 196.484, 439.112 194.010, 438.652 188.822 C 438.058 182.133, 437.347 180.638, 432.582 176.054 L 429 172.608 429 176.232 M 379.783 178.291 C 374.487 183.153, 375.318 181.372, 364.996 209.982 L 357.247 231.463 353.519 232.238 C 342.552 234.516, 337.132 246.286, 343.923 253.077 C 349.445 258.599, 360.370 256.362, 365.005 248.759 C 367.900 244.012, 367.576 239.725, 364.016 235.671 L 361.031 232.272 367.587 213.886 C 376.218 189.682, 377.101 187.807, 381.908 183.464 C 384.897 180.764, 386 178.990, 386 176.884 C 386 175.298, 385.653 174, 385.228 174 C 384.804 174, 382.353 175.931, 379.783 178.291 M 283.574 235.681 C 265.196 236.057, 263 236.535, 263 240.162 C 263 241.217, 265.475 250.715, 268.500 261.269 C 271.525 271.824, 274.001 281.143, 274.002 281.979 C 274.003 282.816, 276.470 292.275, 279.484 303 C 283.641 317.794, 285.506 322.946, 287.213 324.347 C 289.337 326.092, 291.229 326.155, 321.481 325.482 C 355.723 324.720, 357.021 324.505, 356.985 319.595 C 356.956 315.674, 355.806 315.280, 343 314.793 C 329.517 314.282, 326.528 313.369, 321.871 308.339 C 313.858 299.687, 316.606 285.274, 327.250 280.121 C 330.375 278.608, 333.548 278, 338.316 278 C 341.992 278, 344.986 277.663, 344.970 277.250 C 344.852 274.352, 333.962 238.536, 332.870 237.459 C 331.238 235.848, 311.049 235.120, 283.574 235.681 M 156.025 415 C 156.010 415.825, 154.719 419.200, 153.155 422.500 C 149.932 429.303, 144.068 435.103, 137.170 438.312 C 132.671 440.405, 131.081 440.496, 93.750 440.796 L 55 441.108 55 462.554 L 55 484 127.500 484 L 200 484 199.996 461.250 L 199.993 438.500 190.246 438.478 C 182.447 438.460, 179.566 438.028, 175.824 436.317 C 169.027 433.208, 162.432 426.654, 159.018 419.615 C 157.386 416.252, 156.039 414.175, 156.025 415 M 386.924 428.579 C 384.506 431.151, 384.499 431.218, 384.189 457.079 L 383.877 483 388.511 483 L 393.145 483 392.786 456.250 C 392.454 431.490, 391.961 426, 390.067 426 C 389.672 426, 388.258 427.160, 386.924 428.579" stroke="none" fill="#333077" fill-rule="evenodd"/><path d="M 360.103 187.547 C 347.569 190.266, 332.143 202.490, 325.648 214.851 C 322.651 220.554, 319 231.186, 319 234.210 C 319 234.645, 321.813 235.007, 325.250 235.015 C 331.982 235.032, 333.062 235.425, 334.805 238.500 C 335.738 240.145, 335.945 239.301, 335.970 233.750 C 335.997 227.677, 336.201 227, 338 227 C 339.828 227, 340 227.668, 340.004 234.750 L 340.007 242.500 341.995 239.241 C 344.261 235.524, 349.073 232.276, 353.576 231.424 C 356.559 230.860, 356.840 230.314, 362.943 213.171 C 366.404 203.452, 370.076 193.363, 371.103 190.750 L 372.971 186 369.735 186.079 C 367.956 186.123, 363.621 186.783, 360.103 187.547 M 377.595 189.440 C 376.698 191.332, 372.810 201.732, 368.957 212.551 L 361.950 232.223 364.412 234.684 C 369.168 239.440, 368.652 247.096, 363.227 252.271 C 359.792 255.548, 355.987 257, 350.835 257 C 347.580 257, 346.143 256.343, 343.400 253.600 L 340 250.200 340 253.418 C 340 258.518, 342.864 267, 344.586 267 C 345.415 267, 349.448 268.841, 353.547 271.090 L 361 275.181 361 294.739 L 361 314.298 374.887 313.611 L 388.775 312.923 389.420 335.712 C 389.775 348.245, 390.638 374.983, 391.336 395.130 L 392.607 431.760 395.849 438.344 C 399.310 445.376, 403.632 449.635, 411 453.276 C 415.284 455.393, 417.003 455.524, 446.739 456 C 474.189 456.439, 477.926 456.318, 477.549 455 C 477.312 454.175, 476.530 451.475, 475.810 449 C 474.824 445.614, 474.558 436.328, 474.734 411.500 C 474.912 386.248, 474.620 376.336, 473.487 369.282 C 470.105 348.223, 460.531 331.862, 445.854 322.061 C 438.168 316.929, 428.932 314.024, 417.500 313.144 C 408.741 312.469, 409.024 312.424, 428.070 311.431 C 446.344 310.478, 448.015 310.228, 453.300 307.642 C 456.412 306.119, 460.235 303.325, 461.795 301.432 C 463.355 299.540, 468.771 288.206, 473.832 276.246 L 483.032 254.500 482.994 230.500 C 482.950 202.652, 482.665 201.481, 474.054 193.739 C 467.402 187.758, 461.722 186, 449.052 186 L 439.467 186 439.385 191.750 C 439.321 196.275, 437.684 201.973, 431.699 218.500 L 424.094 239.500 426.797 241.714 C 428.284 242.932, 429.767 243.944, 430.094 243.964 C 430.420 243.984, 431.490 240.175, 432.471 235.500 C 434.153 227.487, 435.407 225.291, 436.570 228.323 C 436.998 229.438, 427.671 270.672, 426.796 271.533 C 426.420 271.903, 371.759 275, 365.601 275 C 362.178 275, 361 274.616, 361 273.500 C 361 272.285, 362.755 271.974, 370.250 271.864 C 375.337 271.789, 378.520 271.537, 377.323 271.304 C 374.645 270.783, 374.312 267.776, 373.545 237.259 C 373.018 216.312, 373.046 215.924, 375.553 209.259 C 376.952 205.541, 379.875 199.259, 382.048 195.297 C 384.222 191.336, 386 187.623, 386 187.047 C 386 186.471, 384.476 186, 382.614 186 C 379.738 186, 378.982 186.519, 377.595 189.440 M 417.244 198.310 C 409.403 205.045, 400.973 213.243, 398.509 216.528 C 389.640 228.354, 386.484 241.097, 387.655 260.355 C 388.414 272.841, 388.009 273.151, 392.921 256.317 C 394.074 252.366, 396.195 247.733, 397.634 246.023 C 401.387 241.563, 407.565 238.684, 413.598 238.584 L 418.696 238.500 426.408 216.796 C 432.325 200.141, 434.047 194.111, 433.810 190.874 C 433.639 188.554, 433.050 186.522, 432.500 186.360 C 431.950 186.197, 425.085 191.575, 417.244 198.310 M 406.500 245.861 C 401.549 248.919, 399.920 251.474, 397.402 260.136 C 396.081 264.680, 395 268.758, 395 269.199 C 395 270.113, 408.356 270.075, 417.941 269.133 L 424.383 268.500 426.548 259.869 C 429.017 250.025, 428.735 248.926, 422.986 245.993 C 417.986 243.442, 410.513 243.382, 406.500 245.861 M 373.682 315.764 C 373.232 316.460, 371.032 317.963, 368.793 319.105 C 362.636 322.247, 355.257 330.227, 351.923 337.350 C 346.716 348.477, 346.111 354.408, 344.937 405.785 C 344.343 431.791, 344.001 453.443, 344.178 453.900 C 344.748 455.369, 356.351 450.912, 361.176 447.371 C 363.748 445.483, 367.253 441.823, 368.965 439.238 C 375.031 430.082, 375.043 429.932, 374.759 369.464 C 374.616 339.234, 374.132 315.069, 373.682 315.764 M 319 353 L 319 380 328.500 380 L 338 380 338 353 L 338 326 328.500 326 L 319 326 319 353 M 411 386.804 C 411 399.571, 411.190 400.989, 413.533 405.691 C 419.208 417.079, 432.564 421.232, 444.136 415.207 C 448.274 413.052, 450.243 411.176, 452.750 407.001 L 456 401.588 456 387.294 L 456 373 433.500 373 L 411 373 411 386.804" stroke="none" fill="#78d7a6" fill-rule="evenodd"/><path d="M 168.714 77.054 C 161.086 79.127, 146.091 81, 137.121 81 C 131.304 81, 131.110 81.088, 128.909 84.750 C 124.611 91.902, 117.702 99.151, 112.252 102.227 L 106.775 105.318 107.199 114.409 C 107.720 125.574, 109.891 130.890, 117.006 138.413 C 122.002 143.695, 131.002 149, 134.968 149 C 136.021 149, 137.123 149.391, 137.418 149.868 C 138.423 151.494, 126.530 153.156, 116.248 152.828 L 105.996 152.500 105.998 155.565 L 106 158.629 120 162.824 L 133.999 167.019 141.500 163.871 L 149 160.723 149 155.520 L 149 150.317 153.250 149.047 C 163.664 145.936, 171.903 138.971, 176.682 129.239 L 179.500 123.500 179.385 102.500 C 179.276 82.512, 178.557 75.890, 176.445 75.420 C 175.925 75.304, 172.446 76.040, 168.714 77.054 M 403.500 90.604 C 387.184 94.813, 374.285 95.662, 361.371 93.377 C 358.308 92.835, 358.215 92.933, 356.994 98.026 C 356.250 101.128, 355.696 110.959, 355.623 122.365 C 355.500 141.487, 355.502 141.504, 358.401 147.782 C 362.124 155.844, 370.681 163.989, 378.503 166.915 C 381.568 168.062, 384.452 169, 384.913 169 C 387.033 169, 387.070 184.295, 384.999 204.456 C 384.493 209.382, 384.220 213.553, 384.392 213.725 C 384.618 213.952, 429.399 187.987, 429.517 187.561 C 429.526 187.528, 429.381 184.103, 429.195 179.951 L 428.856 172.402 418.678 172.392 C 413.080 172.386, 405.809 171.793, 402.521 171.072 L 396.541 169.763 402.597 167.570 C 410.741 164.621, 415.167 161.753, 419.938 156.333 C 423.365 152.440, 428 143.028, 428 139.962 C 428 139.433, 428.922 139, 430.050 139 C 433.088 139, 437.479 136.444, 439.352 133.586 C 441.509 130.293, 441.435 123.094, 439.217 120.469 C 436.731 117.529, 432.829 115, 430.777 115 C 429.413 115, 429 115.813, 429 118.500 C 429 122.610, 426.953 123.198, 424.557 119.777 C 423.476 118.234, 423 115.208, 423 109.877 C 423 102.437, 422.892 102.092, 419.500 98.700 C 416.796 95.996, 416 94.381, 416 91.600 C 416 87.331, 416.141 87.342, 403.500 90.604 M 139.569 95.573 C 136.652 98.491, 137.914 104, 141.500 104 C 143.936 104, 145 102.314, 145 98.453 C 145 95.212, 141.688 93.455, 139.569 95.573 M 163.616 95.527 C 161.607 97.536, 161.523 101.359, 163.452 102.960 C 166.985 105.893, 170.893 101.405, 168.664 96.974 C 167.152 93.965, 165.618 93.525, 163.616 95.527 M 367.200 114.200 C 364.766 116.634, 366.495 124, 369.500 124 C 371.269 124, 373 120.918, 373 117.766 C 373 115.264, 371.337 113, 369.500 113 C 368.895 113, 367.860 113.540, 367.200 114.200 M 390.852 115.426 C 389.503 118.386, 390.409 122.559, 392.582 123.393 C 396.216 124.787, 398.976 119.138, 396.504 115.365 C 394.513 112.327, 392.253 112.351, 390.852 115.426 M 140.706 121.750 C 139.844 123.318, 142.089 128.816, 144.628 131.356 C 148.364 135.091, 153.783 136.557, 158.322 135.059 C 163.043 133.501, 168 127.819, 168 123.965 L 168 121 154.559 121 C 147.166 121, 140.933 121.338, 140.706 121.750 M 368 140.980 C 368 141.519, 368.726 143.774, 369.614 145.993 C 372.375 152.893, 379.488 156.314, 386.360 154.046 C 391.048 152.499, 396 146.806, 396 142.965 L 396 140 382 140 C 373.526 140, 368 140.387, 368 140.980 M 294.814 169.250 C 293.951 169.938, 289.064 177.137, 283.954 185.250 C 278.843 193.363, 274.352 200, 273.973 200 C 273.594 200, 272.883 198.134, 272.392 195.853 C 271.821 193.197, 270.534 190.986, 268.814 189.705 C 266.445 187.941, 265.763 187.855, 263.051 188.979 C 258.317 190.940, 258.188 192.867, 261.627 210.295 C 262.079 212.584, 265.148 215.075, 278.567 224.045 C 298.854 237.605, 300.048 237.836, 305.491 229.250 C 308.698 224.191, 309.090 222.891, 308.751 218.430 C 308.259 211.959, 306.081 209.084, 298.240 204.554 L 291.981 200.938 293.634 197.719 C 294.543 195.949, 297.472 190.613, 300.143 185.863 C 305.344 176.614, 306.142 172.344, 303.171 169.655 C 301.004 167.694, 297.010 167.500, 294.814 169.250 M 101.152 169.808 C 101.343 170.300, 108.700 179.046, 117.500 189.242 L 133.500 207.780 133.786 197.782 C 134.059 188.251, 133.946 187.618, 131.377 184.250 C 128.879 180.975, 128.586 180.846, 127.376 182.501 C 126.165 184.157, 125.154 183.729, 113.437 176.599 C 106.489 172.371, 100.960 169.315, 101.152 169.808 M 152 177.418 C 152 178.748, 151.719 180.568, 151.376 181.461 C 150.805 182.949, 150.595 182.943, 148.876 181.388 C 147.082 179.764, 147.002 179.816, 147.046 182.595 C 147.071 184.193, 147.905 189.325, 148.900 194 C 150.247 200.328, 150.859 201.861, 151.295 200 C 152.136 196.413, 153.214 175, 152.554 175 C 152.249 175, 152 176.088, 152 177.418 M 343.011 267.250 C 343.017 267.387, 343.692 269.709, 344.511 272.409 C 345.330 275.109, 346 277.696, 346 278.159 C 346 278.622, 342.607 279, 338.460 279 C 328.907 279, 324.124 281.225, 320.543 287.336 C 315.024 296.754, 318.469 307.480, 328.500 312.110 C 331.787 313.627, 335.039 313.960, 346.750 313.978 L 361 314 361 294.590 L 361 275.181 353.547 271.090 C 347.338 267.683, 342.960 266.087, 343.011 267.250 M 319 385.874 C 319 396.079, 323.090 404.155, 331.253 410.068 C 338.026 414.974, 338 415.026, 338 396.500 L 338 380 328.500 380 L 319 380 319 385.874 M 29.407 402.750 C 30.229 420.181, 31.051 423.850, 35.191 428.564 C 39.523 433.498, 43.383 435.218, 50.429 435.354 C 58.017 435.499, 64.057 432.429, 68.427 426.205 C 71.257 422.174, 71.475 421.190, 71.971 410.228 L 72.500 398.547 76.248 403.774 C 79.261 407.974, 80.556 409, 82.843 409 C 85.744 409, 89 406.383, 89 404.051 C 89 403.341, 87.110 399.439, 84.801 395.380 L 80.602 388 54.656 388 L 28.710 388 29.407 402.750" stroke="none" fill="#f9c4c0" fill-rule="evenodd"/><path d="M 150.232 219 C 150.232 220.925, 150.438 221.713, 150.689 220.750 C 150.941 219.787, 150.941 218.213, 150.689 217.250 C 150.438 216.287, 150.232 217.075, 150.232 219 M 148.038 225.954 C 148.478 226.804, 150.035 268.450, 151.498 318.500 C 152.962 368.550, 154.338 410.438, 154.557 411.583 C 155.206 414.982, 157.597 414.109, 157.296 410.583 C 157.151 408.887, 155.891 369.475, 154.495 323 C 151.530 224.244, 151.521 224.085, 149.040 224.272 C 147.751 224.369, 147.465 224.848, 148.038 225.954 M 79 308.500 C 79 378.500, 79.179 388, 80.500 388 C 81.821 388, 82 378.500, 82 308.500 C 82 238.500, 81.821 229, 80.500 229 C 79.179 229, 79 238.500, 79 308.500 M 204 284 C 204 329.556, 204.186 336, 205.500 336 C 206.814 336, 207 329.556, 207 284 C 207 238.444, 206.814 232, 205.500 232 C 204.186 232, 204 238.444, 204 284 M 337.250 278.716 C 338.762 278.945, 341.238 278.945, 342.750 278.716 C 344.262 278.487, 343.025 278.300, 340 278.300 C 336.975 278.300, 335.738 278.487, 337.250 278.716" stroke="none" fill="#669fff" fill-rule="evenodd"/><path d="M 66.308 168.914 C 48.954 173.879, 33.780 190.177, 30.105 207.799 C 29.347 211.434, 29 240.568, 29 300.549 L 29 388 54 388 L 79 388 79 308.500 C 79 238.237, 79.176 229, 80.511 229 C 81.847 229, 82.019 238.334, 81.988 309.542 L 81.954 390.085 85.477 396.096 C 87.415 399.402, 89 402.983, 89 404.054 C 89 406.406, 85.615 410, 83.400 410 C 81.717 410, 76.624 405.234, 73.783 401 C 72.158 398.580, 72.103 398.835, 72.030 409 C 71.974 416.958, 71.509 420.485, 70.107 423.571 C 66.648 431.187, 57.243 436.714, 49.316 435.789 C 46.327 435.440, 46 435.653, 46 437.951 L 45.999 440.500 87.250 440.199 C 133.352 439.863, 135.078 439.649, 143.500 433.234 C 147.130 430.468, 149.368 427.654, 151.669 422.962 L 154.838 416.500 151.669 321.132 L 148.500 225.765 130.500 204.719 C 120.600 193.143, 109.221 179.921, 105.213 175.336 L 97.927 167 85.213 167.071 C 76.226 167.122, 70.685 167.662, 66.308 168.914 M 153.562 172.250 C 152.114 185.320, 150.489 224.042, 151.162 229.476 C 151.571 232.789, 153.116 275.325, 154.595 324 C 157.665 425.102, 156.959 418.916, 166.522 428.478 C 173.954 435.911, 179.882 438, 193.538 438 L 204 438 204 335 C 204 244.111, 204.176 232, 205.500 232 C 206.814 232, 207 238.433, 207 283.893 C 207 342.567, 206.070 337, 215.872 337 C 228.140 337, 241.168 331.497, 249.727 322.699 C 253.046 319.287, 258.084 311.640, 264.380 300.456 L 273.975 283.411 267.988 262.457 C 264.694 250.932, 262 240.784, 262 239.906 C 262 235.923, 264.991 235.069, 279.959 234.779 L 294.324 234.500 278.880 224.250 C 270.387 218.613, 263.001 214.003, 262.468 214.007 C 261.936 214.012, 255.207 224.383, 247.516 237.054 C 239.824 249.726, 233.439 259.735, 233.325 259.297 C 233.212 258.858, 231.506 249.725, 229.533 239 C 227.560 228.275, 224.840 215.855, 223.488 211.401 C 218.706 195.647, 206.923 181.659, 192.382 174.474 C 184.102 170.383, 169.708 167.033, 160.322 167.013 L 154.144 167 153.562 172.250 M 379.250 385.728 C 381.313 385.944, 384.688 385.944, 386.750 385.728 C 388.813 385.513, 387.125 385.336, 383 385.336 C 378.875 385.336, 377.188 385.513, 379.250 385.728" stroke="none" fill="#79affe" fill-rule="evenodd"/><path d="M 66.308 168.914 C 48.954 173.879, 33.780 190.177, 30.105 207.799 C 29.347 211.434, 29 240.568, 29 300.549 L 29 388 54 388 L 79 388 79 308.500 C 79 238.237, 79.176 229, 80.511 229 C 81.847 229, 82.019 238.334, 81.988 309.542 L 81.954 390.085 85.477 396.096 C 87.415 399.402, 89 402.983, 89 404.054 C 89 406.406, 85.615 410, 83.400 410 C 81.717 410, 76.624 405.234, 73.783 401 C 72.158 398.580, 72.103 398.835, 72.030 409 C 71.974 416.958, 71.509 420.485, 70.107 423.571 C 66.648 431.187, 57.243 436.714, 49.316 435.789 C 46.327 435.440, 46 435.653, 46 437.951 L 45.999 440.500 87.250 440.199 C 133.352 439.863, 135.078 439.649, 143.500 433.234 C 147.130 430.468, 149.368 427.654, 151.669 422.962 L 154.838 416.500 151.669 321.132 L 148.500 225.765 130.500 204.719 C 120.600 193.143, 109.221 179.921, 105.213 175.336 L 97.927 167 85.213 167.071 C 76.226 167.122, 70.685 167.662, 66.308 168.914 M 153.562 172.250 C 152.114 185.320, 150.489 224.042, 151.162 229.476 C 151.571 232.789, 153.116 275.325, 154.595 324 C 157.665 425.102, 156.959 418.916, 166.522 428.478 C 173.954 435.911, 179.882 438, 193.538 438 L 204 438 204 335 C 204 244.111, 204.176 232, 205.500 232 C 206.814 232, 207 238.433, 207 283.893 C 207 342.567, 206.070 337, 215.872 337 C 228.140 337, 241.168 331.497, 249.727 322.699 C 253.046 319.287, 258.084 311.640, 264.380 300.456 L 273.975 283.411 267.988 262.457 C 264.694 250.932, 262 240.784, 262 239.906 C 262 235.923, 264.991 235.069, 279.959 234.779 L 294.324 234.500 278.880 224.250 C 270.387 218.613, 263.001 214.003, 262.468 214.007 C 261.936 214.012, 255.207 224.383, 247.516 237.054 C 239.824 249.726, 233.439 259.735, 233.325 259.297 C 233.212 258.858, 231.506 249.725, 229.533 239 C 227.560 228.275, 224.840 215.855, 223.488 211.401 C 218.706 195.647, 206.923 181.659, 192.382 174.474 C 184.102 170.383, 169.708 167.033, 160.322 167.013 L 154.144 167 153.562 172.250 M 379.250 385.728 C 381.313 385.944, 384.688 385.944, 386.750 385.728 C 388.813 385.513, 387.125 385.336, 383 385.336 C 378.875 385.336, 377.188 385.513, 379.250 385.728" stroke="none" fill="#79affe" fill-rule="evenodd"/><path d="M 385.354 41.454 C 382.523 42.253, 374.756 45.199, 368.093 48.001 C 361.431 50.804, 353.694 53.367, 350.901 53.698 C 348.108 54.029, 345.607 54.860, 345.344 55.545 C 344.501 57.743, 346.990 64.879, 349.120 66.372 L 351.183 67.817 349.092 69.908 C 347.899 71.101, 345.710 72, 344 72 C 341.620 72, 341 72.433, 341 74.099 C 341 77.521, 344.128 83.096, 348.194 86.922 L 351.997 90.500 351.998 100.559 C 351.999 107.402, 352.430 111.205, 353.344 112.456 C 354.529 114.076, 354.762 113.413, 355.303 106.898 C 355.640 102.829, 356.453 97.837, 357.109 95.805 C 358.227 92.341, 358.496 92.154, 361.401 92.805 C 363.105 93.187, 370.350 93.472, 377.500 93.438 C 387.852 93.388, 392.741 92.846, 401.500 90.776 C 407.550 89.347, 413.288 87.865, 414.250 87.482 C 415.694 86.908, 416 87.338, 416 89.943 C 416 94.008, 418.220 98.259, 421.449 100.375 C 423.827 101.933, 424 102.581, 424 109.941 C 424 119.140, 424.523 121, 427.107 121 C 428.614 121, 429 120.265, 429 117.393 C 429 114.515, 429.320 113.909, 430.582 114.393 C 431.452 114.727, 432.636 115, 433.214 115 C 433.791 115, 435.754 116.580, 437.575 118.511 L 440.887 122.023 443.868 115.761 C 448.327 106.397, 450.365 94.736, 449.764 82.037 C 448.903 63.881, 444.141 56.886, 428.577 50.912 C 424.135 49.207, 419.763 47.155, 418.862 46.352 C 413.200 41.308, 395.201 38.677, 385.354 41.454 M 106.272 111 C 106.272 113.475, 106.467 114.487, 106.706 113.250 C 106.944 112.013, 106.944 109.987, 106.706 108.750 C 106.467 107.513, 106.272 108.525, 106.272 111 M 106.286 120.500 C 106.294 123.250, 106.488 124.256, 106.718 122.736 C 106.947 121.216, 106.941 118.966, 106.704 117.736 C 106.467 116.506, 106.279 117.750, 106.286 120.500 M 131.184 173.269 C 128.484 179.784, 128.480 179.630, 131.403 183.462 C 133.480 186.185, 133.906 188.166, 134.537 198.056 L 135.269 209.500 141.770 217.225 C 145.345 221.474, 148.620 224.735, 149.046 224.472 C 149.472 224.208, 150.132 220.260, 150.512 215.699 C 151.087 208.799, 150.755 205.185, 148.541 194.204 C 147.077 186.944, 146.122 180.612, 146.418 180.133 C 146.991 179.205, 135.761 168, 134.258 168 C 133.769 168, 132.385 170.371, 131.184 173.269 M 375.419 405 C 375.419 415.725, 375.566 420.113, 375.746 414.750 C 375.925 409.387, 375.925 400.613, 375.746 395.250 C 375.566 389.887, 375.419 394.275, 375.419 405 M 391.272 422 C 391.272 424.475, 391.467 425.488, 391.706 424.250 C 391.944 423.012, 391.944 420.988, 391.706 419.750 C 391.467 418.512, 391.272 419.525, 391.272 422 M 72.815 440.749 C 82.888 440.912, 99.088 440.912, 108.815 440.748 C 118.542 440.585, 110.300 440.451, 90.500 440.451 C 70.700 440.452, 62.742 440.586, 72.815 440.749 M 398 444.313 C 398 444.485, 399.462 445.948, 401.250 447.563 L 404.500 450.500 401.563 447.250 C 398.825 444.221, 398 443.540, 398 444.313" stroke="none" fill="#48609d" fill-rule="evenodd"/><path d="M 136.762 80.707 C 138.006 80.946, 139.806 80.937, 140.762 80.687 C 141.718 80.437, 140.700 80.241, 138.500 80.252 C 136.300 80.263, 135.518 80.468, 136.762 80.707 M 102.540 162.959 L 98.839 166.749 101.670 168.694 C 107.863 172.951, 124.770 183, 125.737 183 C 126.724 183, 130.956 174.937, 132.428 170.250 C 132.817 169.012, 133.546 168, 134.048 168 C 134.550 168, 138.448 171.178, 142.709 175.063 C 146.971 178.948, 150.574 181.761, 150.716 181.313 C 150.858 180.866, 151.580 177.265, 152.321 173.311 C 153.656 166.188, 153.646 166.100, 151.219 163.673 L 148.769 161.224 141.467 164.272 L 134.164 167.320 124.832 164.654 C 119.699 163.188, 113.417 161.354, 110.871 160.579 L 106.242 159.168 102.540 162.959" stroke="none" fill="#f99072" fill-rule="evenodd"/><path d="M 136.762 80.707 C 138.006 80.946, 139.806 80.937, 140.762 80.687 C 141.718 80.437, 140.700 80.241, 138.500 80.252 C 136.300 80.263, 135.518 80.468, 136.762 80.707 M 102.540 162.959 L 98.839 166.749 101.670 168.694 C 107.863 172.951, 124.770 183, 125.737 183 C 126.724 183, 130.956 174.937, 132.428 170.250 C 132.817 169.012, 133.546 168, 134.048 168 C 134.550 168, 138.448 171.178, 142.709 175.063 C 146.971 178.948, 150.574 181.761, 150.716 181.313 C 150.858 180.866, 151.580 177.265, 152.321 173.311 C 153.656 166.188, 153.646 166.100, 151.219 163.673 L 148.769 161.224 141.467 164.272 L 134.164 167.320 124.832 164.654 C 119.699 163.188, 113.417 161.354, 110.871 160.579 L 106.242 159.168 102.540 162.959" stroke="none" fill="#f99072" fill-rule="evenodd"/><path d="M 423.232 105 C 423.232 106.925, 423.438 107.713, 423.689 106.750 C 423.941 105.787, 423.941 104.213, 423.689 103.250 C 423.438 102.287, 423.232 103.075, 423.232 105 M 106.560 126 C 106.185 129.025, 106.018 136.225, 106.189 142 L 106.500 152.500 116.500 152.811 C 126.608 153.125, 138.406 151.466, 137.418 149.868 C 137.123 149.391, 136.066 149, 135.068 149 C 131.561 149, 123.597 144.703, 118.817 140.232 C 113.205 134.982, 110.247 130.525, 108.493 124.676 L 107.242 120.500 106.560 126 M 428.223 139.712 C 427.368 144.354, 423.301 152.513, 419.938 156.333 C 415.167 161.753, 410.741 164.621, 402.597 167.570 L 396.541 169.763 402.521 171.064 C 408.589 172.384, 427.359 172.975, 428.453 171.880 C 428.782 171.551, 428.915 163.906, 428.749 154.891 C 428.583 145.876, 428.346 139.046, 428.223 139.712" stroke="none" fill="#fd9997" fill-rule="evenodd"/><path d="M 80.663 63.993 C 71.559 79.405, 76.120 104.081, 90.683 118.201 C 94.733 122.127, 103.356 126.516, 105.012 125.493 C 105.559 125.154, 106 120.297, 106 114.601 C 106 104.351, 106.008 104.317, 108.750 103.093 C 113.518 100.964, 118.629 97.045, 121.822 93.072 L 124.906 89.234 118.703 86.992 C 108.785 83.407, 99.255 77.290, 90.512 68.897 L 82.379 61.088 80.663 63.993" stroke="none" fill="#292966" fill-rule="evenodd"/><path d="M 128.500 28.718 C 113.578 30.283, 103.582 33.580, 97.713 38.871 C 93.787 42.410, 90.066 48.835, 90.022 52.150 C 90.010 53.057, 88.327 55.473, 86.283 57.517 L 82.566 61.234 90.585 68.957 C 99.050 77.110, 108.643 83.304, 118.363 86.892 C 124.900 89.305, 125.562 89.086, 128.562 83.515 L 130.455 80 138.004 80 C 148.099 80, 160.865 78.370, 169.883 75.931 C 173.944 74.832, 177.365 74.061, 177.485 74.217 C 178.749 75.858, 180 82.539, 180 87.649 C 180 91.142, 180.434 94, 180.965 94 C 182.939 94, 188.933 87.770, 190.932 83.641 C 194.045 77.210, 195.262 69.152, 193.994 63.364 C 188.353 37.603, 174.095 27.673, 143.500 28.198 C 136.900 28.311, 130.150 28.545, 128.500 28.718 M 140.176 96.224 C 137.500 98.900, 139.869 105.184, 142.676 102.854 C 143.404 102.250, 144 100.740, 144 99.500 C 144 96.523, 141.779 94.621, 140.176 96.224 M 164.200 96.200 C 162.577 97.823, 162.683 101.492, 164.394 102.912 C 165.470 103.805, 166.154 103.703, 167.394 102.463 C 169.271 100.586, 169.376 99.571, 167.965 96.934 C 166.767 94.697, 165.877 94.523, 164.200 96.200" stroke="none" fill="#303078" fill-rule="evenodd"/><path d="M 168.714 77.054 C 161.086 79.127, 146.091 81, 137.121 81 C 131.304 81, 131.110 81.088, 128.909 84.750 C 124.611 91.902, 117.702 99.151, 112.252 102.227 L 106.775 105.318 107.199 114.409 C 107.720 125.574, 109.891 130.890, 117.006 138.413 C 122.002 143.695, 131.002 149, 134.968 149 C 136.021 149, 137.123 149.391, 137.418 149.868 C 138.423 151.494, 126.530 153.156, 116.248 152.828 L 105.996 152.500 105.998 155.565 L 106 158.629 120 162.824 L 133.999 167.019 141.500 163.871 L 149 160.723 149 155.520 L 149 150.317 153.250 149.047 C 163.664 145.936, 171.903 138.971, 176.682 129.239 L 179.500 123.500 179.385 102.500 C 179.276 82.512, 178.557 75.890, 176.445 75.420 C 175.925 75.304, 172.446 76.040, 168.714 77.054 M 403.500 90.604 C 387.184 94.813, 374.285 95.662, 361.371 93.377 C 358.308 92.835, 358.215 92.933, 356.994 98.026 C 356.250 101.128, 355.696 110.959, 355.623 122.365 C 355.500 141.487, 355.502 141.504, 358.401 147.782 C 362.124 155.844, 370.681 163.989, 378.503 166.915 C 381.568 168.062, 384.452 169, 384.913 169 C 387.033 169, 387.070 184.295, 384.999 204.456 C 384.493 209.382, 384.220 213.553, 384.392 213.725 C 384.618 213.952, 429.399 187.987, 429.517 187.561 C 429.526 187.528, 429.381 184.103, 429.195 179.951 L 428.856 172.402 418.678 172.392 C 413.080 172.386, 405.809 171.793, 402.521 171.072 L 396.541 169.763 402.597 167.570 C 410.741 164.621, 415.167 161.753, 419.938 156.333 C 423.365 152.440, 428 143.028, 428 139.962 C 428 139.433, 428.922 139, 430.050 139 C 433.088 139, 437.479 136.444, 439.352 133.586 C 441.509 130.293, 441.435 123.094, 439.217 120.469 C 436.731 117.529, 432.829 115, 430.777 115 C 429.413 115, 429 115.813, 429 118.500 C 429 122.610, 426.953 123.198, 424.557 119.777 C 423.476 118.234, 423 115.208, 423 109.877 C 423 102.437, 422.892 102.092, 419.500 98.700 C 416.796 95.996, 416 94.381, 416 91.600 C 416 87.331, 416.141 87.342, 403.500 90.604 M 139.569 95.573 C 136.652 98.491, 137.914 104, 141.500 104 C 143.936 104, 145 102.314, 145 98.453 C 145 95.212, 141.688 93.455, 139.569 95.573 M 163.616 95.527 C 161.607 97.536, 161.523 101.359, 163.452 102.960 C 166.985 105.893, 170.893 101.405, 168.664 96.974 C 167.152 93.965, 165.618 93.525, 163.616 95.527 M 367.200 114.200 C 364.766 116.634, 366.495 124, 369.500 124 C 371.269 124, 373 120.918, 373 117.766 C 373 115.264, 371.337 113, 369.500 113 C 368.895 113, 367.860 113.540, 367.200 114.200 M 390.852 115.426 C 389.503 118.386, 390.409 122.559, 392.582 123.393 C 396.216 124.787, 398.976 119.138, 396.504 115.365 C 394.513 112.327, 392.253 112.351, 390.852 115.426 M 140.706 121.750 C 139.844 123.318, 142.089 128.816, 144.628 131.356 C 148.364 135.091, 153.783 136.557, 158.322 135.059 C 163.043 133.501, 168 127.819, 168 123.965 L 168 121 154.559 121 C 147.166 121, 140.933 121.338, 140.706 121.750 M 368 140.980 C 368 141.519, 368.726 143.774, 369.614 145.993 C 372.375 152.893, 379.488 156.314, 386.360 154.046 C 391.048 152.499, 396 146.806, 396 142.965 L 396 140 382 140 C 373.526 140, 368 140.387, 368 140.980 M 294.814 169.250 C 293.951 169.938, 289.064 177.137, 283.954 185.250 C 278.843 193.363, 274.352 200, 273.973 200 C 273.594 200, 272.883 198.134, 272.392 195.853 C 271.821 193.197, 270.534 190.986, 268.814 189.705 C 266.445 187.941, 265.763 187.855, 263.051 188.979 C 258.317 190.940, 258.188 192.867, 261.627 210.295 C 262.079 212.584, 265.148 215.075, 278.567 224.045 C 298.854 237.605, 300.048 237.836, 305.491 229.250 C 308.698 224.191, 309.090 222.891, 308.751 218.430 C 308.259 211.959, 306.081 209.084, 298.240 204.554 L 291.981 200.938 293.634 197.719 C 294.543 195.949, 297.472 190.613, 300.143 185.863 C 305.344 176.614, 306.142 172.344, 303.171 169.655 C 301.004 167.694, 297.010 167.500, 294.814 169.250 M 101.152 169.808 C 101.343 170.300, 108.700 179.046, 117.500 189.242 L 133.500 207.780 133.786 197.782 C 134.059 188.251, 133.946 187.618, 131.377 184.250 C 128.879 180.975, 128.586 180.846, 127.376 182.501 C 126.165 184.157, 125.154 183.729, 113.437 176.599 C 106.489 172.371, 100.960 169.315, 101.152 169.808 M 152 177.418 C 152 178.748, 151.719 180.568, 151.376 181.461 C 150.805 182.949, 150.595 182.943, 148.876 181.388 C 147.082 179.764, 147.002 179.816, 147.046 182.595 C 147.071 184.193, 147.905 189.325, 148.900 194 C 150.247 200.328, 150.859 201.861, 151.295 200 C 152.136 196.413, 153.214 175, 152.554 175 C 152.249 175, 152 176.088, 152 177.418 M 343.011 267.250 C 343.017 267.387, 343.692 269.709, 344.511 272.409 C 345.330 275.109, 346 277.696, 346 278.159 C 346 278.622, 342.607 279, 338.460 279 C 328.907 279, 324.124 281.225, 320.543 287.336 C 315.024 296.754, 318.469 307.480, 328.500 312.110 C 331.787 313.627, 335.039 313.960, 346.750 313.978 L 361 314 361 294.590 L 361 275.181 353.547 271.090 C 347.338 267.683, 342.960 266.087, 343.011 267.250 M 319 385.874 C 319 396.079, 323.090 404.155, 331.253 410.068 C 338.026 414.974, 338 415.026, 338 396.500 L 338 380 328.500 380 L 319 380 319 385.874 M 29.407 402.750 C 30.229 420.181, 31.051 423.850, 35.191 428.564 C 39.523 433.498, 43.383 435.218, 50.429 435.354 C 58.017 435.499, 64.057 432.429, 68.427 426.205 C 71.257 422.174, 71.475 421.190, 71.971 410.228 L 72.500 398.547 76.248 403.774 C 79.261 407.974, 80.556 409, 82.843 409 C 85.744 409, 89 406.383, 89 404.051 C 89 403.341, 87.110 399.439, 84.801 395.380 L 80.602 388 54.656 388 L 28.710 388 29.407 402.750" stroke="none" fill="#f9c4c0" fill-rule="evenodd"/><path d="M 275.250 235.745 C 280.063 235.928, 287.938 235.928, 292.750 235.745 C 297.563 235.561, 293.625 235.411, 284 235.411 C 274.375 235.411, 270.438 235.561, 275.250 235.745 M 321.768 235.725 C 323.565 235.947, 326.265 235.943, 327.768 235.715 C 329.271 235.486, 327.800 235.304, 324.500 235.310 C 321.200 235.315, 319.971 235.502, 321.768 235.725 M 340.287 314.740 C 343.469 314.939, 348.419 314.937, 351.287 314.736 C 354.154 314.535, 351.550 314.372, 345.500 314.374 C 339.450 314.376, 337.104 314.541, 340.287 314.740" stroke="none" fill="#3d4188" fill-rule="evenodd"/><path d="M 373.250 94.689 C 374.212 94.941, 375.788 94.941, 376.750 94.689 C 377.712 94.438, 376.925 94.232, 375 94.232 C 373.075 94.232, 372.288 94.438, 373.250 94.689 M 355.300 109 C 355.300 112.025, 355.487 113.263, 355.716 111.750 C 355.945 110.237, 355.945 107.763, 355.716 106.250 C 355.487 104.737, 355.300 105.975, 355.300 109 M 423.286 112.500 C 423.294 115.250, 423.488 116.256, 423.718 114.736 C 423.947 113.216, 423.941 110.966, 423.704 109.736 C 423.467 108.506, 423.279 109.750, 423.286 112.500" stroke="none" fill="#78b8d7" fill-rule="evenodd"/></svg>