<svg xmlns="http://www.w3.org/2000/svg" width="512" height="512" viewBox="0 0 512 512" version="1.1"><path d="M 432.195 421.590 C 416.644 429.339, 413.561 449.534, 426.062 461.757 C 430.627 466.219, 435.565 468.326, 442.570 468.800 C 469.772 470.639, 479.343 433.026, 454.708 421.101 C 448.318 418.007, 438.977 418.210, 432.195 421.590" stroke="none" fill="#e4e8eb" fill-rule="evenodd"/><path d="M 18.773 129.372 C 14.503 131.266, 10.081 136.048, 8.999 139.943 C 7.647 144.811, 7.734 207.282, 9.109 218.500 C 13.989 258.329, 41.400 293.825, 78.248 308.035 C 92.812 313.652, 101.344 315.116, 119.500 315.116 C 137.987 315.116, 147.003 313.517, 161.632 307.643 C 174.354 302.535, 186.189 294.629, 197.025 284 C 213.561 267.781, 223.096 250.650, 228.632 227.213 C 230.640 218.714, 231.867 146.934, 230.116 140.431 C 226.282 126.193, 204.717 123.833, 198.040 136.921 C 196.105 140.715, 195.998 142.702, 195.965 175.710 C 195.940 200.531, 195.541 212.649, 194.572 218 C 188.858 249.561, 163.804 274.622, 132.521 280.070 C 122.958 281.735, 106.312 280.747, 97.500 277.992 C 69.387 269.200, 48.698 245.523, 44.038 216.806 C 43.476 213.338, 43.012 194.933, 43.008 175.907 C 43 141.793, 42.968 141.254, 40.706 136.907 C 36.838 129.475, 26.528 125.933, 18.773 129.372" stroke="none" fill="#4fc1bb" fill-rule="evenodd"/><path d="M 26.180 18.682 C 24.353 19.582, 21.653 21.899, 20.180 23.830 L 17.500 27.343 17.224 78.788 C 16.960 127.778, 17.032 130.194, 18.724 129.396 C 21.020 128.313, 29.848 128.263, 32.750 129.317 L 35 130.135 35 82.598 L 35 35.062 47.250 34.781 L 59.500 34.500 59.789 25.750 L 60.078 17 44.789 17.023 C 32.687 17.041, 28.808 17.387, 26.180 18.682 M 179.210 25.682 L 179.500 34.500 191.750 34.781 L 204 35.062 204 82.598 L 204 130.135 206.250 129.317 C 207.488 128.868, 210.525 128.500, 213 128.500 C 215.475 128.500, 218.512 128.868, 219.750 129.317 L 222 130.135 222 80.028 C 222 32.085, 221.915 29.753, 220.023 26.044 C 218.935 23.913, 216.573 21.118, 214.773 19.834 C 211.720 17.657, 210.407 17.479, 195.210 17.182 L 178.920 16.864 179.210 25.682 M 417.019 390.169 C 401.866 397.543, 389.944 412.224, 385.485 429 C 383.560 436.245, 383.605 450.674, 385.577 458.356 C 388.410 469.388, 392.749 476.830, 401.457 485.594 C 414.465 498.683, 430.180 504.877, 447.225 503.631 C 472.097 501.813, 492.576 486.041, 500.629 462.500 C 504.317 451.716, 504.588 436.991, 501.290 426.500 C 495.898 409.349, 482.206 394.388, 466.087 388.034 L 461.043 386.046 460.772 405.243 C 460.510 423.716, 460.581 424.527, 462.659 426.767 C 468.457 433.019, 470.598 444.527, 467.481 452.688 C 460.993 469.677, 439.072 474.476, 426.062 461.757 C 416.787 452.688, 415.762 438.705, 423.619 428.412 L 427 423.983 427 405.550 C 427 395.413, 426.632 386.891, 426.183 386.613 C 425.733 386.335, 421.609 387.935, 417.019 390.169 M 441.264 418.718 C 442.784 418.947, 445.034 418.941, 446.264 418.704 C 447.494 418.467, 446.250 418.279, 443.500 418.286 C 440.750 418.294, 439.744 418.488, 441.264 418.718" stroke="none" fill="#cfd7d7" fill-rule="evenodd"/><path d="M 63.819 9.536 C 60.239 11.480, 59.755 13.459, 59.778 26.046 C 59.807 41.405, 61.062 43, 73.119 43 C 78.435 43, 81.523 42.441, 84.698 40.904 C 92.308 37.220, 96.021 27.492, 92.939 19.315 C 91.360 15.128, 86.065 10.113, 82.044 8.996 C 76.873 7.559, 66.916 7.854, 63.819 9.536 M 156.604 9.038 C 153.212 10.054, 148.414 14.366, 146.411 18.200 C 144.159 22.510, 144.631 29.695, 147.486 34.566 C 151.019 40.594, 156.403 43, 166.361 43 C 173.235 43, 174.363 42.728, 176.545 40.545 C 177.895 39.195, 179.020 37.283, 179.044 36.295 C 179.289 26.189, 179.020 14.639, 178.501 13.004 C 177.487 9.808, 172.794 7.991, 165.800 8.086 C 162.335 8.133, 158.197 8.562, 156.604 9.038 M 347.516 129.601 C 312.777 137.335, 286.528 162.043, 275.840 197.067 L 273.572 204.500 272.975 308.500 C 272.305 425.164, 272.869 416.704, 264.703 432.436 C 247.955 464.700, 208.153 477.885, 175.500 461.984 C 160.839 454.845, 150.471 444.360, 143.350 429.471 C 137.332 416.889, 137.037 413.704, 137.017 361.142 L 137 313.783 134.291 314.463 C 130.776 315.345, 108.224 315.345, 104.709 314.463 L 102 313.783 102 360.819 C 102 410.751, 102.485 418.061, 106.686 431.459 C 127.236 496.995, 204.565 524.379, 261.748 486.370 C 284.206 471.442, 298.917 449.713, 305.681 421.479 C 307.165 415.282, 307.420 402.958, 307.952 311.500 L 308.552 208.500 310.859 202.277 C 317.051 185.569, 330.764 171.947, 347.568 165.810 C 351.897 164.229, 356.547 163.527, 364.779 163.213 C 374.819 162.830, 376.966 163.065, 384.326 165.360 C 403.956 171.481, 419.289 187.650, 424.423 207.644 C 425.792 212.978, 426 223.877, 426 290.232 C 426 332.275, 426.298 379.577, 426.661 395.346 C 427.272 421.822, 427.448 423.905, 428.961 422.535 C 431.633 420.118, 438.880 418, 444.485 418 C 448.254 418, 451.304 418.800, 455.389 420.860 L 461.059 423.720 460.754 314.610 C 460.466 211.507, 460.347 205.142, 458.578 199 C 448.775 164.946, 424.882 140.546, 391.933 130.942 C 381.934 128.027, 357.850 127.300, 347.516 129.601" stroke="none" fill="#4cb8b0" fill-rule="evenodd"/></svg>