<svg xmlns="http://www.w3.org/2000/svg" width="512" height="512" viewBox="0 0 512 512" version="1.1"><path d="M 130.007 61.532 C 128.086 62.399, 125.597 63.969, 124.477 65.022 C 122.552 66.830, 122.164 66.851, 117.469 65.394 C 111.452 63.527, 101.807 64.014, 97.153 66.421 C 84.630 72.897, 76.498 92.102, 75.311 118 C 74.803 129.103, 75.005 131.506, 77.119 139.500 C 79.190 147.329, 79.499 150.745, 79.489 165.750 L 79.478 183 88.239 183 L 97 183 97 163.125 L 97 143.250 93.970 142.644 C 90.243 141.899, 86.231 137.744, 85.782 134.167 C 84.992 127.864, 88.780 121.646, 94.126 120.472 C 96.914 119.860, 97 119.656, 97 113.643 L 97 107.446 107.250 108.288 C 122.247 109.520, 146.959 108.449, 155.841 106.182 C 162.500 104.482, 163.242 104.456, 163.841 105.904 C 164.203 106.782, 164.500 115.600, 164.500 125.500 C 164.500 148.186, 163.517 151.665, 154.589 160.579 C 149.063 166.097, 145.287 168.275, 137.250 170.579 C 136.428 170.815, 136 173.001, 136 176.969 L 136 183 143.750 183.014 C 148.012 183.021, 152.400 183.264, 153.500 183.553 C 155.265 184.017, 156.344 182.045, 162.678 166.789 C 175.281 136.437, 175.431 135.865, 175.468 118 C 175.492 106.253, 175.073 100.926, 173.740 96 C 171.194 86.597, 165.774 76.161, 160.812 71.108 C 152.472 62.615, 137.750 58.038, 130.007 61.532 M 127.122 122.278 C 124.756 124.644, 126.734 129.423, 129.622 128.315 C 131.413 127.628, 131.413 122.372, 129.622 121.685 C 128.864 121.394, 127.739 121.661, 127.122 122.278 M 150.176 122.224 C 148.613 123.787, 148.684 126.493, 150.324 127.854 C 151.919 129.177, 154 127.518, 154 124.922 C 154 122.429, 151.638 120.762, 150.176 122.224" stroke="none" fill="#32327a" fill-rule="evenodd"/><path d="M 123.280 109.736 C 125.909 109.943, 129.959 109.940, 132.280 109.731 C 134.601 109.521, 132.450 109.352, 127.500 109.355 C 122.550 109.358, 120.651 109.530, 123.280 109.736 M 425 118.804 C 425 122.421, 419.719 131.067, 414.819 135.473 C 411.352 138.590, 407.903 140.571, 403.694 141.863 C 399.134 143.263, 398.093 143.895, 399.572 144.364 C 403.801 145.706, 417.259 146.926, 421.471 146.349 L 425.900 145.742 426.200 131.369 C 426.365 123.465, 426.163 116.998, 425.750 116.998 C 425.337 116.999, 425 117.812, 425 118.804 M 95.750 142.662 C 96.655 143.027, 97 146.561, 97 155.458 L 97 167.749 103.750 169.880 C 112.710 172.708, 123.833 174.155, 130.548 173.365 C 138.160 172.471, 137.951 170.179, 130.250 170.109 C 123.381 170.047, 119.258 168.934, 113.666 165.631 C 106.103 161.164, 99.795 152.755, 98.391 145.268 C 97.985 143.104, 97.224 142.027, 96.139 142.079 C 95.102 142.129, 94.959 142.343, 95.750 142.662 M 134.216 148.009 C 130.955 149.998, 129.213 152.546, 130.343 153.676 C 130.667 154.001, 132.600 152.803, 134.637 151.014 C 138.022 148.042, 138.757 147.811, 143.170 148.334 C 146.990 148.786, 148 148.602, 148 147.453 C 148 145.140, 138.279 145.532, 134.216 148.009" stroke="none" fill="#fd9997" fill-rule="evenodd"/><path d="M 419.041 165.551 C 410.418 170.871, 408.433 171.738, 407.735 170.491 C 407.037 169.243, 406.454 169.495, 404.405 171.931 C 402.123 174.642, 401.944 175.573, 402.210 183.324 L 402.500 191.766 415.500 176.738 C 427.242 163.165, 430.686 158.905, 429.800 159.049 C 429.635 159.075, 424.793 162.001, 419.041 165.551 M 386.617 171.397 C 386.828 174.640, 387.039 180.040, 387.087 183.397 L 387.174 189.500 389.027 180.500 C 391.308 169.415, 391.458 167.142, 389.800 168.800 C 388.037 170.563, 387.188 170.277, 386.683 167.750 C 386.436 166.512, 386.406 168.154, 386.617 171.397 M 62.108 184.055 C 46.220 187.272, 32.681 200.406, 29.060 216.115 C 28.504 218.527, 28.038 230.287, 28.024 242.250 L 28 264 53.371 264 L 78.742 264 79.350 255.250 C 79.684 250.438, 80.285 239.300, 80.686 230.500 C 81.680 208.666, 82.796 217.021, 82.912 247.168 C 83.001 270.207, 82.746 273, 80.550 273 C 79.311 273, 78.010 295.127, 78.003 316.326 L 78 325.152 86.700 334.576 L 95.400 344 136.700 344 L 178 344 178 336 L 178 328 174.750 327.921 C 172.963 327.878, 162.725 327.300, 152 326.637 C 138.772 325.819, 128.744 325.728, 120.823 326.352 C 110.163 327.192, 108.822 327.104, 105.415 325.336 C 100.348 322.706, 98 318.012, 98.002 310.516 C 98.005 298.692, 102.720 294.173, 116.005 293.262 C 123.472 292.750, 125.406 291.987, 123 290.500 C 121.293 289.445, 121.901 284.400, 123.960 282.536 C 126.838 279.931, 130.515 281.272, 133.512 286.019 L 136.025 290 151.263 289.991 C 159.643 289.987, 168.863 289.699, 171.750 289.352 L 177 288.721 177 272.944 C 177 261.258, 177.324 257.036, 178.250 256.662 C 179.250 256.259, 179.250 256.142, 178.250 256.079 C 177.302 256.019, 177.007 251.959, 177.030 239.250 C 177.047 230.037, 177.425 223.175, 177.869 224 C 178.314 224.825, 180.188 232.363, 182.034 240.750 L 185.390 256 192.445 255.985 C 196.325 255.976, 200.151 255.558, 200.946 255.055 C 202.180 254.274, 201.698 250.283, 197.664 227.853 C 192.434 198.773, 191.161 195.303, 183.769 189.948 C 177 185.044, 171.592 184, 152.954 184 L 136.272 184 135.636 188.640 C 135.286 191.191, 134.993 196.929, 134.985 201.390 C 134.976 205.850, 134.574 210.124, 134.091 210.886 C 133.416 211.953, 129.085 209.050, 115.301 198.289 L 97.388 184.306 81.944 183.736 C 73.450 183.422, 64.524 183.565, 62.108 184.055" stroke="none" fill="#78d7a6" fill-rule="evenodd"/><path d="M 84.280 183.736 C 86.909 183.943, 90.959 183.940, 93.280 183.731 C 95.601 183.521, 93.450 183.352, 88.500 183.355 C 83.550 183.358, 81.651 183.530, 84.280 183.736 M 139.750 183.732 C 142.088 183.943, 145.912 183.943, 148.250 183.732 C 150.588 183.522, 148.675 183.349, 144 183.349 C 139.325 183.349, 137.412 183.522, 139.750 183.732 M 42 439.428 L 42 448.856 107 448.737 L 172 448.618 172 439.309 L 172 430 157.114 430 C 145.855 430, 141.531 430.364, 139.364 431.494 C 135.696 433.407, 129.917 433.410, 125.346 431.500 C 122.358 430.252, 115.063 430, 81.878 430 L 42 430 42 439.428" stroke="none" fill="#315a79" fill-rule="evenodd"/><path d="M 361.272 91 C 361.272 93.475, 361.467 94.487, 361.706 93.250 C 361.944 92.013, 361.944 89.987, 361.706 88.750 C 361.467 87.513, 361.272 88.525, 361.272 91 M 421.272 94 C 421.272 96.475, 421.467 97.487, 421.706 96.250 C 421.944 95.013, 421.944 92.987, 421.706 91.750 C 421.467 90.513, 421.272 91.525, 421.272 94 M 164.389 125.500 C 164.390 132.650, 164.550 135.444, 164.742 131.708 C 164.935 127.973, 164.934 122.123, 164.739 118.708 C 164.545 115.294, 164.387 118.350, 164.389 125.500 M 401.360 184 C 401.360 189.225, 401.529 191.363, 401.735 188.750 C 401.941 186.137, 401.941 181.863, 401.735 179.250 C 401.529 176.637, 401.360 178.775, 401.360 184 M 42 419.840 L 42 430 81.907 430 L 121.814 430 116.166 420.500 L 110.517 411 98.920 411 C 92.542 411, 77.125 410.703, 64.662 410.340 L 42 409.681 42 419.840 M 147.512 415.250 C 148.226 420.030, 146.921 424.374, 143.759 427.750 L 141.651 430 156.826 430 L 172 430 172 420.500 L 172 411 159.439 411 L 146.877 411 147.512 415.250" stroke="none" fill="#387094" fill-rule="evenodd"/><path d="M 100.125 348.862 C 102.531 351.580, 109.900 359.688, 116.500 366.881 L 128.500 379.958 134.595 379.979 C 139.211 379.995, 141.092 380.444, 142.345 381.829 C 145.938 385.799, 142.577 391, 136.417 391 C 134.446 391, 132.983 391.355, 133.167 391.789 C 133.350 392.223, 136.388 396.723, 139.918 401.789 L 146.336 411 159.168 411 L 172 411 172 446.500 L 172 482 205 482 L 238 482 238 432.684 C 238 379.652, 237.669 375.250, 232.987 365.974 C 229.259 358.589, 219.846 349.887, 212.285 346.835 L 206.500 344.500 151.125 344.210 L 95.751 343.920 100.125 348.862 M 44 367.767 C 44 387.996, 50.278 400.397, 64.216 407.701 C 69.417 410.426, 69.827 410.475, 90.382 410.824 L 111.263 411.178 109.188 408.264 C 107.609 406.047, 52.454 364.962, 45.336 360.700 C 44.267 360.060, 44 361.472, 44 367.767 M 390.748 385.044 L 393.993 388.587 397.548 434.044 C 399.503 459.045, 401.291 480.063, 401.520 480.750 C 401.844 481.720, 410.233 482, 438.969 482 L 476 482 476 437.546 L 476 393.092 439.250 392.796 C 398.297 392.466, 399.818 392.710, 391.501 385.140 L 387.503 381.500 390.748 385.044 M 352.750 391.706 C 353.988 391.944, 356.012 391.944, 357.250 391.706 C 358.488 391.467, 357.475 391.272, 355 391.272 C 352.525 391.272, 351.512 391.467, 352.750 391.706" stroke="none" fill="#79affe" fill-rule="evenodd"/><path d="M 207.770 345.477 C 215.293 347.607, 218.656 349.562, 224.803 355.375 C 231.089 361.319, 235.368 369.132, 236.912 377.480 C 237.602 381.213, 238 401.412, 238 432.684 L 238 482 243.033 482 L 248.066 482 247.783 427.750 L 247.500 373.500 244.804 367.747 C 241.080 359.800, 233.122 351.678, 225.275 347.815 C 220.002 345.219, 217.425 344.602, 210.685 344.323 L 202.500 343.985 207.770 345.477 M 375.651 381.628 C 373.535 384.069, 369.485 387.287, 366.651 388.778 C 362.087 391.181, 360.502 391.473, 352.750 391.336 L 344 391.181 344 436.590 L 344 482 366 482 L 388 482 387.990 479.250 C 387.975 475.014, 380.164 377.829, 379.811 377.490 C 379.640 377.325, 377.768 379.187, 375.651 381.628 M 395.232 410 C 395.232 411.925, 395.438 412.712, 395.689 411.750 C 395.941 410.788, 395.941 409.212, 395.689 408.250 C 395.438 407.288, 395.232 408.075, 395.232 410 M 396.232 423 C 396.232 424.925, 396.438 425.712, 396.689 424.750 C 396.941 423.788, 396.941 422.212, 396.689 421.250 C 396.438 420.288, 396.232 421.075, 396.232 423 M 398.232 448 C 398.232 449.925, 398.438 450.712, 398.689 449.750 C 398.941 448.788, 398.941 447.212, 398.689 446.250 C 398.438 445.288, 398.232 446.075, 398.232 448 M 399.232 461 C 399.232 462.925, 399.438 463.712, 399.689 462.750 C 399.941 461.788, 399.941 460.212, 399.689 459.250 C 399.438 458.288, 399.232 459.075, 399.232 461" stroke="none" fill="#5592ff" fill-rule="evenodd"/><path d="M 100.125 348.862 C 102.531 351.580, 109.900 359.688, 116.500 366.881 L 128.500 379.958 134.595 379.979 C 139.211 379.995, 141.092 380.444, 142.345 381.829 C 145.938 385.799, 142.577 391, 136.417 391 C 134.446 391, 132.983 391.355, 133.167 391.789 C 133.350 392.223, 136.388 396.723, 139.918 401.789 L 146.336 411 159.168 411 L 172 411 172 446.500 L 172 482 205 482 L 238 482 238 432.684 C 238 379.652, 237.669 375.250, 232.987 365.974 C 229.259 358.589, 219.846 349.887, 212.285 346.835 L 206.500 344.500 151.125 344.210 L 95.751 343.920 100.125 348.862 M 44 367.767 C 44 387.996, 50.278 400.397, 64.216 407.701 C 69.417 410.426, 69.827 410.475, 90.382 410.824 L 111.263 411.178 109.188 408.264 C 107.609 406.047, 52.454 364.962, 45.336 360.700 C 44.267 360.060, 44 361.472, 44 367.767 M 390.748 385.044 L 393.993 388.587 397.548 434.044 C 399.503 459.045, 401.291 480.063, 401.520 480.750 C 401.844 481.720, 410.233 482, 438.969 482 L 476 482 476 437.546 L 476 393.092 439.250 392.796 C 398.297 392.466, 399.818 392.710, 391.501 385.140 L 387.503 381.500 390.748 385.044 M 352.750 391.706 C 353.988 391.944, 356.012 391.944, 357.250 391.706 C 358.488 391.467, 357.475 391.272, 355 391.272 C 352.525 391.272, 351.512 391.467, 352.750 391.706" stroke="none" fill="#79affe" fill-rule="evenodd"/><path d="M 404 74.872 C 396.075 76.911, 391.967 77.332, 379.221 77.408 L 363.942 77.500 363.014 81 C 362.504 82.925, 361.783 90.800, 361.414 98.500 C 360.873 109.752, 361.056 113.723, 362.344 118.728 C 365.696 131.748, 373.660 139.539, 387.750 143.579 C 388.474 143.786, 389 145.571, 389 147.819 C 389 151.649, 389.086 151.737, 395.554 154.485 L 402.107 157.271 413.768 153.776 C 427.737 149.590, 427.211 150.523, 426.747 130.748 L 426.437 117.500 426.218 131.614 L 426 145.728 421.521 146.342 C 417.269 146.925, 403.822 145.713, 399.572 144.364 C 398.093 143.895, 399.134 143.263, 403.694 141.863 C 407.903 140.571, 411.352 138.590, 414.819 135.473 C 419.719 131.067, 425 122.421, 425 118.804 C 425 117.681, 425.738 117, 426.953 117 C 432.280 117, 437 111.911, 437 106.167 C 437 102.501, 431.329 96, 428.132 96 C 426.430 96, 426 96.605, 426 99 C 426 100.968, 425.496 102, 424.535 102 C 422.153 102, 421 98.563, 421 91.460 C 421 85.543, 420.719 84.566, 418.512 82.831 C 417.143 81.754, 415.456 78.973, 414.762 76.650 L 413.500 72.427 404 74.872 M 372.200 95.200 C 369.090 98.310, 372.225 105.718, 375.500 103 C 378.045 100.888, 376.897 94, 374 94 C 373.670 94, 372.860 94.540, 372.200 95.200 M 393.035 95.934 C 391.664 98.497, 391.730 100.248, 393.276 102.363 C 396.043 106.147, 400.326 100.346, 397.989 95.979 C 396.642 93.462, 394.370 93.441, 393.035 95.934 M 157.798 106.575 C 151.516 108.852, 129.882 110.180, 113.340 109.303 L 98.180 108.500 97.601 112 C 97.283 113.925, 97.017 116.644, 97.011 118.043 C 97.002 120.027, 96.303 120.797, 93.831 121.543 C 89.485 122.856, 86.545 127.133, 86.545 132.145 C 86.545 135.461, 87.140 136.736, 89.789 139.102 C 91.572 140.696, 94.099 142, 95.404 142 C 97.293 142, 97.903 142.668, 98.391 145.268 C 100.277 155.324, 110.377 165.883, 121.166 169.079 C 135.950 173.459, 153.715 165.425, 160.700 151.203 C 163.370 145.765, 163.516 144.721, 163.852 128.700 C 164.193 112.430, 163.665 104.875, 162.205 105.117 C 161.817 105.181, 159.834 105.837, 157.798 106.575 M 373 120.515 C 373 121.958, 374.385 124.541, 376.251 126.576 C 383.377 134.352, 394.977 131.177, 397.541 120.750 L 398.217 118 385.608 118 L 373 118 373 120.515 M 126.200 122.200 C 124.454 123.946, 124.729 126.445, 126.881 128.392 C 128.615 129.961, 128.889 129.968, 130.381 128.476 C 132.102 126.755, 132.378 125.148, 131.393 122.582 C 130.675 120.710, 127.894 120.506, 126.200 122.200 M 148.500 123 C 147.688 125.558, 148.667 128.658, 150.509 129.365 C 152.274 130.042, 155 127.471, 155 125.129 C 155 121.170, 149.638 119.414, 148.500 123 M 134.216 148.009 C 130.955 149.998, 129.213 152.546, 130.343 153.676 C 130.667 154.001, 132.600 152.803, 134.637 151.014 C 138.022 148.042, 138.757 147.811, 143.170 148.334 C 146.990 148.786, 148 148.602, 148 147.453 C 148 145.140, 138.279 145.532, 134.216 148.009 M 97 175.638 L 97 183.510 115.250 197.765 L 133.500 212.020 134.133 205.760 C 134.481 202.317, 134.819 193.626, 134.883 186.447 L 135 173.394 125.250 173.284 C 116.429 173.185, 110.400 172.073, 99.250 168.490 C 97.046 167.782, 97 167.928, 97 175.638 M 307.469 209.674 C 306.295 210.848, 305.956 212.341, 306.335 214.674 C 306.631 216.503, 306.691 218, 306.467 218 C 306.242 218, 299.487 216.428, 291.453 214.506 C 274.928 210.552, 273 210.751, 273 216.413 C 273 218.251, 273.573 220.230, 274.272 220.811 C 274.972 221.392, 279.964 222.882, 285.367 224.123 L 295.189 226.379 294.488 236.161 L 293.788 245.942 296.817 248.971 C 298.741 250.895, 300.969 252.055, 302.923 252.150 C 304.615 252.233, 306.556 252.345, 307.236 252.400 C 307.916 252.455, 308.646 251.600, 308.858 250.500 C 309.069 249.400, 311.119 241.962, 313.412 233.971 C 317.093 221.145, 317.460 218.963, 316.541 215.350 C 314.749 208.306, 311.112 206.031, 307.469 209.674 M 214.418 215.091 C 212.942 216.722, 213.070 217.948, 216.046 230.681 C 217.822 238.281, 219.719 245.063, 220.260 245.750 C 222.211 248.227, 226.204 247.110, 230.288 242.943 C 234.232 238.920, 234.261 238.836, 233.763 232.632 C 233.160 225.130, 230.066 217.647, 226.844 215.901 C 225.555 215.203, 222.592 214.336, 220.260 213.976 C 216.905 213.457, 215.686 213.690, 214.418 215.091 M 182.250 256.713 L 178 257.115 178 272.998 C 178 281.734, 177.633 289.109, 177.184 289.386 C 176.736 289.663, 167.230 289.967, 156.060 290.062 L 135.750 290.234 133.664 286.867 C 131.047 282.646, 130.174 282.034, 126.729 282.015 C 122.772 281.993, 120.944 286.095, 123.176 289.985 L 124.769 292.760 120.245 293.380 C 117.757 293.721, 114.186 294, 112.311 294 C 104.862 294, 99.496 299.180, 98.475 307.357 C 97.271 316.987, 100.758 323.923, 107.821 325.949 C 109.721 326.494, 115.017 326.459, 121.231 325.860 C 128.973 325.114, 138.172 325.277, 158.614 326.521 L 185.728 328.171 190.765 325.619 C 196.511 322.708, 199.540 319.319, 201.049 314.115 C 201.701 311.867, 201.984 300.286, 201.799 283.500 L 201.500 256.500 194 256.406 C 189.875 256.354, 184.588 256.493, 182.250 256.713 M 30.207 304.250 C 30.494 343.669, 30.546 344.586, 32.726 348.664 C 34.708 352.370, 40.326 357.681, 45.246 360.500 C 46.206 361.050, 60.683 371.400, 77.418 383.500 L 107.844 405.500 114.075 416.298 C 120.750 427.865, 123.180 430.433, 128.912 431.976 C 136.514 434.023, 145.193 428.817, 146.590 421.372 C 147.762 415.126, 146.344 411.280, 139.061 400.949 C 131.716 390.529, 131.694 390.316, 137.887 389.789 C 142.367 389.407, 144.426 386.488, 142.683 382.991 C 141.551 380.721, 140.867 380.500, 134.970 380.500 C 128.808 380.500, 128.358 380.333, 125.529 377 C 121.150 371.841, 99.061 348.099, 87.149 335.747 L 76.779 324.994 77.371 313.247 C 77.697 306.786, 78.246 293.063, 78.590 282.750 L 79.217 264 54.566 264 L 29.915 264 30.207 304.250" stroke="none" fill="#f9c4c0" fill-rule="evenodd"/><path d="M 214.004 196.992 C 213.193 198.508, 213.447 200.662, 215.066 205.992 C 216.962 212.234, 217.468 213, 219.696 213 C 223.578 213, 229.051 216.036, 231.026 219.284 C 232.011 220.903, 233.353 225.070, 234.008 228.545 C 235.451 236.188, 234.273 240.831, 230.030 244.234 L 227.206 246.500 232.353 263.500 C 235.184 272.850, 237.864 281.063, 238.309 281.750 C 238.920 282.694, 245.080 283, 263.437 283 C 292.373 283, 291.326 283.409, 288.600 273.171 C 287.624 269.502, 286.464 266.050, 286.024 265.500 C 285.039 264.270, 270.979 217.578, 270.529 214.045 C 269.983 209.752, 266.875 199.628, 265.374 197.250 C 263.964 195.017, 263.772 195, 239.512 195 C 216.125 195, 215.024 195.086, 214.004 196.992" stroke="none" fill="#363383" fill-rule="evenodd"/><path d="M 404 74.872 C 396.075 76.911, 391.967 77.332, 379.221 77.408 L 363.942 77.500 363.014 81 C 362.504 82.925, 361.783 90.800, 361.414 98.500 C 360.873 109.752, 361.056 113.723, 362.344 118.728 C 365.696 131.748, 373.660 139.539, 387.750 143.579 C 388.474 143.786, 389 145.571, 389 147.819 C 389 151.649, 389.086 151.737, 395.554 154.485 L 402.107 157.271 413.768 153.776 C 427.737 149.590, 427.211 150.523, 426.747 130.748 L 426.437 117.500 426.218 131.614 L 426 145.728 421.521 146.342 C 417.269 146.925, 403.822 145.713, 399.572 144.364 C 398.093 143.895, 399.134 143.263, 403.694 141.863 C 407.903 140.571, 411.352 138.590, 414.819 135.473 C 419.719 131.067, 425 122.421, 425 118.804 C 425 117.681, 425.738 117, 426.953 117 C 432.280 117, 437 111.911, 437 106.167 C 437 102.501, 431.329 96, 428.132 96 C 426.430 96, 426 96.605, 426 99 C 426 100.968, 425.496 102, 424.535 102 C 422.153 102, 421 98.563, 421 91.460 C 421 85.543, 420.719 84.566, 418.512 82.831 C 417.143 81.754, 415.456 78.973, 414.762 76.650 L 413.500 72.427 404 74.872 M 372.200 95.200 C 369.090 98.310, 372.225 105.718, 375.500 103 C 378.045 100.888, 376.897 94, 374 94 C 373.670 94, 372.860 94.540, 372.200 95.200 M 393.035 95.934 C 391.664 98.497, 391.730 100.248, 393.276 102.363 C 396.043 106.147, 400.326 100.346, 397.989 95.979 C 396.642 93.462, 394.370 93.441, 393.035 95.934 M 157.798 106.575 C 151.516 108.852, 129.882 110.180, 113.340 109.303 L 98.180 108.500 97.601 112 C 97.283 113.925, 97.017 116.644, 97.011 118.043 C 97.002 120.027, 96.303 120.797, 93.831 121.543 C 89.485 122.856, 86.545 127.133, 86.545 132.145 C 86.545 135.461, 87.140 136.736, 89.789 139.102 C 91.572 140.696, 94.099 142, 95.404 142 C 97.293 142, 97.903 142.668, 98.391 145.268 C 100.277 155.324, 110.377 165.883, 121.166 169.079 C 135.950 173.459, 153.715 165.425, 160.700 151.203 C 163.370 145.765, 163.516 144.721, 163.852 128.700 C 164.193 112.430, 163.665 104.875, 162.205 105.117 C 161.817 105.181, 159.834 105.837, 157.798 106.575 M 373 120.515 C 373 121.958, 374.385 124.541, 376.251 126.576 C 383.377 134.352, 394.977 131.177, 397.541 120.750 L 398.217 118 385.608 118 L 373 118 373 120.515 M 126.200 122.200 C 124.454 123.946, 124.729 126.445, 126.881 128.392 C 128.615 129.961, 128.889 129.968, 130.381 128.476 C 132.102 126.755, 132.378 125.148, 131.393 122.582 C 130.675 120.710, 127.894 120.506, 126.200 122.200 M 148.500 123 C 147.688 125.558, 148.667 128.658, 150.509 129.365 C 152.274 130.042, 155 127.471, 155 125.129 C 155 121.170, 149.638 119.414, 148.500 123 M 134.216 148.009 C 130.955 149.998, 129.213 152.546, 130.343 153.676 C 130.667 154.001, 132.600 152.803, 134.637 151.014 C 138.022 148.042, 138.757 147.811, 143.170 148.334 C 146.990 148.786, 148 148.602, 148 147.453 C 148 145.140, 138.279 145.532, 134.216 148.009 M 97 175.638 L 97 183.510 115.250 197.765 L 133.500 212.020 134.133 205.760 C 134.481 202.317, 134.819 193.626, 134.883 186.447 L 135 173.394 125.250 173.284 C 116.429 173.185, 110.400 172.073, 99.250 168.490 C 97.046 167.782, 97 167.928, 97 175.638 M 307.469 209.674 C 306.295 210.848, 305.956 212.341, 306.335 214.674 C 306.631 216.503, 306.691 218, 306.467 218 C 306.242 218, 299.487 216.428, 291.453 214.506 C 274.928 210.552, 273 210.751, 273 216.413 C 273 218.251, 273.573 220.230, 274.272 220.811 C 274.972 221.392, 279.964 222.882, 285.367 224.123 L 295.189 226.379 294.488 236.161 L 293.788 245.942 296.817 248.971 C 298.741 250.895, 300.969 252.055, 302.923 252.150 C 304.615 252.233, 306.556 252.345, 307.236 252.400 C 307.916 252.455, 308.646 251.600, 308.858 250.500 C 309.069 249.400, 311.119 241.962, 313.412 233.971 C 317.093 221.145, 317.460 218.963, 316.541 215.350 C 314.749 208.306, 311.112 206.031, 307.469 209.674 M 214.418 215.091 C 212.942 216.722, 213.070 217.948, 216.046 230.681 C 217.822 238.281, 219.719 245.063, 220.260 245.750 C 222.211 248.227, 226.204 247.110, 230.288 242.943 C 234.232 238.920, 234.261 238.836, 233.763 232.632 C 233.160 225.130, 230.066 217.647, 226.844 215.901 C 225.555 215.203, 222.592 214.336, 220.260 213.976 C 216.905 213.457, 215.686 213.690, 214.418 215.091 M 182.250 256.713 L 178 257.115 178 272.998 C 178 281.734, 177.633 289.109, 177.184 289.386 C 176.736 289.663, 167.230 289.967, 156.060 290.062 L 135.750 290.234 133.664 286.867 C 131.047 282.646, 130.174 282.034, 126.729 282.015 C 122.772 281.993, 120.944 286.095, 123.176 289.985 L 124.769 292.760 120.245 293.380 C 117.757 293.721, 114.186 294, 112.311 294 C 104.862 294, 99.496 299.180, 98.475 307.357 C 97.271 316.987, 100.758 323.923, 107.821 325.949 C 109.721 326.494, 115.017 326.459, 121.231 325.860 C 128.973 325.114, 138.172 325.277, 158.614 326.521 L 185.728 328.171 190.765 325.619 C 196.511 322.708, 199.540 319.319, 201.049 314.115 C 201.701 311.867, 201.984 300.286, 201.799 283.500 L 201.500 256.500 194 256.406 C 189.875 256.354, 184.588 256.493, 182.250 256.713 M 30.207 304.250 C 30.494 343.669, 30.546 344.586, 32.726 348.664 C 34.708 352.370, 40.326 357.681, 45.246 360.500 C 46.206 361.050, 60.683 371.400, 77.418 383.500 L 107.844 405.500 114.075 416.298 C 120.750 427.865, 123.180 430.433, 128.912 431.976 C 136.514 434.023, 145.193 428.817, 146.590 421.372 C 147.762 415.126, 146.344 411.280, 139.061 400.949 C 131.716 390.529, 131.694 390.316, 137.887 389.789 C 142.367 389.407, 144.426 386.488, 142.683 382.991 C 141.551 380.721, 140.867 380.500, 134.970 380.500 C 128.808 380.500, 128.358 380.333, 125.529 377 C 121.150 371.841, 99.061 348.099, 87.149 335.747 L 76.779 324.994 77.371 313.247 C 77.697 306.786, 78.246 293.063, 78.590 282.750 L 79.217 264 54.566 264 L 29.915 264 30.207 304.250" stroke="none" fill="#f9c4c0" fill-rule="evenodd"/><path d="M 387 31.876 C 383.425 32.845, 376.225 35.477, 371 37.725 C 365.775 39.973, 359.587 42.119, 357.250 42.494 C 353.484 43.098, 353 43.479, 353.004 45.838 C 353.006 47.302, 353.925 50.005, 355.047 51.845 C 357.486 55.845, 356.376 58, 351.878 58 C 349.648 58, 349 58.459, 349 60.040 C 349 63.118, 352.596 69.537, 355.679 71.962 C 358.300 74.024, 358.405 74.455, 358.200 82.307 C 358.058 87.721, 358.444 91.302, 359.338 92.863 C 360.598 95.063, 360.737 94.736, 361.349 88.153 C 361.711 84.263, 362.530 79.930, 363.170 78.526 C 364.188 76.291, 364.782 76.042, 367.917 76.533 C 369.888 76.841, 372.909 77.308, 374.632 77.570 C 379.305 78.281, 395.177 76.247, 405.590 73.603 L 414.773 71.271 415.319 75.385 C 415.713 78.353, 416.720 80.217, 418.932 82.073 C 421.864 84.531, 422 84.985, 422 92.288 C 422 98.906, 422.268 100.073, 424 101 C 425.825 101.977, 426 101.760, 426 98.535 C 426 96.591, 426.472 95, 427.050 95 C 429.186 95, 433.977 98.088, 435.102 100.190 C 436.236 102.310, 436.305 102.281, 438.107 98.930 C 447.448 81.560, 446.594 53.119, 436.493 45.173 C 435.084 44.065, 430.459 41.717, 426.216 39.956 C 421.972 38.195, 417.318 35.918, 415.873 34.896 C 412.554 32.550, 402.826 29.982, 397.540 30.058 C 395.318 30.089, 390.575 30.908, 387 31.876 M 372 97 C 370.868 99.115, 372.163 103, 374 103 C 374.511 103, 375.411 102.100, 376 101 C 377.132 98.885, 375.837 95, 374 95 C 373.489 95, 372.589 95.900, 372 97 M 393.390 96.427 C 392.440 98.902, 393.433 102.467, 395.165 102.797 C 397.121 103.169, 398.428 99.925, 397.500 97 C 396.767 94.689, 394.194 94.331, 393.390 96.427 M 396.240 163.137 C 393.348 165.899, 391.209 168.529, 391.488 168.981 C 391.767 169.432, 391.097 174.171, 389.998 179.511 C 388.014 189.153, 387.348 203.426, 388.776 205.672 C 389.260 206.433, 391.537 204.452, 395.261 200.031 L 401 193.218 401 184.413 C 401 176.520, 401.274 175.212, 403.646 171.790 L 406.291 167.972 404.462 163.736 C 403.455 161.406, 402.377 159.188, 402.066 158.807 C 401.755 158.425, 399.133 160.374, 396.240 163.137" stroke="none" fill="#323a52" fill-rule="evenodd"/><path d="M 414 154.091 C 403.804 157.273, 401.138 157.317, 393.745 154.425 C 389.069 152.596, 388.959 152.597, 387.086 154.533 C 385.375 156.301, 385.284 157.159, 386.190 163 C 386.744 166.575, 387.377 169.686, 387.595 169.913 C 387.813 170.139, 390.880 167.552, 394.409 164.163 C 397.939 160.773, 401.244 158, 401.754 158 C 402.265 158, 403.944 161.136, 405.487 164.969 C 407.030 168.801, 408.564 171.800, 408.896 171.633 C 412.449 169.841, 432 157.611, 432 157.180 C 432 155.857, 426.498 151.005, 425.063 151.063 C 424.203 151.098, 419.225 152.460, 414 154.091 M 80.736 228 C 78.676 267.893, 78.620 273, 80.242 273 C 81.091 273, 82.059 272.288, 82.393 271.418 C 83.219 269.267, 82.997 225.739, 82.129 219.500 C 81.557 215.394, 81.308 216.913, 80.736 228 M 177 239.333 L 177 256 181 256 C 183.547 256, 184.991 255.546, 184.975 254.750 C 184.933 252.612, 178.170 223.837, 177.569 223.236 C 177.256 222.923, 177 230.167, 177 239.333" stroke="none" fill="#5db19c" fill-rule="evenodd"/><path d="M 386.252 176.500 C 386.263 178.700, 386.468 179.482, 386.707 178.238 C 386.946 176.994, 386.937 175.194, 386.687 174.238 C 386.437 173.282, 386.241 174.300, 386.252 176.500 M 135.232 187 C 135.232 188.925, 135.438 189.713, 135.689 188.750 C 135.941 187.787, 135.941 186.213, 135.689 185.250 C 135.438 184.287, 135.232 185.075, 135.232 187 M 134.272 206 C 134.272 208.475, 134.467 209.488, 134.706 208.250 C 134.944 207.012, 134.944 204.988, 134.706 203.750 C 134.467 202.512, 134.272 203.525, 134.272 206 M 180.762 256.707 C 182.006 256.946, 183.806 256.937, 184.762 256.687 C 185.718 256.437, 184.700 256.241, 182.500 256.252 C 180.300 256.263, 179.518 256.468, 180.762 256.707 M 78.320 290 C 78.320 293.575, 78.502 295.038, 78.723 293.250 C 78.945 291.462, 78.945 288.538, 78.723 286.750 C 78.502 284.962, 78.320 286.425, 78.320 290 M 171.762 289.707 C 173.006 289.946, 174.806 289.937, 175.762 289.687 C 176.718 289.437, 175.700 289.241, 173.500 289.252 C 171.300 289.263, 170.518 289.468, 171.762 289.707 M 77.286 320.500 C 77.294 323.250, 77.488 324.256, 77.718 322.736 C 77.947 321.216, 77.941 318.966, 77.704 317.736 C 77.467 316.506, 77.279 317.750, 77.286 320.500 M 135.762 325.707 C 137.006 325.946, 138.806 325.937, 139.762 325.687 C 140.718 325.437, 139.700 325.241, 137.500 325.252 C 135.300 325.263, 134.518 325.468, 135.762 325.707 M 152.250 326.689 C 153.213 326.941, 154.787 326.941, 155.750 326.689 C 156.713 326.438, 155.925 326.232, 154 326.232 C 152.075 326.232, 151.287 326.438, 152.250 326.689 M 169.250 327.689 C 170.213 327.941, 171.787 327.941, 172.750 327.689 C 173.713 327.438, 172.925 327.232, 171 327.232 C 169.075 327.232, 168.287 327.438, 169.250 327.689 M 83.958 332.250 C 86.410 334.863, 88.548 337, 88.708 337 C 89.459 337, 88.665 336.102, 84.250 331.958 L 79.500 327.500 83.958 332.250 M 108.750 448.744 C 113.287 448.929, 120.713 448.929, 125.250 448.744 C 129.787 448.559, 126.075 448.407, 117 448.407 C 107.925 448.407, 104.213 448.559, 108.750 448.744" stroke="none" fill="#9ce0c0" fill-rule="evenodd"/><path d="M 378.750 157.706 C 379.988 157.944, 382.012 157.944, 383.250 157.706 C 384.488 157.467, 383.475 157.272, 381 157.272 C 378.525 157.272, 377.512 157.467, 378.750 157.706 M 435.264 157.718 C 436.784 157.947, 439.034 157.941, 440.264 157.704 C 441.494 157.467, 440.250 157.279, 437.500 157.286 C 434.750 157.294, 433.744 157.488, 435.264 157.718 M 420.199 187.976 C 419.050 190.739, 418.439 193, 418.840 193 C 419.650 193, 423.234 183.901, 422.653 183.320 C 422.451 183.118, 421.347 185.213, 420.199 187.976 M 477.867 210.750 C 477.665 211.713, 477.732 231.400, 478.016 254.500 L 478.533 296.500 478.766 252.750 C 478.895 228.688, 478.827 209, 478.617 209 C 478.406 209, 478.068 209.787, 477.867 210.750 M 339.406 214.386 C 339.113 215.148, 339.049 217.735, 339.262 220.136 L 339.651 224.500 339.825 219.333 C 339.928 216.281, 340.512 213.960, 341.250 213.662 C 342.229 213.267, 342.222 213.141, 341.219 213.079 C 340.514 213.036, 339.698 213.624, 339.406 214.386 M 386.336 225 C 386.336 229.125, 386.513 230.813, 386.728 228.750 C 386.944 226.688, 386.944 223.313, 386.728 221.250 C 386.513 219.188, 386.336 220.875, 386.336 225 M 388.336 228 C 388.336 232.125, 388.513 233.813, 388.728 231.750 C 388.944 229.688, 388.944 226.313, 388.728 224.250 C 388.513 222.188, 388.336 223.875, 388.336 228 M 308.532 280.948 C 307.598 282.459, 322.707 293.050, 325.700 292.982 C 326.140 292.972, 324.214 291.703, 321.419 290.162 C 313.360 285.717, 308.668 281.827, 310.198 280.857 C 311.110 280.278, 311.143 280.026, 310.309 280.015 C 309.654 280.007, 308.855 280.426, 308.532 280.948 M 333.250 294.716 C 334.762 294.945, 337.238 294.945, 338.750 294.716 C 340.262 294.487, 339.025 294.300, 336 294.300 C 332.975 294.300, 331.738 294.487, 333.250 294.716 M 382.990 312.795 L 383.480 320.500 383.789 313.599 C 383.959 309.804, 383.739 306.337, 383.299 305.894 C 382.860 305.452, 382.720 308.558, 382.990 312.795 M 385.336 316 C 385.336 320.125, 385.513 321.813, 385.728 319.750 C 385.944 317.688, 385.944 314.313, 385.728 312.250 C 385.513 310.188, 385.336 311.875, 385.336 316 M 477.446 361.500 C 477.447 379.100, 477.583 386.159, 477.749 377.187 C 477.914 368.215, 477.914 353.815, 477.748 345.187 C 477.581 336.559, 477.446 343.900, 477.446 361.500 M 382.336 343 C 382.336 347.125, 382.513 348.813, 382.728 346.750 C 382.944 344.688, 382.944 341.313, 382.728 339.250 C 382.513 337.188, 382.336 338.875, 382.336 343 M 384.336 345 C 384.336 349.125, 384.513 350.813, 384.728 348.750 C 384.944 346.688, 384.944 343.313, 384.728 341.250 C 384.513 339.188, 384.336 340.875, 384.336 345 M 435.500 343 C 438.209 345.750, 440.650 348, 440.925 348 C 441.200 348, 439.209 345.750, 436.500 343 C 433.791 340.250, 431.350 338, 431.075 338 C 430.800 338, 432.791 340.250, 435.500 343" stroke="none" fill="#d2e1fb" fill-rule="evenodd"/><path d="M 341.310 219.500 C 341.315 222.800, 341.502 224.029, 341.725 222.232 C 341.947 220.435, 341.943 217.735, 341.715 216.232 C 341.486 214.729, 341.304 216.200, 341.310 219.500 M 477.374 319.500 C 477.376 325.550, 477.541 327.896, 477.740 324.713 C 477.939 321.531, 477.937 316.581, 477.736 313.713 C 477.535 310.846, 477.372 313.450, 477.374 319.500 M 467.750 392.723 C 469.538 392.945, 472.462 392.945, 474.250 392.723 C 476.038 392.502, 474.575 392.320, 471 392.320 C 467.425 392.320, 465.962 392.502, 467.750 392.723" stroke="none" fill="#cbdcfa" fill-rule="evenodd"/><path d="M 373.437 120.750 C 375.110 127.789, 382.190 132.082, 388.624 129.959 C 392.677 128.622, 397 123.700, 397 120.423 L 397 118 384.892 118 L 372.783 118 373.437 120.750 M 360.388 159.482 C 341.085 162.784, 333.238 167.836, 327.146 180.880 C 324.681 186.158, 324.499 187.579, 324.163 204.250 C 323.885 218.075, 324.085 222, 325.070 222 C 325.765 222, 326.082 222.251, 325.775 222.559 C 325.468 222.866, 323.575 222.432, 321.570 221.594 C 317.194 219.765, 317.914 218.403, 312.506 238.750 C 308.739 252.925, 308.704 253, 305.827 253 C 304.237 253, 301.359 252.341, 299.432 251.536 C 294.265 249.377, 292.946 245.450, 294.057 235.540 C 294.546 231.180, 294.750 227.416, 294.510 227.176 C 294.270 226.936, 289.788 225.704, 284.551 224.438 C 279.314 223.172, 274.592 221.866, 274.059 221.536 C 273.526 221.207, 273.731 223.089, 274.516 225.719 C 275.300 228.348, 278.332 238.466, 281.252 248.202 L 286.562 265.903 297.046 273.797 L 307.531 281.690 313.511 278.535 C 318.896 275.693, 322.985 271.599, 326.560 265.472 C 327.521 263.824, 330.939 265.536, 363.353 283.903 C 408.852 309.684, 408.363 309.457, 418.500 309.392 C 431.963 309.305, 443.334 303.111, 449.573 292.466 C 450.970 290.081, 457.940 270.663, 465.062 249.315 C 472.183 227.967, 478.678 209.092, 479.495 207.370 C 482.278 201.505, 484.250 191.712, 483.707 186.455 C 482.687 176.568, 475.894 166.517, 467.291 162.165 C 460.393 158.675, 449.610 156.846, 440.361 157.597 L 431.982 158.277 410.517 183.388 L 389.053 208.500 389.026 220.110 C 389.012 226.496, 388.726 233.718, 388.392 236.159 C 387.783 240.598, 387.783 240.598, 391.591 241.766 C 393.685 242.409, 395.496 242.837, 395.614 242.718 C 395.733 242.598, 400.546 231.925, 406.309 219 C 429.692 166.558, 428.087 172.409, 401.440 236.750 C 399.333 241.838, 397.162 246, 396.616 246 C 395.159 246, 334.110 226.389, 330 224.601 C 325.493 222.640, 327.309 222.583, 333.591 224.489 C 336.291 225.308, 338.591 225.983, 338.702 225.989 C 338.814 225.995, 339.039 223.223, 339.202 219.829 C 339.387 216.009, 339.976 213.502, 340.750 213.246 C 341.671 212.942, 342 214.689, 342 219.878 L 342 226.923 346.250 228.064 C 348.587 228.692, 358.375 231.578, 368 234.477 L 385.500 239.747 386.167 225.311 C 386.534 217.371, 387.067 210.267, 387.352 209.525 C 387.800 208.357, 385.226 158.800, 384.697 158.420 C 384.589 158.342, 382.025 158.044, 379 157.758 C 375.560 157.433, 368.588 158.079, 360.388 159.482 M 341.657 289.783 C 341.300 296.777, 341.006 322.317, 341.004 346.537 L 341 390.574 349.655 390.816 C 360.451 391.117, 366.194 389.342, 372.565 383.734 C 377.621 379.283, 381.937 371.440, 382.048 366.500 C 382.094 364.447, 382.673 365.637, 383.880 370.267 C 387.119 382.686, 394.845 390.097, 406.549 392.014 C 414.741 393.355, 464 393.316, 464 391.968 C 464 389.432, 459.440 377.763, 455.416 370 C 444.590 349.119, 427.754 332.950, 397.646 314.519 C 391.676 310.865, 386.656 308.016, 386.489 308.187 C 386.323 308.359, 385.910 315.700, 385.572 324.500 C 384.424 354.427, 383.810 363, 382.816 363 C 382.183 363, 381.950 352.739, 382.165 334.327 L 382.500 305.654 371.500 299.220 C 360.281 292.657, 358.580 291.420, 348.220 282.283 L 342.305 277.067 341.657 289.783" stroke="none" fill="#f1f7ff" fill-rule="evenodd"/><path d="M 413.162 204.543 C 411.487 208.220, 411.807 209.005, 413.618 205.662 C 414.464 204.100, 414.969 202.636, 414.741 202.407 C 414.512 202.179, 413.802 203.140, 413.162 204.543 M 386.854 223.922 C 386.654 232.129, 386.181 239.152, 385.803 239.530 C 385.425 239.908, 375.822 237.436, 364.463 234.037 C 353.104 230.638, 343.635 228.031, 343.421 228.245 C 343.207 228.459, 355.063 232.462, 369.766 237.139 C 392.139 244.257, 396.643 245.406, 397.378 244.183 C 399.045 241.407, 412.041 209.707, 411.666 209.332 C 411.459 209.125, 407.962 216.603, 403.895 225.949 C 396.119 243.819, 395.916 244.059, 390.412 241.967 L 387.694 240.933 388.288 224.967 C 388.614 216.185, 388.507 209, 388.050 209 C 387.592 209, 387.054 215.715, 386.854 223.922 M 340.142 219.281 C 340.035 223.658, 339.596 225.218, 338.340 225.700 C 336.945 226.235, 337.048 226.474, 338.985 227.190 C 340.253 227.659, 341.393 227.921, 341.518 227.771 C 341.643 227.622, 341.416 224.350, 341.014 220.500 L 340.284 213.500 340.142 219.281 M 465.243 250.680 C 458.501 270.931, 451.654 289.820, 450.027 292.655 C 446.592 298.639, 440.409 304.039, 433.420 307.157 C 427.143 309.958, 414.434 310.748, 408 308.736 C 405.525 307.963, 386.684 297.805, 366.132 286.165 C 345.579 274.524, 328.366 265, 327.882 265 C 327.397 265, 327 265.385, 327 265.856 C 327 268.337, 319.611 275.916, 314.539 278.638 L 308.855 281.688 315.722 286.380 C 323.449 291.660, 330.032 294, 337.159 294 L 342 294 342 285.500 C 342 280.825, 342.255 277, 342.567 277 C 342.878 277, 347.041 280.396, 351.817 284.548 C 356.592 288.699, 365.675 295.137, 372 298.854 L 383.500 305.613 383.263 323.056 C 383.132 332.650, 382.762 345.563, 382.441 351.750 C 382.083 358.628, 382.226 363, 382.809 363 C 383.374 363, 384.064 351.579, 384.500 335 C 384.905 319.600, 385.456 307, 385.724 307 C 386.846 307, 408.320 320.392, 415.992 325.876 C 439.453 342.646, 454.953 362.052, 461.656 383.044 L 464.500 391.952 470.629 391.976 L 476.757 392 477.468 308.750 C 477.859 262.962, 478.027 222.881, 477.840 219.680 C 477.505 213.937, 477.337 214.349, 465.243 250.680 M 177.407 273 C 177.407 282.075, 177.559 285.788, 177.744 281.250 C 177.929 276.712, 177.929 269.288, 177.744 264.750 C 177.559 260.212, 177.407 263.925, 177.407 273 M 132.643 390.768 C 132.382 391.191, 133.930 391.369, 136.084 391.163 C 138.238 390.958, 140 390.612, 140 390.395 C 140 389.650, 133.118 389.999, 132.643 390.768 M 100.225 465.250 L 100.500 481.500 117 481.500 L 133.500 481.500 133.775 465.250 L 134.050 449 117 449 L 99.950 449 100.225 465.250" stroke="none" fill="#c7dafa" fill-rule="evenodd"/><path d="M 373.437 120.750 C 375.110 127.789, 382.190 132.082, 388.624 129.959 C 392.677 128.622, 397 123.700, 397 120.423 L 397 118 384.892 118 L 372.783 118 373.437 120.750 M 360.388 159.482 C 341.085 162.784, 333.238 167.836, 327.146 180.880 C 324.681 186.158, 324.499 187.579, 324.163 204.250 C 323.885 218.075, 324.085 222, 325.070 222 C 325.765 222, 326.082 222.251, 325.775 222.559 C 325.468 222.866, 323.575 222.432, 321.570 221.594 C 317.194 219.765, 317.914 218.403, 312.506 238.750 C 308.739 252.925, 308.704 253, 305.827 253 C 304.237 253, 301.359 252.341, 299.432 251.536 C 294.265 249.377, 292.946 245.450, 294.057 235.540 C 294.546 231.180, 294.750 227.416, 294.510 227.176 C 294.270 226.936, 289.788 225.704, 284.551 224.438 C 279.314 223.172, 274.592 221.866, 274.059 221.536 C 273.526 221.207, 273.731 223.089, 274.516 225.719 C 275.300 228.348, 278.332 238.466, 281.252 248.202 L 286.562 265.903 297.046 273.797 L 307.531 281.690 313.511 278.535 C 318.896 275.693, 322.985 271.599, 326.560 265.472 C 327.521 263.824, 330.939 265.536, 363.353 283.903 C 408.852 309.684, 408.363 309.457, 418.500 309.392 C 431.963 309.305, 443.334 303.111, 449.573 292.466 C 450.970 290.081, 457.940 270.663, 465.062 249.315 C 472.183 227.967, 478.678 209.092, 479.495 207.370 C 482.278 201.505, 484.250 191.712, 483.707 186.455 C 482.687 176.568, 475.894 166.517, 467.291 162.165 C 460.393 158.675, 449.610 156.846, 440.361 157.597 L 431.982 158.277 410.517 183.388 L 389.053 208.500 389.026 220.110 C 389.012 226.496, 388.726 233.718, 388.392 236.159 C 387.783 240.598, 387.783 240.598, 391.591 241.766 C 393.685 242.409, 395.496 242.837, 395.614 242.718 C 395.733 242.598, 400.546 231.925, 406.309 219 C 429.692 166.558, 428.087 172.409, 401.440 236.750 C 399.333 241.838, 397.162 246, 396.616 246 C 395.159 246, 334.110 226.389, 330 224.601 C 325.493 222.640, 327.309 222.583, 333.591 224.489 C 336.291 225.308, 338.591 225.983, 338.702 225.989 C 338.814 225.995, 339.039 223.223, 339.202 219.829 C 339.387 216.009, 339.976 213.502, 340.750 213.246 C 341.671 212.942, 342 214.689, 342 219.878 L 342 226.923 346.250 228.064 C 348.587 228.692, 358.375 231.578, 368 234.477 L 385.500 239.747 386.167 225.311 C 386.534 217.371, 387.067 210.267, 387.352 209.525 C 387.800 208.357, 385.226 158.800, 384.697 158.420 C 384.589 158.342, 382.025 158.044, 379 157.758 C 375.560 157.433, 368.588 158.079, 360.388 159.482 M 341.657 289.783 C 341.300 296.777, 341.006 322.317, 341.004 346.537 L 341 390.574 349.655 390.816 C 360.451 391.117, 366.194 389.342, 372.565 383.734 C 377.621 379.283, 381.937 371.440, 382.048 366.500 C 382.094 364.447, 382.673 365.637, 383.880 370.267 C 387.119 382.686, 394.845 390.097, 406.549 392.014 C 414.741 393.355, 464 393.316, 464 391.968 C 464 389.432, 459.440 377.763, 455.416 370 C 444.590 349.119, 427.754 332.950, 397.646 314.519 C 391.676 310.865, 386.656 308.016, 386.489 308.187 C 386.323 308.359, 385.910 315.700, 385.572 324.500 C 384.424 354.427, 383.810 363, 382.816 363 C 382.183 363, 381.950 352.739, 382.165 334.327 L 382.500 305.654 371.500 299.220 C 360.281 292.657, 358.580 291.420, 348.220 282.283 L 342.305 277.067 341.657 289.783" stroke="none" fill="#f1f7ff" fill-rule="evenodd"/><path d="M 100.125 348.862 C 102.531 351.580, 109.900 359.688, 116.500 366.881 L 128.500 379.958 134.595 379.979 C 139.211 379.995, 141.092 380.444, 142.345 381.829 C 145.938 385.799, 142.577 391, 136.417 391 C 134.446 391, 132.983 391.355, 133.167 391.789 C 133.350 392.223, 136.388 396.723, 139.918 401.789 L 146.336 411 159.168 411 L 172 411 172 446.500 L 172 482 205 482 L 238 482 238 432.684 C 238 379.652, 237.669 375.250, 232.987 365.974 C 229.259 358.589, 219.846 349.887, 212.285 346.835 L 206.500 344.500 151.125 344.210 L 95.751 343.920 100.125 348.862 M 44 367.767 C 44 387.996, 50.278 400.397, 64.216 407.701 C 69.417 410.426, 69.827 410.475, 90.382 410.824 L 111.263 411.178 109.188 408.264 C 107.609 406.047, 52.454 364.962, 45.336 360.700 C 44.267 360.060, 44 361.472, 44 367.767 M 390.748 385.044 L 393.993 388.587 397.548 434.044 C 399.503 459.045, 401.291 480.063, 401.520 480.750 C 401.844 481.720, 410.233 482, 438.969 482 L 476 482 476 437.546 L 476 393.092 439.250 392.796 C 398.297 392.466, 399.818 392.710, 391.501 385.140 L 387.503 381.500 390.748 385.044 M 352.750 391.706 C 353.988 391.944, 356.012 391.944, 357.250 391.706 C 358.488 391.467, 357.475 391.272, 355 391.272 C 352.525 391.272, 351.512 391.467, 352.750 391.706" stroke="none" fill="#79affe" fill-rule="evenodd"/><path d="M 381.250 372.964 C 380.243 376.188, 380.701 385.080, 384.012 426.664 C 386.195 454.074, 387.985 477.738, 387.991 479.250 C 388 481.972, 388.066 482, 394.629 482 L 401.258 482 400.673 477.250 C 400.352 474.637, 398.644 453.600, 396.878 430.500 L 393.668 388.500 390.417 384.838 C 386.580 380.518, 385.043 377.822, 383.553 372.799 L 382.456 369.099 381.250 372.964" stroke="none" fill="#4d84e6" fill-rule="evenodd"/><path d="M 207.770 345.477 C 215.293 347.607, 218.656 349.562, 224.803 355.375 C 231.089 361.319, 235.368 369.132, 236.912 377.480 C 237.602 381.213, 238 401.412, 238 432.684 L 238 482 243.033 482 L 248.066 482 247.783 427.750 L 247.500 373.500 244.804 367.747 C 241.080 359.800, 233.122 351.678, 225.275 347.815 C 220.002 345.219, 217.425 344.602, 210.685 344.323 L 202.500 343.985 207.770 345.477 M 375.651 381.628 C 373.535 384.069, 369.485 387.287, 366.651 388.778 C 362.087 391.181, 360.502 391.473, 352.750 391.336 L 344 391.181 344 436.590 L 344 482 366 482 L 388 482 387.990 479.250 C 387.975 475.014, 380.164 377.829, 379.811 377.490 C 379.640 377.325, 377.768 379.187, 375.651 381.628 M 395.232 410 C 395.232 411.925, 395.438 412.712, 395.689 411.750 C 395.941 410.788, 395.941 409.212, 395.689 408.250 C 395.438 407.288, 395.232 408.075, 395.232 410 M 396.232 423 C 396.232 424.925, 396.438 425.712, 396.689 424.750 C 396.941 423.788, 396.941 422.212, 396.689 421.250 C 396.438 420.288, 396.232 421.075, 396.232 423 M 398.232 448 C 398.232 449.925, 398.438 450.712, 398.689 449.750 C 398.941 448.788, 398.941 447.212, 398.689 446.250 C 398.438 445.288, 398.232 446.075, 398.232 448 M 399.232 461 C 399.232 462.925, 399.438 463.712, 399.689 462.750 C 399.941 461.788, 399.941 460.212, 399.689 459.250 C 399.438 458.288, 399.232 459.075, 399.232 461" stroke="none" fill="#5592ff" fill-rule="evenodd"/><path d="" stroke="none" fill="#f0dde5" fill-rule="evenodd"/><path d="M 135.310 178.500 C 135.315 181.800, 135.502 183.029, 135.725 181.232 C 135.947 179.435, 135.943 176.735, 135.715 175.232 C 135.486 173.729, 135.304 175.200, 135.310 178.500" stroke="none" fill="#73b4d4" fill-rule="evenodd"/></svg>