<svg xmlns="http://www.w3.org/2000/svg" width="512" height="512" viewBox="0 0 512 512" version="1.1"><path d="M 173.113 17.545 C 142.931 24.093, 119.103 42.505, 105.627 69.696 C 98.652 83.767, 96 95.628, 96 112.747 C 96 123.357, 98.347 143.325, 99.886 145.816 C 100.368 146.595, 101.867 146.468, 105.025 145.379 C 107.568 144.503, 111.745 143.984, 114.744 144.171 L 120.003 144.500 120.001 138.705 C 120 133.884, 120.413 132.496, 122.455 130.455 L 124.909 128 151.773 128 C 182.821 128, 186.227 127.423, 192.555 121.091 C 194.725 118.920, 197.857 114.532, 199.516 111.340 C 204.729 101.311, 211.264 101.306, 216.484 111.328 C 218.143 114.513, 220.987 118.628, 222.804 120.471 C 228.496 126.246, 232.033 127.347, 246.841 127.954 C 259.326 128.465, 260.304 128.651, 262.091 130.861 C 263.465 132.561, 264 134.800, 263.999 138.861 L 263.997 144.500 269.256 144.171 C 272.255 143.984, 276.432 144.503, 278.975 145.379 C 282.133 146.468, 283.632 146.595, 284.114 145.816 C 285.653 143.325, 288 123.357, 288 112.747 C 288 100.220, 286.962 92.832, 283.822 83 C 272.986 49.075, 243.504 23.239, 208.566 17.051 C 200.377 15.600, 180.820 15.873, 173.113 17.545" stroke="none" fill="#33658a" fill-rule="evenodd"/><path d="M 333.500 66.377 C 327.542 69.187, 324.826 71.952, 322.084 78 C 320.153 82.260, 320.043 84.426, 320.022 118.685 C 319.998 158.319, 320.411 162.352, 325.977 176.785 C 334.083 197.804, 353.017 216.909, 374.292 225.539 C 387.016 230.700, 397.065 232.350, 411.927 231.718 C 426.233 231.110, 435.400 228.903, 446.722 223.338 C 471.104 211.356, 488.938 188.440, 494.515 161.927 C 495.672 156.428, 495.998 146.877, 495.990 118.685 C 495.981 82.759, 495.964 82.464, 493.623 77.500 C 489.328 68.394, 481.971 64.058, 470.750 64.022 L 464 64 464 71.876 L 464 79.752 469.559 80.213 C 473.524 80.542, 475.747 81.304, 477.309 82.867 C 479.480 85.040, 479.500 85.381, 479.490 119.780 C 479.480 152.982, 479.379 154.848, 477.187 162.455 C 467.898 194.682, 441.010 215.167, 408 215.167 C 374.838 215.167, 348.142 194.778, 338.769 162.291 C 336.632 154.885, 336.520 152.783, 336.510 119.780 C 336.500 85.381, 336.520 85.040, 338.691 82.867 C 340.253 81.304, 342.476 80.542, 346.441 80.213 L 352 79.752 352 71.876 L 352 64 345.250 64.010 C 340.254 64.017, 337.201 64.632, 333.500 66.377 M 234.407 345.009 C 224.695 346.985, 215.914 353.414, 212.065 361.366 C 198.910 388.540, 225.353 416.325, 253.268 404.661 C 260.646 401.578, 267.196 393.869, 270.336 384.572 C 272.552 378.008, 272.434 373.674, 269.826 365.944 C 264.944 351.473, 248.989 342.043, 234.407 345.009 M 233.450 361.407 C 223.361 365.801, 220.978 379.213, 228.882 387.118 C 240.117 398.353, 258.528 388.290, 255.572 372.529 C 253.803 363.103, 242.548 357.444, 233.450 361.407" stroke="none" fill="#dbe9ee" fill-rule="evenodd"/><path d="M 358 47.790 C 357.175 48.046, 355.488 49.176, 354.250 50.302 C 352.062 52.292, 352 52.894, 352 72 C 352 91.248, 352.047 91.696, 354.314 93.826 C 357.486 96.805, 362.957 96.739, 365.826 93.686 C 367.905 91.473, 368 90.516, 368 71.860 C 368 52.896, 367.937 52.292, 365.750 50.312 C 363.252 48.052, 360.279 47.084, 358 47.790 M 454 47.716 C 453.175 48.012, 451.488 49.176, 450.250 50.302 C 448.062 52.292, 448 52.894, 448 72 C 448 91.248, 448.047 91.696, 450.314 93.826 C 453.486 96.805, 458.957 96.739, 461.826 93.686 C 463.905 91.473, 464 90.516, 464 71.860 C 464 52.903, 463.936 52.290, 461.750 50.289 C 459.173 47.931, 456.175 46.936, 454 47.716 M 400 287.951 C 400 324.621, 399.624 345.656, 398.908 348.994 C 397.485 355.626, 392.732 361.747, 386.519 364.945 L 381.557 367.500 326.528 367.789 L 271.500 368.079 271.500 376.070 L 271.500 384.061 329 383.781 L 386.500 383.500 393 380.413 C 401.259 376.491, 408.385 369.356, 412.387 361 L 415.500 354.500 415.779 293.250 L 416.059 232 408.029 232 L 400 232 400 287.951 M 233.450 361.407 C 223.361 365.801, 220.978 379.213, 228.882 387.118 C 240.117 398.353, 258.528 388.290, 255.572 372.529 C 253.803 363.103, 242.548 357.444, 233.450 361.407" stroke="none" fill="#c8d4d9" fill-rule="evenodd"/><path d="M 358 47.790 C 357.175 48.046, 355.488 49.176, 354.250 50.302 C 352.062 52.292, 352 52.894, 352 72 C 352 91.248, 352.047 91.696, 354.314 93.826 C 357.486 96.805, 362.957 96.739, 365.826 93.686 C 367.905 91.473, 368 90.516, 368 71.860 C 368 52.896, 367.937 52.292, 365.750 50.312 C 363.252 48.052, 360.279 47.084, 358 47.790 M 454 47.716 C 453.175 48.012, 451.488 49.176, 450.250 50.302 C 448.062 52.292, 448 52.894, 448 72 C 448 91.248, 448.047 91.696, 450.314 93.826 C 453.486 96.805, 458.957 96.739, 461.826 93.686 C 463.905 91.473, 464 90.516, 464 71.860 C 464 52.903, 463.936 52.290, 461.750 50.289 C 459.173 47.931, 456.175 46.936, 454 47.716 M 400 287.951 C 400 324.621, 399.624 345.656, 398.908 348.994 C 397.485 355.626, 392.732 361.747, 386.519 364.945 L 381.557 367.500 326.528 367.789 L 271.500 368.079 271.500 376.070 L 271.500 384.061 329 383.781 L 386.500 383.500 393 380.413 C 401.259 376.491, 408.385 369.356, 412.387 361 L 415.500 354.500 415.779 293.250 L 416.059 232 408.029 232 L 400 232 400 287.951 M 233.450 361.407 C 223.361 365.801, 220.978 379.213, 228.882 387.118 C 240.117 398.353, 258.528 388.290, 255.572 372.529 C 253.803 363.103, 242.548 357.444, 233.450 361.407" stroke="none" fill="#c8d4d9" fill-rule="evenodd"/><path d="M 333.500 66.377 C 327.542 69.187, 324.826 71.952, 322.084 78 C 320.153 82.260, 320.043 84.426, 320.022 118.685 C 319.998 158.319, 320.411 162.352, 325.977 176.785 C 334.083 197.804, 353.017 216.909, 374.292 225.539 C 387.016 230.700, 397.065 232.350, 411.927 231.718 C 426.233 231.110, 435.400 228.903, 446.722 223.338 C 471.104 211.356, 488.938 188.440, 494.515 161.927 C 495.672 156.428, 495.998 146.877, 495.990 118.685 C 495.981 82.759, 495.964 82.464, 493.623 77.500 C 489.328 68.394, 481.971 64.058, 470.750 64.022 L 464 64 464 71.876 L 464 79.752 469.559 80.213 C 473.524 80.542, 475.747 81.304, 477.309 82.867 C 479.480 85.040, 479.500 85.381, 479.490 119.780 C 479.480 152.982, 479.379 154.848, 477.187 162.455 C 467.898 194.682, 441.010 215.167, 408 215.167 C 374.838 215.167, 348.142 194.778, 338.769 162.291 C 336.632 154.885, 336.520 152.783, 336.510 119.780 C 336.500 85.381, 336.520 85.040, 338.691 82.867 C 340.253 81.304, 342.476 80.542, 346.441 80.213 L 352 79.752 352 71.876 L 352 64 345.250 64.010 C 340.254 64.017, 337.201 64.632, 333.500 66.377 M 234.407 345.009 C 224.695 346.985, 215.914 353.414, 212.065 361.366 C 198.910 388.540, 225.353 416.325, 253.268 404.661 C 260.646 401.578, 267.196 393.869, 270.336 384.572 C 272.552 378.008, 272.434 373.674, 269.826 365.944 C 264.944 351.473, 248.989 342.043, 234.407 345.009 M 233.450 361.407 C 223.361 365.801, 220.978 379.213, 228.882 387.118 C 240.117 398.353, 258.528 388.290, 255.572 372.529 C 253.803 363.103, 242.548 357.444, 233.450 361.407" stroke="none" fill="#dbe9ee" fill-rule="evenodd"/><path d="M 204.204 105.570 C 202.972 106.433, 200.871 109.294, 199.537 111.927 C 195.929 119.046, 192.169 123.013, 186.541 125.633 C 181.633 127.918, 180.764 127.981, 153.673 127.990 L 125.846 128 122.923 130.923 C 120.410 133.436, 120 134.608, 120 139.276 L 120 144.706 115.250 144.260 C 112.288 143.982, 108.806 144.433, 106 145.458 C 103.525 146.362, 100.889 147.225, 100.141 147.375 C 97.775 147.852, 91.785 154.346, 89.879 158.500 C 87.539 163.601, 87.431 173.945, 89.650 180.572 C 91.853 187.150, 97.299 195.277, 102.002 199.001 C 106.563 202.614, 115.068 206.603, 120.187 207.531 C 123.159 208.069, 124.086 208.809, 124.972 211.349 C 126.814 216.637, 133.562 227.187, 138.921 233.160 L 144 238.821 144.009 260.660 L 144.019 282.500 147.139 287.941 C 157.647 306.267, 180.996 315.446, 204.500 310.489 C 218.667 307.501, 230.288 299.404, 236.861 287.941 L 239.981 282.500 239.991 260.660 L 240 238.821 245.079 233.160 C 250.438 227.187, 257.186 216.637, 259.028 211.349 C 259.914 208.809, 260.841 208.069, 263.813 207.531 C 268.664 206.652, 277.092 202.794, 281.490 199.440 C 293.371 190.378, 299.526 170.360, 294.103 158.419 C 289.984 149.351, 278.613 143.107, 268.328 144.267 L 264 144.754 264 139.300 C 264 134.605, 263.593 133.439, 261.077 130.923 C 258.177 128.023, 258.060 128, 246.327 127.990 C 236.027 127.982, 233.849 127.677, 229.459 125.633 C 223.831 123.013, 220.071 119.046, 216.463 111.927 C 213.975 107.018, 210.753 104, 208 104 C 207.145 104, 205.437 104.706, 204.204 105.570 M 16 469.365 C 16 489.465, 16.123 490.886, 18.073 493.365 L 20.145 496 46.073 496 L 72 496 72 472 L 72 448 44 448 L 16 448 16 469.365 M 312 472 L 312 496 337.826 496 C 363.528 496, 363.662 495.989, 365.826 493.686 C 367.920 491.456, 368 490.574, 368 469.686 L 368 448 340 448 L 312 448 312 472" stroke="none" fill="#eed7b7" fill-rule="evenodd"/><path d="M 104 272.709 C 82.682 276.435, 62.556 286.587, 47.274 301.323 C 34.635 313.511, 23.860 331.808, 18.903 349.500 C 16.765 357.133, 16.644 359.574, 16.267 402.750 L 15.872 448 43.936 448 L 72 448 72 472 L 72 496 192 496 L 312 496 312 472 L 312 448 340 448 L 368 448 368 416 L 368 384 319.678 384 L 271.357 384 269.008 389.197 C 266.098 395.636, 260.070 401.778, 253.500 404.999 C 246.321 408.519, 233.679 408.519, 226.500 404.999 C 220.125 401.873, 214.127 395.875, 211.001 389.500 C 207.469 382.297, 207.444 369.645, 210.948 362.526 C 214.075 356.172, 220.135 350.121, 226.500 347.001 C 233.703 343.469, 246.355 343.444, 253.474 346.948 C 260.024 350.171, 266.103 356.375, 269.008 362.803 L 271.357 368 319.772 368 L 368.188 368 367.508 362.750 C 365.539 347.556, 358.861 330.106, 349.953 316.877 C 344.445 308.698, 331.302 295.555, 323.123 290.047 C 314.464 284.216, 300.184 277.607, 290.500 274.948 C 283.804 273.110, 279.036 272.674, 261.250 272.276 L 240 271.801 239.991 277.151 C 239.973 287.107, 230.110 299.874, 217.745 305.946 C 192.135 318.522, 159.971 310.320, 147.139 287.941 C 144.739 283.756, 144.017 281.288, 144.009 277.250 L 144 272 125.250 272.136 C 114.938 272.211, 105.375 272.469, 104 272.709" stroke="none" fill="#fb6c6c" fill-rule="evenodd"/></svg>