<svg xmlns="http://www.w3.org/2000/svg" width="512" height="512" viewBox="0 0 512 512" version="1.1"><path d="M 136.354 29.032 C 134.624 29.566, 131.792 31.326, 130.062 32.942 C 126.935 35.863, 126.889 35.872, 122.708 34.348 C 116.665 32.145, 106.486 32.120, 100.855 34.293 C 95.295 36.438, 87.294 44.510, 83.716 51.583 C 76.010 66.813, 71.879 95.754, 75.162 111.500 C 75.735 114.250, 76.496 127.750, 76.852 141.500 L 77.500 166.500 82.179 166.802 C 86.705 167.094, 87.040 166.916, 92.429 161.352 L 98 155.601 98 137.800 C 98 120.623, 97.929 120, 95.985 120 C 94.877 120, 92.290 118.460, 90.235 116.577 C 86.766 113.397, 86.500 112.752, 86.500 107.500 C 86.500 102.248, 86.766 101.603, 90.235 98.423 C 92.290 96.540, 94.877 95, 95.985 95 C 97.720 95, 98.002 94.340, 98.014 90.250 C 98.041 80.684, 95.887 81.412, 122.916 81.844 C 147.054 82.230, 160.156 81.268, 167.888 78.539 C 171.448 77.283, 171.914 77.311, 172.574 78.822 C 173.866 81.778, 174.274 113.138, 173.103 119.435 C 170.424 133.842, 160.165 145.518, 146.714 149.471 C 142.860 150.603, 142.473 151.020, 142.190 154.354 C 142.019 156.359, 142.308 158, 142.831 158 C 143.355 158, 146.036 160.025, 148.789 162.500 C 153.443 166.684, 154.181 167, 159.309 167 L 164.825 167 168.016 158.750 C 175.763 138.718, 182.370 119.892, 184.233 112.535 C 185.979 105.644, 186.180 102.473, 185.721 89.035 C 185.324 77.428, 184.655 71.650, 183.073 66.185 C 178.036 48.773, 169.963 37.945, 157.637 32.064 C 150.206 28.519, 141.867 27.331, 136.354 29.032 M 353.375 158.425 C 334.376 162.763, 320.973 175.958, 322.234 189.081 C 323.251 199.671, 330.334 208.186, 343.500 214.645 L 352.500 219.061 353 229.067 C 353.492 238.904, 354.531 241.591, 357.483 240.656 C 358.023 240.485, 359.379 235.700, 360.495 230.023 C 362.737 218.627, 363.968 216.899, 368.666 218.552 C 372.907 220.043, 376 225.383, 376 231.214 C 376 236.824, 374.861 239.612, 371.359 242.575 C 368.974 244.592, 368.935 244.843, 369.965 251.575 C 370.548 255.384, 371.728 260.404, 372.588 262.732 C 375.347 270.199, 385.214 277, 393.290 277 C 398.250 277, 406.537 274.640, 409.689 272.329 C 413.865 269.268, 423.969 254.082, 429.465 242.608 C 436.461 228.001, 438.380 221.566, 438.444 212.500 C 438.512 202.822, 436.734 198.595, 429.779 191.900 C 427.150 189.369, 425 186.997, 425 186.628 C 425 186.259, 423.806 184.153, 422.347 181.948 C 417.041 173.930, 401.401 164.332, 386.464 159.928 C 377.408 157.257, 361.626 156.540, 353.375 158.425" stroke="none" fill="#333077" fill-rule="evenodd"/><path d="M 166.770 79.511 C 159.508 82.179, 143.286 83.304, 120.677 82.708 L 98.854 82.132 99.177 102.316 C 99.495 122.160, 99.549 122.606, 102.401 128.782 C 107.325 139.445, 120.793 149.732, 130.288 150.082 C 132.083 150.148, 131.840 150.458, 129 151.727 C 126.638 152.783, 121.191 153.449, 112.250 153.776 L 99 154.261 99 160.630 L 99 167 120 167 L 141 167 141 158.579 L 141 150.159 144.250 149.455 C 154.526 147.231, 165 138.517, 169.829 128.175 C 172.327 122.826, 172.500 121.473, 172.838 104.652 C 173.187 87.335, 172.603 77.926, 171.189 78.070 C 170.810 78.109, 168.822 78.757, 166.770 79.511 M 131.067 96.874 C 129.580 99.653, 129.736 102.536, 131.452 103.960 C 135.016 106.918, 138.883 102.404, 136.639 97.903 C 135.105 94.827, 132.428 94.332, 131.067 96.874 M 156.571 96.571 C 154.745 98.398, 154.583 100.353, 156.035 103.066 C 158.053 106.836, 163 104.401, 163 99.637 C 163 98.022, 160.394 95, 159 95 C 158.529 95, 157.436 95.707, 156.571 96.571 M 90.400 99.400 C 87.536 102.264, 87 103.512, 87 107.323 C 87 112.595, 90.177 117.169, 95.009 118.853 L 98 119.896 98 107.948 C 98 96.477, 97.916 96, 95.900 96 C 94.745 96, 92.270 97.530, 90.400 99.400 M 131.621 123.750 C 133.472 131.469, 138.540 135.990, 145.349 135.996 C 153.014 136.004, 160 130.109, 160 123.632 L 160 121 145.481 121 L 130.962 121 131.621 123.750 M 101.086 168.419 C 101.339 168.673, 111.549 174.492, 123.774 181.351 C 139.951 190.427, 145.987 193.369, 145.953 192.160 C 145.928 191.247, 144.896 185.550, 143.660 179.500 L 141.414 168.500 121.019 168.229 C 109.802 168.079, 100.832 168.165, 101.086 168.419 M 337 217.071 C 337 219.357, 337.658 221.801, 338.500 222.643 C 339.325 223.468, 340 225.631, 340 227.449 C 340 229.267, 339.325 231.315, 338.500 232 C 336.457 233.695, 336.442 250.760, 338.478 257.614 C 340.493 264.399, 345.356 271.444, 351.228 276.086 C 356.231 280.040, 360.648 281.701, 369.500 282.955 L 374.500 283.663 369 286.322 C 365.975 287.784, 362.677 288.985, 361.671 288.990 C 360.131 288.998, 359.952 289.516, 360.537 292.250 C 360.920 294.038, 361.294 295.500, 361.367 295.500 C 361.440 295.500, 371.288 295.370, 383.250 295.212 L 405 294.924 405 285.401 L 405 275.877 400.250 276.683 C 389.255 278.548, 381.941 276.254, 375.726 268.993 C 372.005 264.646, 370.377 260.120, 369.081 250.524 C 368.308 244.802, 368.392 244.436, 371.050 241.954 C 378.680 234.826, 375.542 219, 366.499 219 C 363.395 219, 363.326 219.106, 362.105 225.750 C 358.958 242.875, 358.300 244.157, 354.571 240.429 C 353.354 239.211, 353 236.621, 353 228.929 C 353 221.227, 352.695 219, 351.641 219 C 350.893 219, 347.631 217.656, 344.391 216.013 C 341.151 214.370, 338.163 213.020, 337.750 213.013 C 337.337 213.006, 337 214.832, 337 217.071 M 182 260.222 L 174.500 264.500 174.230 285.880 L 173.959 307.261 190.230 306.799 C 204.454 306.395, 207.034 306.062, 210.749 304.149 C 222.298 298.200, 224.270 281.713, 214.462 273.101 C 210.038 269.216, 205.525 268.038, 194.500 267.891 C 187.582 267.798, 186.385 267.599, 189.327 267.030 C 191.432 266.623, 194.110 265.334, 195.278 264.166 C 197.031 262.414, 197.232 261.560, 196.433 259.272 C 194.899 254.884, 190.897 255.148, 182 260.222 M 277.887 258.477 C 273.405 260.953, 271.323 268.966, 268.959 292.840 C 267.797 304.576, 266.993 314.301, 267.173 314.450 C 267.353 314.598, 270.283 314.998, 273.684 315.338 L 279.867 315.955 282.860 312.177 C 284.506 310.098, 288.237 307.100, 291.151 305.514 C 295.835 302.965, 297.704 302.579, 307.299 302.184 C 317.687 301.756, 318.189 301.633, 319.075 299.303 C 321.505 292.912, 318.909 281.754, 313.688 276.153 C 310.133 272.339, 303.936 269.697, 297.097 269.079 L 290.694 268.500 289.313 264.502 C 288.554 262.304, 287.386 259.971, 286.717 259.318 C 284.684 257.336, 280.648 256.951, 277.887 258.477 M 217.009 330.489 C 216.225 331.434, 216.014 333.262, 216.433 335.493 L 217.092 339.007 211.796 336.916 C 203.594 333.678, 197.080 335.541, 192.956 342.304 C 188.509 349.598, 191.017 355.505, 202.303 364.318 C 207.010 367.993, 211.012 371, 211.197 371 C 211.382 371, 211.581 369.208, 211.638 367.019 C 211.827 359.838, 219.639 347.511, 226.929 342.890 L 229.358 341.351 225.606 335.175 C 221.765 328.851, 219.426 327.577, 217.009 330.489" stroke="none" fill="#f9c4c0" fill-rule="evenodd"/><path d="M 131.390 97.427 C 130.288 100.297, 131.452 103.493, 133.715 103.815 C 135.388 104.053, 136.087 103.500, 136.576 101.552 C 137.611 97.429, 132.844 93.637, 131.390 97.427 M 156.411 98.498 C 155.502 102.122, 156.605 104.195, 159.246 103.820 C 161.845 103.451, 162.845 99.723, 160.954 97.445 C 159.130 95.246, 157.110 95.715, 156.411 98.498 M 338.252 227.500 C 338.263 229.700, 338.468 230.482, 338.707 229.238 C 338.946 227.994, 338.937 226.194, 338.687 225.238 C 338.437 224.282, 338.241 225.300, 338.252 227.500" stroke="none" fill="#242c3f" fill-rule="evenodd"/><path d="M 132 123.032 C 132 123.600, 132.624 125.558, 133.387 127.383 C 138.323 139.198, 156.250 137.381, 159.361 124.750 L 160.038 122 146.019 122 C 137.049 122, 132 122.372, 132 123.032" stroke="none" fill="#ffffff" fill-rule="evenodd"/><path d="M 98.328 101.500 C 98.333 105.350, 98.513 106.802, 98.730 104.728 C 98.946 102.653, 98.943 99.503, 98.722 97.728 C 98.501 95.952, 98.324 97.650, 98.328 101.500 M 99.259 137.500 L 99.500 153.500 111 153.420 C 121.707 153.346, 134.394 151.195, 129.500 150.283 C 116.856 147.929, 106.403 139.344, 101.369 127.178 L 99.019 121.500 99.259 137.500 M 109.250 167.746 C 115.163 167.923, 124.838 167.923, 130.750 167.746 C 136.662 167.569, 131.825 167.425, 120 167.425 C 108.175 167.425, 103.338 167.569, 109.250 167.746 M 360.192 284.782 C 360.467 288.108, 360.764 288.464, 363 288.161 C 364.375 287.974, 367.300 287.022, 369.500 286.046 L 373.500 284.270 369.500 283.558 C 367.300 283.166, 364.236 282.445, 362.692 281.954 C 359.928 281.077, 359.888 281.123, 360.192 284.782" stroke="none" fill="#fd9997" fill-rule="evenodd"/><path d="M 166.770 79.511 C 159.508 82.179, 143.286 83.304, 120.677 82.708 L 98.854 82.132 99.177 102.316 C 99.495 122.160, 99.549 122.606, 102.401 128.782 C 107.325 139.445, 120.793 149.732, 130.288 150.082 C 132.083 150.148, 131.840 150.458, 129 151.727 C 126.638 152.783, 121.191 153.449, 112.250 153.776 L 99 154.261 99 160.630 L 99 167 120 167 L 141 167 141 158.579 L 141 150.159 144.250 149.455 C 154.526 147.231, 165 138.517, 169.829 128.175 C 172.327 122.826, 172.500 121.473, 172.838 104.652 C 173.187 87.335, 172.603 77.926, 171.189 78.070 C 170.810 78.109, 168.822 78.757, 166.770 79.511 M 131.067 96.874 C 129.580 99.653, 129.736 102.536, 131.452 103.960 C 135.016 106.918, 138.883 102.404, 136.639 97.903 C 135.105 94.827, 132.428 94.332, 131.067 96.874 M 156.571 96.571 C 154.745 98.398, 154.583 100.353, 156.035 103.066 C 158.053 106.836, 163 104.401, 163 99.637 C 163 98.022, 160.394 95, 159 95 C 158.529 95, 157.436 95.707, 156.571 96.571 M 90.400 99.400 C 87.536 102.264, 87 103.512, 87 107.323 C 87 112.595, 90.177 117.169, 95.009 118.853 L 98 119.896 98 107.948 C 98 96.477, 97.916 96, 95.900 96 C 94.745 96, 92.270 97.530, 90.400 99.400 M 131.621 123.750 C 133.472 131.469, 138.540 135.990, 145.349 135.996 C 153.014 136.004, 160 130.109, 160 123.632 L 160 121 145.481 121 L 130.962 121 131.621 123.750 M 101.086 168.419 C 101.339 168.673, 111.549 174.492, 123.774 181.351 C 139.951 190.427, 145.987 193.369, 145.953 192.160 C 145.928 191.247, 144.896 185.550, 143.660 179.500 L 141.414 168.500 121.019 168.229 C 109.802 168.079, 100.832 168.165, 101.086 168.419 M 337 217.071 C 337 219.357, 337.658 221.801, 338.500 222.643 C 339.325 223.468, 340 225.631, 340 227.449 C 340 229.267, 339.325 231.315, 338.500 232 C 336.457 233.695, 336.442 250.760, 338.478 257.614 C 340.493 264.399, 345.356 271.444, 351.228 276.086 C 356.231 280.040, 360.648 281.701, 369.500 282.955 L 374.500 283.663 369 286.322 C 365.975 287.784, 362.677 288.985, 361.671 288.990 C 360.131 288.998, 359.952 289.516, 360.537 292.250 C 360.920 294.038, 361.294 295.500, 361.367 295.500 C 361.440 295.500, 371.288 295.370, 383.250 295.212 L 405 294.924 405 285.401 L 405 275.877 400.250 276.683 C 389.255 278.548, 381.941 276.254, 375.726 268.993 C 372.005 264.646, 370.377 260.120, 369.081 250.524 C 368.308 244.802, 368.392 244.436, 371.050 241.954 C 378.680 234.826, 375.542 219, 366.499 219 C 363.395 219, 363.326 219.106, 362.105 225.750 C 358.958 242.875, 358.300 244.157, 354.571 240.429 C 353.354 239.211, 353 236.621, 353 228.929 C 353 221.227, 352.695 219, 351.641 219 C 350.893 219, 347.631 217.656, 344.391 216.013 C 341.151 214.370, 338.163 213.020, 337.750 213.013 C 337.337 213.006, 337 214.832, 337 217.071 M 182 260.222 L 174.500 264.500 174.230 285.880 L 173.959 307.261 190.230 306.799 C 204.454 306.395, 207.034 306.062, 210.749 304.149 C 222.298 298.200, 224.270 281.713, 214.462 273.101 C 210.038 269.216, 205.525 268.038, 194.500 267.891 C 187.582 267.798, 186.385 267.599, 189.327 267.030 C 191.432 266.623, 194.110 265.334, 195.278 264.166 C 197.031 262.414, 197.232 261.560, 196.433 259.272 C 194.899 254.884, 190.897 255.148, 182 260.222 M 277.887 258.477 C 273.405 260.953, 271.323 268.966, 268.959 292.840 C 267.797 304.576, 266.993 314.301, 267.173 314.450 C 267.353 314.598, 270.283 314.998, 273.684 315.338 L 279.867 315.955 282.860 312.177 C 284.506 310.098, 288.237 307.100, 291.151 305.514 C 295.835 302.965, 297.704 302.579, 307.299 302.184 C 317.687 301.756, 318.189 301.633, 319.075 299.303 C 321.505 292.912, 318.909 281.754, 313.688 276.153 C 310.133 272.339, 303.936 269.697, 297.097 269.079 L 290.694 268.500 289.313 264.502 C 288.554 262.304, 287.386 259.971, 286.717 259.318 C 284.684 257.336, 280.648 256.951, 277.887 258.477 M 217.009 330.489 C 216.225 331.434, 216.014 333.262, 216.433 335.493 L 217.092 339.007 211.796 336.916 C 203.594 333.678, 197.080 335.541, 192.956 342.304 C 188.509 349.598, 191.017 355.505, 202.303 364.318 C 207.010 367.993, 211.012 371, 211.197 371 C 211.382 371, 211.581 369.208, 211.638 367.019 C 211.827 359.838, 219.639 347.511, 226.929 342.890 L 229.358 341.351 225.606 335.175 C 221.765 328.851, 219.426 327.577, 217.009 330.489" stroke="none" fill="#f9c4c0" fill-rule="evenodd"/><path d="M 166.770 79.511 C 159.508 82.179, 143.286 83.304, 120.677 82.708 L 98.854 82.132 99.177 102.316 C 99.495 122.160, 99.549 122.606, 102.401 128.782 C 107.325 139.445, 120.793 149.732, 130.288 150.082 C 132.083 150.148, 131.840 150.458, 129 151.727 C 126.638 152.783, 121.191 153.449, 112.250 153.776 L 99 154.261 99 160.630 L 99 167 120 167 L 141 167 141 158.579 L 141 150.159 144.250 149.455 C 154.526 147.231, 165 138.517, 169.829 128.175 C 172.327 122.826, 172.500 121.473, 172.838 104.652 C 173.187 87.335, 172.603 77.926, 171.189 78.070 C 170.810 78.109, 168.822 78.757, 166.770 79.511 M 131.067 96.874 C 129.580 99.653, 129.736 102.536, 131.452 103.960 C 135.016 106.918, 138.883 102.404, 136.639 97.903 C 135.105 94.827, 132.428 94.332, 131.067 96.874 M 156.571 96.571 C 154.745 98.398, 154.583 100.353, 156.035 103.066 C 158.053 106.836, 163 104.401, 163 99.637 C 163 98.022, 160.394 95, 159 95 C 158.529 95, 157.436 95.707, 156.571 96.571 M 90.400 99.400 C 87.536 102.264, 87 103.512, 87 107.323 C 87 112.595, 90.177 117.169, 95.009 118.853 L 98 119.896 98 107.948 C 98 96.477, 97.916 96, 95.900 96 C 94.745 96, 92.270 97.530, 90.400 99.400 M 131.621 123.750 C 133.472 131.469, 138.540 135.990, 145.349 135.996 C 153.014 136.004, 160 130.109, 160 123.632 L 160 121 145.481 121 L 130.962 121 131.621 123.750 M 101.086 168.419 C 101.339 168.673, 111.549 174.492, 123.774 181.351 C 139.951 190.427, 145.987 193.369, 145.953 192.160 C 145.928 191.247, 144.896 185.550, 143.660 179.500 L 141.414 168.500 121.019 168.229 C 109.802 168.079, 100.832 168.165, 101.086 168.419 M 337 217.071 C 337 219.357, 337.658 221.801, 338.500 222.643 C 339.325 223.468, 340 225.631, 340 227.449 C 340 229.267, 339.325 231.315, 338.500 232 C 336.457 233.695, 336.442 250.760, 338.478 257.614 C 340.493 264.399, 345.356 271.444, 351.228 276.086 C 356.231 280.040, 360.648 281.701, 369.500 282.955 L 374.500 283.663 369 286.322 C 365.975 287.784, 362.677 288.985, 361.671 288.990 C 360.131 288.998, 359.952 289.516, 360.537 292.250 C 360.920 294.038, 361.294 295.500, 361.367 295.500 C 361.440 295.500, 371.288 295.370, 383.250 295.212 L 405 294.924 405 285.401 L 405 275.877 400.250 276.683 C 389.255 278.548, 381.941 276.254, 375.726 268.993 C 372.005 264.646, 370.377 260.120, 369.081 250.524 C 368.308 244.802, 368.392 244.436, 371.050 241.954 C 378.680 234.826, 375.542 219, 366.499 219 C 363.395 219, 363.326 219.106, 362.105 225.750 C 358.958 242.875, 358.300 244.157, 354.571 240.429 C 353.354 239.211, 353 236.621, 353 228.929 C 353 221.227, 352.695 219, 351.641 219 C 350.893 219, 347.631 217.656, 344.391 216.013 C 341.151 214.370, 338.163 213.020, 337.750 213.013 C 337.337 213.006, 337 214.832, 337 217.071 M 182 260.222 L 174.500 264.500 174.230 285.880 L 173.959 307.261 190.230 306.799 C 204.454 306.395, 207.034 306.062, 210.749 304.149 C 222.298 298.200, 224.270 281.713, 214.462 273.101 C 210.038 269.216, 205.525 268.038, 194.500 267.891 C 187.582 267.798, 186.385 267.599, 189.327 267.030 C 191.432 266.623, 194.110 265.334, 195.278 264.166 C 197.031 262.414, 197.232 261.560, 196.433 259.272 C 194.899 254.884, 190.897 255.148, 182 260.222 M 277.887 258.477 C 273.405 260.953, 271.323 268.966, 268.959 292.840 C 267.797 304.576, 266.993 314.301, 267.173 314.450 C 267.353 314.598, 270.283 314.998, 273.684 315.338 L 279.867 315.955 282.860 312.177 C 284.506 310.098, 288.237 307.100, 291.151 305.514 C 295.835 302.965, 297.704 302.579, 307.299 302.184 C 317.687 301.756, 318.189 301.633, 319.075 299.303 C 321.505 292.912, 318.909 281.754, 313.688 276.153 C 310.133 272.339, 303.936 269.697, 297.097 269.079 L 290.694 268.500 289.313 264.502 C 288.554 262.304, 287.386 259.971, 286.717 259.318 C 284.684 257.336, 280.648 256.951, 277.887 258.477 M 217.009 330.489 C 216.225 331.434, 216.014 333.262, 216.433 335.493 L 217.092 339.007 211.796 336.916 C 203.594 333.678, 197.080 335.541, 192.956 342.304 C 188.509 349.598, 191.017 355.505, 202.303 364.318 C 207.010 367.993, 211.012 371, 211.197 371 C 211.382 371, 211.581 369.208, 211.638 367.019 C 211.827 359.838, 219.639 347.511, 226.929 342.890 L 229.358 341.351 225.606 335.175 C 221.765 328.851, 219.426 327.577, 217.009 330.489" stroke="none" fill="#f9c4c0" fill-rule="evenodd"/><path d="M 99 168.335 C 99 168.559, 104.513 173.463, 111.250 179.234 C 126.827 192.576, 131.605 197.530, 136.203 205.106 C 142.913 216.162, 144.362 222.262, 144.965 242 L 145.500 259.500 151.407 259.805 C 155.456 260.013, 157.575 259.699, 158.142 258.805 C 158.597 258.087, 158.988 249.850, 159.012 240.500 C 159.035 231.150, 159.464 219.266, 159.964 214.090 L 160.874 204.680 155.856 190.697 C 153.096 183.006, 149.712 175.011, 148.336 172.931 C 145.989 169.385, 143.291 167.375, 142.261 168.406 C 142.011 168.655, 142.900 174.516, 144.236 181.430 C 145.572 188.343, 146.474 194, 146.240 194 C 146.006 194, 136.294 188.668, 124.657 182.152 C 99.894 168.284, 99 167.803, 99 168.335 M 143 317 L 143 328 150.361 328 L 157.721 328 158.352 322.750 C 159.155 316.068, 159.172 309.612, 158.393 307.582 C 157.915 306.337, 156.212 306, 150.393 306 L 143 306 143 317" stroke="none" fill="#78d7a6" fill-rule="evenodd"/><path d="M 93.889 160.335 C 87.491 166.655, 87.487 166.660, 85.948 174.500 C 84.816 180.262, 86.012 185.014, 94.457 208.305 C 98.605 219.747, 102 229.711, 102 230.448 C 102 231.184, 101.325 232.045, 100.500 232.362 C 98.755 233.031, 98.651 233.951, 99.936 237.331 L 100.872 239.793 105.605 237.396 C 111.258 234.534, 114.167 234.428, 119.500 236.890 C 125.355 239.592, 127.905 242.927, 130.412 251.158 C 132.531 258.120, 132.812 258.516, 135.824 258.813 C 137.571 258.986, 139 258.784, 139 258.365 C 139 257.946, 137.854 253.845, 136.453 249.252 C 132.484 236.241, 125.973 230.383, 114.046 229.094 L 108.553 228.500 100.276 205.514 C 95.543 192.368, 92 180.944, 92 178.829 C 92 174.282, 93.545 169.914, 95.743 168.245 C 96.754 167.477, 97.630 164.857, 98.001 161.495 C 98.333 158.473, 98.532 156, 98.442 156 C 98.351 156, 96.303 157.951, 93.889 160.335 M 142 161.524 C 142 164.409, 142.889 166.179, 146.196 169.884 C 149.838 173.966, 151.537 177.738, 159.091 198.522 L 167.791 222.460 165.395 225.307 C 160.821 230.743, 162.701 239.382, 169.604 244.647 C 172.493 246.850, 174.301 247.408, 178.686 247.449 C 183.635 247.495, 184.441 247.187, 187.080 244.234 C 189.479 241.551, 190 240.079, 190 235.987 C 190 231.658, 189.521 230.476, 186.342 226.957 C 183.891 224.244, 181.261 222.527, 178.373 221.755 C 176.001 221.120, 173.786 219.904, 173.451 219.051 C 173.115 218.198, 169.454 208.050, 165.314 196.500 C 155.686 169.636, 153.730 166.091, 145.250 160.143 L 142 157.864 142 161.524 M 47.250 328.742 C 50.962 328.934, 57.038 328.934, 60.750 328.742 C 64.463 328.549, 61.425 328.392, 54 328.392 C 46.575 328.392, 43.538 328.549, 47.250 328.742 M 186.280 328.736 C 188.909 328.943, 192.959 328.940, 195.280 328.731 C 197.601 328.521, 195.450 328.352, 190.500 328.355 C 185.550 328.358, 183.651 328.530, 186.280 328.736 M 480.232 351 C 480.232 352.925, 480.438 353.712, 480.689 352.750 C 480.941 351.788, 480.941 350.212, 480.689 349.250 C 480.438 348.288, 480.232 349.075, 480.232 351 M 218 378.500 C 221.543 382.075, 224.667 385, 224.942 385 C 225.217 385, 222.543 382.075, 219 378.500 C 215.457 374.925, 212.333 372, 212.058 372 C 211.783 372, 214.457 374.925, 218 378.500" stroke="none" fill="#5592ff" fill-rule="evenodd"/><path d="M 210.674 52.659 C 210.304 53.030, 210 71.918, 210 94.631 C 210 141.432, 209.337 138, 218.382 138 L 222.895 138 223.198 143.241 C 223.411 146.938, 223.942 148.564, 225 148.762 C 225.825 148.916, 229.875 146.567, 234 143.541 L 241.500 138.041 285 138.005 C 308.925 137.985, 329.068 137.609, 329.761 137.169 C 330.750 136.541, 330.966 127.318, 330.761 94.434 L 330.500 52.500 270.924 52.242 C 238.158 52.100, 211.045 52.288, 210.674 52.659 M 242.707 89.016 C 240.705 90.591, 240 92.038, 240 94.573 C 240 101.312, 247.323 104.478, 251.826 99.686 C 257.841 93.282, 249.577 83.612, 242.707 89.016 M 265.923 89.923 C 263.402 92.444, 262.921 93.579, 263.441 95.775 C 264.875 101.837, 271.264 103.827, 275.545 99.545 C 279.827 95.264, 277.837 88.875, 271.775 87.441 C 269.579 86.921, 268.444 87.402, 265.923 89.923 M 290.832 88.529 C 285.497 91.426, 286.566 100.100, 292.440 101.574 C 300.781 103.668, 305.538 92.398, 297.966 88.483 C 294.504 86.692, 294.211 86.694, 290.832 88.529 M 138.750 121.743 C 142.738 121.932, 149.262 121.932, 153.250 121.743 C 157.238 121.553, 153.975 121.397, 146 121.397 C 138.025 121.397, 134.762 121.553, 138.750 121.743 M 62.994 167.870 C 54.920 170.533, 46.505 177.419, 42.667 184.500 C 40.627 188.266, 40.482 190.040, 40.189 214.819 L 39.878 241.138 48.975 262.319 C 60.693 289.603, 61.658 291.493, 65.685 295.028 C 73.602 301.980, 82.408 303.913, 106.417 303.973 C 112.421 303.988, 117.115 304.218, 116.849 304.485 C 116.582 304.751, 112.794 305.447, 108.432 306.031 C 98.897 307.308, 90.170 310.044, 83.787 313.758 C 78.392 316.896, 68 325.652, 68 327.058 C 68 327.630, 82.465 328, 104.883 328 L 141.767 328 142.370 325.750 C 142.701 324.512, 142.979 319.325, 142.986 314.222 L 143 304.944 149.250 305.449 C 152.688 305.727, 159.438 306.213, 164.250 306.529 L 173 307.104 173 285.789 L 173 264.473 181.865 259.737 C 191.707 254.477, 192.550 254.282, 195.171 256.655 C 196.933 258.250, 197 257.865, 197 246.082 C 197 234.974, 197.160 233.884, 198.750 234.189 C 200.320 234.491, 200.528 236.245, 200.774 251.263 L 201.048 268 203.708 268 C 205.172 268, 208.362 268.965, 210.798 270.144 C 221.840 275.490, 224.659 291.305, 216.186 300.376 C 213.160 303.616, 206.637 306.945, 203.250 306.978 C 201.236 306.998, 201 307.498, 200.999 311.750 L 200.998 316.500 222.249 316.198 C 233.937 316.031, 248.668 315.581, 254.985 315.198 L 266.470 314.500 268.607 293.500 C 269.782 281.950, 270.646 272.382, 270.527 272.239 C 270.408 272.095, 258.117 270.059, 243.215 267.715 C 228.312 265.370, 215.916 263.238, 215.667 262.976 C 215.419 262.714, 214.688 250.575, 214.043 236 C 213.347 220.281, 212.279 207.102, 211.418 203.605 C 207.653 188.309, 195.814 175.385, 180.500 169.851 C 175.785 168.147, 172.488 167.713, 165.101 167.824 C 159.932 167.901, 155.514 168.153, 155.284 168.383 C 155.054 168.613, 155.944 170.983, 157.261 173.651 C 158.579 176.318, 162.961 187.789, 167 199.143 L 174.343 219.786 178.127 220.920 C 186.299 223.368, 191.555 230.380, 190.727 237.728 C 189.292 250.457, 173.233 252.229, 164.562 240.615 C 161.562 236.597, 161.679 228.035, 164.779 224.735 L 167.059 222.309 164.188 214.503 L 161.317 206.698 160.158 216.885 C 159.521 222.488, 159 234.424, 159 243.411 L 159 259.750 162.125 260.375 C 163.844 260.719, 166.994 261, 169.125 261 C 171.903 261, 173 261.425, 173 262.500 C 173 264.412, 169.265 264.411, 136.500 262.495 C 122.750 261.691, 109.661 261.026, 107.414 261.017 L 103.328 261 101.664 255.250 C 100.749 252.088, 97.594 241.309, 94.652 231.299 C 90.571 217.411, 89.614 212.978, 90.616 212.594 C 91.539 212.240, 92.904 215.210, 95.214 222.598 C 98.160 232.019, 98.670 232.971, 100.146 231.803 C 101.643 230.618, 101.035 228.412, 93.452 207.500 C 84.827 183.713, 83.489 177.104, 85.975 170.565 C 86.901 168.130, 86.781 168, 83.626 168 C 81.798 168, 76.971 167.785, 72.901 167.522 C 68.830 167.258, 64.372 167.415, 62.994 167.870 M 94.526 170.950 C 91.614 176.581, 92.573 181.927, 100.422 203.809 C 104.504 215.189, 108.129 225.227, 108.477 226.116 C 108.906 227.210, 110.828 227.909, 114.428 228.280 C 125.160 229.388, 133.687 236.496, 136.535 246.709 C 139.724 258.144, 140.103 259, 141.977 259 C 143.603 259, 143.872 257.684, 144.482 246.750 C 145.229 233.357, 144.208 224.304, 140.976 215.666 C 138.753 209.725, 132.975 199.723, 129.680 196.112 C 126.343 192.456, 97.801 168, 96.871 168 C 96.420 168, 95.365 169.328, 94.526 170.950 M 106.500 237.331 C 100.973 239.841, 100.672 240.927, 103.161 249.388 C 105.739 258.148, 104.599 257.596, 121.659 258.351 L 131.818 258.801 130.007 252.271 C 127.091 241.753, 122.384 236.973, 114.324 236.344 C 111.570 236.129, 108.213 236.552, 106.500 237.331 M 193.500 266.068 L 190.500 267.989 193.750 267.995 C 196.335 267.999, 197 267.591, 197 266 C 197 264.900, 196.887 264.033, 196.750 264.073 C 196.613 264.113, 195.150 265.011, 193.500 266.068 M 358.572 298.531 C 357.707 299.850, 357 301.170, 357 301.465 C 357 301.759, 369.162 302, 384.026 302 L 411.051 302 409.484 298.970 L 407.917 295.940 384.031 296.036 L 360.144 296.131 358.572 298.531 M 159 318.438 L 159 328 170 328 C 177.210 328, 181 327.628, 181 326.920 C 181 324.930, 169.559 314.523, 164.250 311.683 L 159 308.875 159 318.438" stroke="none" fill="#f1f7ff" fill-rule="evenodd"/><path d="M 242.707 89.016 C 240.705 90.591, 240 92.038, 240 94.573 C 240 101.312, 247.323 104.478, 251.826 99.686 C 257.841 93.282, 249.577 83.612, 242.707 89.016 M 265.923 89.923 C 263.402 92.444, 262.921 93.579, 263.441 95.775 C 264.875 101.837, 271.264 103.827, 275.545 99.545 C 279.827 95.264, 277.837 88.875, 271.775 87.441 C 269.579 86.921, 268.444 87.402, 265.923 89.923 M 290.832 88.529 C 285.497 91.426, 286.566 100.100, 292.440 101.574 C 300.781 103.668, 305.538 92.398, 297.966 88.483 C 294.504 86.692, 294.211 86.694, 290.832 88.529 M 92.252 178.500 C 92.263 180.700, 92.468 181.482, 92.707 180.238 C 92.946 178.994, 92.937 177.194, 92.687 176.238 C 92.437 175.282, 92.241 176.300, 92.252 178.500 M 160.232 211 C 160.232 212.925, 160.438 213.713, 160.689 212.750 C 160.941 211.787, 160.941 210.213, 160.689 209.250 C 160.438 208.287, 160.232 209.075, 160.232 211 M 90.397 212.613 C 89.675 212.911, 91.142 219.356, 94.648 231.284 C 97.592 241.303, 100.749 252.088, 101.664 255.250 L 103.328 261 107.414 261.017 C 109.661 261.026, 122.750 261.691, 136.500 262.495 C 168.598 264.372, 173 264.389, 173 262.637 C 173 261.677, 171.041 261.117, 166.374 260.742 C 162.397 260.423, 159.405 259.668, 158.889 258.855 C 158.214 257.790, 158.027 257.777, 158.015 258.798 C 158.004 259.753, 156.353 260.017, 151.750 259.798 L 145.500 259.500 144.923 253 L 144.345 246.500 144.173 252.750 C 144.020 258.276, 143.768 259, 142 259 C 140.900 259, 139.993 258.438, 139.985 257.750 C 139.973 256.807, 139.764 256.825, 139.130 257.824 C 138.469 258.866, 135.447 259.015, 124.895 258.527 C 104.113 257.564, 105.772 258.262, 103.161 249.388 C 101.310 243.097, 101.148 241.511, 102.213 240.147 C 103.352 238.690, 103.305 238.652, 101.809 239.823 C 100.306 241, 100.045 240.758, 99.460 237.638 C 99.098 235.709, 99.141 233.581, 99.555 232.910 C 99.994 232.201, 99.892 231.948, 99.312 232.307 C 98.736 232.663, 96.972 228.512, 95.128 222.461 C 93.375 216.708, 91.841 212.036, 91.720 212.079 C 91.599 212.122, 91.004 212.363, 90.397 212.613 M 110.750 228.706 C 111.987 228.944, 114.013 228.944, 115.250 228.706 C 116.487 228.467, 115.475 228.272, 113 228.272 C 110.525 228.272, 109.513 228.467, 110.750 228.706 M 197.567 234.891 C 197.228 235.440, 197.010 243.137, 197.082 251.997 C 197.198 266.363, 197.390 268.072, 198.856 267.789 C 200.302 267.511, 200.500 265.494, 200.500 251.070 C 200.500 239.528, 200.157 234.552, 199.342 234.281 C 198.705 234.068, 197.906 234.343, 197.567 234.891 M 40.030 285.250 L 40 328 53.257 328 L 66.513 328 72.784 322.125 C 82.745 312.793, 93.202 308.072, 108.432 306.032 C 112.794 305.448, 116.582 304.751, 116.849 304.485 C 117.115 304.218, 112.421 303.988, 106.417 303.973 C 88.028 303.927, 77.800 302.560, 71.926 299.363 C 65.566 295.902, 60.612 290.243, 58.106 283.579 C 55.887 277.676, 42.258 246.249, 40.948 244.014 C 40.422 243.116, 40.048 259.893, 40.030 285.250 M 370.750 302.747 C 378.038 302.918, 389.962 302.918, 397.250 302.747 C 404.538 302.577, 398.575 302.437, 384 302.437 C 369.425 302.437, 363.462 302.577, 370.750 302.747 M 158.172 307.017 C 158.416 307.749, 161.515 310.102, 165.058 312.246 C 172.195 316.565, 177.305 321.076, 179.793 325.250 C 181.382 327.917, 181.697 328, 190.216 328 L 199 328 199 322.500 C 199 319.475, 199.450 317, 200 317 C 200.550 317, 201 314.750, 201 312 L 201 307 185.647 307 C 177.202 307, 167.466 306.705, 164.011 306.343 C 159.016 305.821, 157.820 305.959, 158.172 307.017 M 158.252 324.500 C 158.263 326.700, 158.468 327.482, 158.707 326.238 C 158.946 324.994, 158.937 323.194, 158.687 322.238 C 158.437 321.282, 158.241 322.300, 158.252 324.500" stroke="none" fill="#c7dafa" fill-rule="evenodd"/><path d="M 37.226 329.578 C 36.088 330.409, 22.194 379.488, 22.032 383.250 C 22.015 383.663, 67.321 384, 122.712 384 L 223.425 384 218.462 378.918 C 215.733 376.123, 208.933 370.294, 203.351 365.966 C 195.008 359.497, 192.904 357.315, 191.523 353.698 C 189.410 348.167, 190.627 342.690, 194.872 338.622 C 199.093 334.579, 204.198 333.705, 210.726 335.909 L 216.035 337.701 215.428 334.470 C 214.956 331.954, 215.255 330.935, 216.777 329.869 C 218.438 328.706, 205.188 328.500, 128.718 328.500 C 65.924 328.500, 38.257 328.826, 37.226 329.578 M 221.693 328.643 C 222.349 328.910, 224.592 332.045, 226.678 335.610 C 230.397 341.968, 230.760 342.261, 245.795 351.046 C 254.224 355.971, 261.275 360, 261.463 360 C 261.651 360, 262.255 358.762, 262.806 357.250 C 263.357 355.738, 266.302 348.538, 269.352 341.250 L 274.896 328 247.698 328.079 C 232.739 328.122, 221.037 328.376, 221.693 328.643 M 481 352.274 C 481 353.709, 481.468 355.171, 482.040 355.525 C 482.722 355.946, 482.846 355.192, 482.399 353.334 C 481.479 349.502, 481 349.140, 481 352.274" stroke="none" fill="#387094" fill-rule="evenodd"/><path d="M 337.079 227.750 C 337.166 232.978, 337.651 232.555, 338.227 226.750 C 338.431 224.688, 338.239 223, 337.799 223 C 337.360 223, 337.036 225.137, 337.079 227.750 M 22 393.943 C 22 403.085, 22.179 404.012, 24.223 405.443 C 26.201 406.829, 38.506 407, 136.456 407 L 246.467 407 235 395.500 L 223.533 384 122.766 384 L 22 384 22 393.943" stroke="none" fill="#315a79" fill-rule="evenodd"/><path d="M 98.232 111 C 98.232 112.925, 98.438 113.713, 98.689 112.750 C 98.941 111.787, 98.941 110.213, 98.689 109.250 C 98.438 108.287, 98.232 109.075, 98.232 111 M 107 137.313 C 107 137.485, 108.463 138.948, 110.250 140.563 L 113.500 143.500 110.563 140.250 C 107.825 137.221, 107 136.540, 107 137.313 M 351.929 344.367 C 341.352 347.219, 331.926 355.607, 327.783 365.853 L 325.500 371.500 325.500 427.500 L 325.500 483.500 407.750 483.756 L 490 484.012 490 428.043 C 490 373.344, 489.952 371.946, 487.865 366.369 C 484.020 356.093, 473.696 347.084, 462.830 344.522 C 454.409 342.537, 359.211 342.404, 351.929 344.367" stroke="none" fill="#fcba97" fill-rule="evenodd"/><path d="M 98.409 136.500 C 98.408 145.850, 98.558 149.810, 98.743 145.299 C 98.928 140.789, 98.929 133.139, 98.745 128.299 C 98.562 123.460, 98.410 127.150, 98.409 136.500 M 467 343.917 C 467 345.145, 467.646 346, 468.573 346 C 469.505 346, 470.015 345.320, 469.823 344.333 C 469.337 341.824, 467 341.480, 467 343.917 M 342.882 345.381 C 333.913 348.586, 326.515 355.539, 322.135 364.880 L 319.500 370.500 319.247 406 C 319.107 425.525, 318.882 451.063, 318.747 462.751 L 318.500 484.002 321.718 484.001 L 324.937 484 325.218 427.250 L 325.500 370.500 328.374 364.278 C 331.677 357.128, 339.634 348.976, 346.234 345.980 C 351.067 343.787, 348.585 343.343, 342.882 345.381" stroke="none" fill="#f99072" fill-rule="evenodd"/><path d="M 98.272 161 C 98.272 163.475, 98.467 164.488, 98.706 163.250 C 98.944 162.012, 98.944 159.988, 98.706 158.750 C 98.467 157.512, 98.272 158.525, 98.272 161 M 141.272 162 C 141.272 164.475, 141.467 165.488, 141.706 164.250 C 141.944 163.012, 141.944 160.988, 141.706 159.750 C 141.467 158.512, 141.272 159.525, 141.272 162 M 111.250 235.689 C 112.213 235.941, 113.787 235.941, 114.750 235.689 C 115.713 235.438, 114.925 235.232, 113 235.232 C 111.075 235.232, 110.287 235.438, 111.250 235.689 M 299.461 303.048 C 296.690 303.423, 293.036 304.447, 291.341 305.323 C 286.629 307.761, 279.739 316.047, 277.407 322.083 C 271.810 336.570, 266.382 350.052, 264.065 355.224 L 261.500 360.948 245.568 351.543 C 230.387 342.580, 229.512 342.201, 226.993 343.504 C 220.066 347.086, 211.994 360.048, 212.049 367.500 C 212.078 371.367, 212.883 372.316, 236.290 396.094 C 258.666 418.825, 260.954 420.858, 266.500 422.942 C 277.412 427.041, 292.912 424.293, 299.405 417.108 C 300.453 415.949, 301.690 415, 302.155 415 C 302.620 415, 303 430.075, 303 448.500 L 303 482 310.968 482 L 318.936 482 319.218 425.750 L 319.500 369.500 322.170 363.804 C 325.571 356.549, 331.982 350.137, 339.554 346.419 L 345.500 343.500 403.500 343.500 C 435.400 343.500, 462.738 343.846, 464.250 344.269 C 466.426 344.878, 467 344.704, 467 343.436 C 467 341.079, 469.446 342.287, 469.820 344.828 C 469.995 346.023, 470.494 347, 470.929 347 C 471.363 347, 473.699 348.744, 476.120 350.875 L 480.522 354.749 480.483 343.125 C 480.450 333.403, 480.069 330.559, 478.151 325.753 C 474.957 317.747, 467.462 309.845, 459.207 305.781 L 452.570 302.514 378.535 302.439 C 337.816 302.399, 302.233 302.672, 299.461 303.048 M 85.816 328.749 C 96.440 328.911, 113.540 328.911, 123.816 328.748 C 134.092 328.586, 125.400 328.453, 104.500 328.454 C 83.600 328.454, 75.192 328.587, 85.816 328.749 M 164.789 328.741 C 168.248 328.937, 173.648 328.936, 176.789 328.738 C 179.930 328.540, 177.100 328.380, 170.500 328.382 C 163.900 328.384, 161.330 328.546, 164.789 328.741" stroke="none" fill="#79affe" fill-rule="evenodd"/><path d="M 100.250 81.689 C 101.213 81.941, 102.787 81.941, 103.750 81.689 C 104.713 81.438, 103.925 81.232, 102 81.232 C 100.075 81.232, 99.287 81.438, 100.250 81.689 M 123.206 82.741 C 126.895 82.932, 133.195 82.934, 137.206 82.743 C 141.218 82.553, 138.200 82.396, 130.500 82.395 C 122.800 82.393, 119.518 82.549, 123.206 82.741 M 98.286 90.500 C 98.294 93.250, 98.488 94.256, 98.718 92.736 C 98.947 91.216, 98.941 88.966, 98.704 87.736 C 98.467 86.506, 98.279 87.750, 98.286 90.500 M 173.397 101 C 173.397 108.975, 173.553 112.237, 173.743 108.250 C 173.932 104.263, 173.932 97.737, 173.743 93.750 C 173.553 89.763, 173.397 93.025, 173.397 101 M 141.272 154 C 141.272 156.475, 141.467 157.488, 141.706 156.250 C 141.944 155.012, 141.944 152.988, 141.706 151.750 C 141.467 150.512, 141.272 151.525, 141.272 154 M 80.264 167.718 C 81.784 167.947, 84.034 167.941, 85.264 167.704 C 86.494 167.467, 85.250 167.279, 82.500 167.286 C 79.750 167.294, 78.744 167.488, 80.264 167.718 M 156.250 167.716 C 157.762 167.945, 160.238 167.945, 161.750 167.716 C 163.262 167.487, 162.025 167.300, 159 167.300 C 155.975 167.300, 154.738 167.487, 156.250 167.716 M 146.750 328.732 C 149.088 328.943, 152.912 328.943, 155.250 328.732 C 157.588 328.522, 155.675 328.349, 151 328.349 C 146.325 328.349, 144.412 328.522, 146.750 328.732 M 234.982 395.250 C 240.747 401.163, 245.585 406, 245.732 406 C 246.454 406, 245.235 404.718, 235.250 394.982 L 224.500 384.500 234.982 395.250" stroke="none" fill="#5073ae" fill-rule="evenodd"/><path d="M 174.250 263.662 C 173.294 264.048, 173.054 269.261, 173.229 285.833 L 173.457 307.500 173.749 286.577 C 173.936 273.234, 174.441 265.174, 175.143 264.327 C 176.310 262.921, 176.232 262.863, 174.250 263.662 M 373.250 295.746 C 379.163 295.923, 388.837 295.923, 394.750 295.746 C 400.663 295.569, 395.825 295.425, 384 295.425 C 372.175 295.425, 367.337 295.569, 373.250 295.746" stroke="none" fill="#f4d6ce" fill-rule="evenodd"/></svg>