<svg xmlns="http://www.w3.org/2000/svg" width="512" height="512" viewBox="0 0 512 512" version="1.1"><path d="M 292.762 76.707 C 294.006 76.946, 295.806 76.937, 296.762 76.687 C 297.718 76.437, 296.700 76.241, 294.500 76.252 C 292.300 76.263, 291.518 76.468, 292.762 76.707 M 287.549 95.091 C 280.709 101.097, 280.583 111.946, 287.304 116.044 C 291.169 118.400, 293.164 118.483, 297.094 116.451 C 305.442 112.134, 306.568 97.413, 298.855 93.425 C 294.618 91.234, 291.402 91.708, 287.549 95.091 M 320.437 137.250 L 317.500 140.500 320.750 137.563 C 323.779 134.825, 324.460 134, 323.687 134 C 323.515 134, 322.052 135.463, 320.437 137.250 M 228.776 143.733 C 231.128 143.945, 234.728 143.942, 236.776 143.727 C 238.824 143.512, 236.900 143.339, 232.500 143.343 C 228.100 143.346, 226.424 143.522, 228.776 143.733 M 465.500 159.892 C 451.150 163.591, 443.843 178.782, 450.148 191.806 L 452.296 196.243 457.338 195.646 C 463.991 194.858, 472.090 190.800, 476.080 186.256 C 480.876 180.793, 484.178 172.900, 483.809 167.781 C 483.537 164.007, 483.086 163.298, 480 161.795 C 475.666 159.684, 469.465 158.870, 465.500 159.892 M 35.904 180.352 C 21.935 184.185, 15.518 199.186, 22.206 212.379 L 24.172 216.258 29.201 215.663 C 31.967 215.335, 36.281 214.074, 38.788 212.861 C 47.868 208.465, 54.479 199.197, 55.663 189.201 L 56.258 184.172 52.379 182.206 C 47.037 179.498, 41.349 178.858, 35.904 180.352 M 226.005 257.231 C 207.822 288.900, 204.195 293.768, 196.998 296.167 L 192.856 297.548 195.017 300.294 C 198.212 304.356, 202.636 306.312, 207.234 305.695 C 215.409 304.599, 217.340 302.268, 233.907 273.501 C 242.381 258.787, 249.606 245.118, 249.963 243.124 C 251.051 237.043, 248.044 228.515, 244.381 227.294 C 243.833 227.111, 235.564 240.583, 226.005 257.231 M 141.376 256.670 C 142.127 258.036, 108.188 317.150, 104.357 321.149 C 102.931 322.637, 99.551 324.807, 96.845 325.971 L 91.926 328.087 93.937 330.912 C 98.070 336.716, 107.890 337.610, 114.244 332.762 C 116.455 331.074, 122.575 321.489, 133.317 302.888 L 149.134 275.500 148.768 269.217 C 148.432 263.458, 148.082 262.625, 144.567 259.217 C 142.459 257.173, 141.023 256.026, 141.376 256.670 M 433 292.313 C 433 292.485, 434.462 293.948, 436.250 295.563 L 439.500 298.500 436.563 295.250 C 433.825 292.221, 433 291.540, 433 292.313 M 397.378 312.437 C 391.340 315.065, 389.300 321.313, 392.636 326.960 C 395.025 331.005, 399.073 333, 404.889 333 C 417.974 333, 420.725 318.411, 408.672 312.938 C 403.746 310.702, 401.586 310.606, 397.378 312.437 M 317.453 384.250 L 313.500 388.500 317.750 384.547 C 321.702 380.871, 322.460 380, 321.703 380 C 321.540 380, 319.627 381.913, 317.453 384.250 M 160.340 405.396 C 154.372 407.318, 150.396 410.468, 147.325 415.709 C 143.797 421.729, 143.500 430.585, 146.627 436.500 C 148.672 440.367, 148.904 440.496, 153.621 440.377 C 166.488 440.054, 178.713 428.185, 180.566 414.218 L 181.236 409.161 177.345 407.176 C 172.026 404.462, 165.396 403.769, 160.340 405.396 M 299.286 422.500 C 299.294 425.250, 299.488 426.256, 299.718 424.736 C 299.947 423.216, 299.941 420.966, 299.704 419.736 C 299.467 418.506, 299.279 419.750, 299.286 422.500" stroke="none" fill="#75cdd5" fill-rule="evenodd"/><path d="M 304.232 104 C 304.232 105.925, 304.438 106.713, 304.689 105.750 C 304.941 104.787, 304.941 103.213, 304.689 102.250 C 304.438 101.287, 304.232 102.075, 304.232 104 M 176.264 151.718 C 177.784 151.947, 180.034 151.941, 181.264 151.704 C 182.494 151.467, 181.250 151.279, 178.500 151.286 C 175.750 151.294, 174.744 151.488, 176.264 151.718 M 284.264 151.718 C 285.784 151.947, 288.034 151.941, 289.264 151.704 C 290.494 151.467, 289.250 151.279, 286.500 151.286 C 283.750 151.294, 282.744 151.488, 284.264 151.718 M 483.843 167.498 C 484.260 172.734, 480.977 180.679, 476.104 186.228 C 472.174 190.705, 464.262 194.764, 457.792 195.622 C 453.029 196.254, 452.967 196.306, 454.716 198.240 C 459.850 203.918, 472.029 205.978, 479.500 202.433 C 490.722 197.108, 495.785 184.345, 491.046 173.328 C 489.841 170.527, 487.649 167.079, 486.174 165.667 L 483.493 163.099 483.843 167.498 M 55.693 188.946 C 54.034 202.951, 43.382 213.666, 29.069 215.726 L 23.661 216.504 27.521 219.448 C 42.703 231.028, 64.200 220.839, 64.200 202.063 C 64.200 195.906, 62.512 191.114, 58.744 186.581 L 56.319 183.662 55.693 188.946 M 149.232 270 C 149.232 271.925, 149.438 272.712, 149.689 271.750 C 149.941 270.788, 149.941 269.212, 149.689 268.250 C 149.438 267.288, 149.232 268.075, 149.232 270 M 402.762 333.707 C 404.006 333.946, 405.806 333.937, 406.762 333.687 C 407.718 333.437, 406.700 333.241, 404.500 333.252 C 402.300 333.263, 401.518 333.468, 402.762 333.707 M 180.519 414.719 C 178.496 428.211, 167.312 439.110, 153.854 440.704 C 149.173 441.258, 149.024 441.369, 150.606 443.117 C 155.645 448.685, 167.699 450.842, 175.500 447.571 C 189.484 441.708, 193.480 424.175, 183.662 411.750 C 181.638 409.189, 181.301 409.508, 180.519 414.719" stroke="none" fill="#2abcc8" fill-rule="evenodd"/><path d="M 227 2 C 225.224 3.776, 225 5.333, 225 15.920 L 225 27.841 218.250 28.454 C 212.614 28.965, 190.438 31.781, 187.678 32.335 C 187.226 32.426, 185.021 27.623, 182.776 21.661 C 179.259 12.316, 178.269 10.619, 175.593 9.343 C 171.727 7.499, 167.886 8.719, 165.345 12.596 C 163.495 15.420, 163.537 15.600, 170.762 35.742 C 171.007 36.424, 170.373 37.273, 169.354 37.627 C 160.452 40.717, 151.458 44.769, 146.192 48.059 C 142.723 50.226, 139.582 52, 139.213 52 C 138.844 52, 134.932 48.434, 130.521 44.076 C 123.035 36.682, 121.202 35.588, 116.789 35.885 C 113.975 36.074, 111 40.084, 111 43.689 C 111 46.495, 112.221 48.221, 119 55 C 123.400 59.400, 127 63.395, 127 63.879 C 127 64.362, 125.443 67.343, 123.540 70.504 C 120.220 76.017, 116.864 84.874, 115.490 91.750 L 114.841 95 103.855 95 C 92.888 95, 89.710 95.750, 87.282 98.913 C 85.264 101.542, 85.792 105.883, 88.455 108.545 C 90.786 110.877, 91.507 111, 102.818 111 L 114.727 111 116.032 117.152 C 117.289 123.072, 123.140 136.350, 126.321 140.500 C 127.769 142.390, 127.390 142.974, 119.427 151.121 C 109.923 160.844, 108.859 163.950, 113.455 168.545 C 117.779 172.870, 120.309 171.928, 130.099 162.348 L 138.941 153.695 142.743 156.211 C 149.326 160.568, 154.962 163.081, 162.347 164.953 L 169.500 166.766 170.019 178.799 C 170.578 191.773, 171.520 194.161, 176.582 195.431 C 179.396 196.137, 184.461 193.848, 185.379 191.455 C 185.720 190.565, 186 184.707, 186 178.437 C 186 167.437, 186.079 167.020, 188.250 166.515 C 189.488 166.228, 195.450 164.842, 201.500 163.435 C 207.550 162.029, 215.312 160.615, 218.750 160.294 L 225 159.711 225 170.774 C 225 176.858, 225.280 182.565, 225.621 183.455 C 226.539 185.848, 231.604 188.137, 234.418 187.431 C 239.496 186.157, 240.463 183.731, 240.858 171.273 L 241.224 159.747 247.362 160.376 C 250.738 160.722, 258.225 162.129, 264 163.502 C 269.775 164.876, 275.512 166.233, 276.750 166.519 C 278.939 167.024, 279 167.384, 279 179.850 C 279 192.487, 279.034 192.680, 281.496 193.998 C 285.250 196.007, 289.797 195.647, 292.306 193.141 C 294.255 191.193, 294.556 189.599, 295 178.857 L 295.500 166.766 302.638 164.957 C 309.799 163.141, 318.057 159.467, 323.317 155.756 L 326.134 153.769 334.938 162.384 C 344.505 171.746, 346.680 172.613, 351.365 168.927 C 353.363 167.356, 354 165.961, 354 163.155 C 354 159.847, 353.114 158.574, 345.610 151.110 L 337.221 142.764 339.636 139.205 C 342.928 134.353, 343.588 131.137, 341.904 128.140 C 340.288 125.266, 335.818 123.739, 332.599 124.962 C 331.384 125.424, 328.523 128.274, 326.242 131.295 C 318.421 141.655, 308.510 147.942, 295.746 150.642 C 287.389 152.409, 282.591 152.050, 267.835 148.553 C 262.151 147.206, 253.726 145.569, 249.114 144.917 C 237.910 143.331, 216.083 144.306, 204.500 146.908 C 180.753 152.244, 179.946 152.349, 172.002 151.140 C 143.124 146.744, 124.353 119.101, 131.531 91.542 C 135.478 76.387, 144.801 65.581, 160.500 57.960 C 177.112 49.897, 195.929 45.502, 219.500 44.180 C 259.715 41.925, 298.366 50.424, 317.608 65.753 C 327.362 73.523, 335 88.643, 335 100.182 C 335 104.344, 335.476 105.630, 337.923 108.077 L 340.846 111 357.469 111 C 373.784 111, 374.136 110.955, 376.545 108.545 C 379.524 105.567, 379.750 101.149, 377.091 97.861 C 375.300 95.647, 374.410 95.480, 362.775 95.172 L 350.368 94.845 349.187 89.125 C 348.126 83.988, 341.987 70.198, 338.799 65.792 C 337.728 64.312, 338.660 62.961, 345.782 55.664 C 352.425 48.858, 354 46.662, 354 44.204 C 354 39.647, 353.019 37.912, 349.644 36.492 C 345.221 34.633, 342.655 35.962, 333.865 44.665 L 326.229 52.225 319.301 48.110 C 315.491 45.846, 308.352 42.376, 303.437 40.399 C 298.521 38.422, 294.377 36.688, 294.228 36.546 C 294.078 36.405, 295.540 32.135, 297.478 27.059 C 301.640 16.151, 301.730 14.960, 298.658 11.389 C 295.792 8.057, 290.845 7.711, 287.918 10.638 C 286.834 11.722, 284.229 17.085, 282.130 22.555 C 280.031 28.025, 277.818 32.396, 277.212 32.268 C 275.353 31.877, 252.848 29.043, 246.750 28.432 L 241 27.856 241 18.077 C 241 7.483, 239.826 2.512, 236.961 0.979 C 233.942 -0.637, 229.145 -0.145, 227 2 M 284 79.079 C 278.161 81.719, 273.472 86.270, 270.175 92.500 C 267.913 96.773, 267.528 98.736, 267.526 106 C 267.524 115.567, 269.246 120.049, 275.170 125.889 C 279.824 130.477, 283.427 132.138, 290.024 132.736 C 314.520 134.957, 329.323 104.281, 312.808 85.519 C 310.481 82.876, 306.760 79.887, 304.539 78.878 C 299.009 76.366, 289.800 76.456, 284 79.079 M 286.656 95.288 C 280.710 100.896, 280.445 110.673, 286.111 115.440 C 291.742 120.178, 299.408 117.919, 303.021 110.456 C 305.363 105.619, 305.487 103.102, 303.606 98.599 C 300.536 91.252, 292.583 89.699, 286.656 95.288 M 464.228 144.095 C 452.278 145.664, 441.238 154.056, 435.674 165.799 C 432.802 171.864, 432.500 173.402, 432.500 182 C 432.500 190.214, 432.863 192.274, 435.180 197.218 C 438.922 205.202, 445.945 212.355, 453.873 216.259 C 459.900 219.226, 461.262 219.500, 469.978 219.500 C 478.541 219.500, 480.155 219.190, 486.003 216.418 C 493.959 212.648, 500.945 205.856, 504.644 198.295 C 508.568 190.275, 509.176 177.117, 506.011 168.718 C 499.500 151.440, 482.880 141.645, 464.228 144.095 M 460.105 161.635 C 438.866 172.219, 446.265 204.019, 469.992 204.133 C 486.530 204.212, 497.419 188.143, 490.976 173.167 C 485.616 160.706, 472.100 155.658, 460.105 161.635 M 27.593 166.419 C 17.119 170.826, 9.938 178.239, 5.989 188.718 C 2.828 197.106, 3.433 210.276, 7.345 218.274 C 11.166 226.083, 17.720 232.499, 25.775 236.314 C 31.869 239.201, 33.393 239.500, 42.021 239.500 C 50.737 239.500, 52.099 239.226, 58.126 236.259 C 66.055 232.355, 73.078 225.203, 76.820 217.218 C 79.137 212.274, 79.500 210.214, 79.500 202 C 79.500 193.395, 79.200 191.866, 76.314 185.775 C 72.495 177.713, 66.082 171.165, 58.251 167.334 C 53.475 164.998, 51.043 164.504, 43.033 164.243 C 34.708 163.973, 32.751 164.248, 27.593 166.419 M 32.500 181.314 C 26.396 184.270, 23.758 187.033, 20.927 193.433 C 16.871 202.602, 20.309 214.493, 28.687 220.269 C 45.600 231.931, 67.642 217.522, 63.859 197.277 C 61.227 183.185, 45.338 175.097, 32.500 181.314 M 229.734 210.030 C 223.962 211.479, 218.794 214.441, 214.449 218.789 C 209.940 223.301, 180.515 273.631, 177.807 281.462 C 171.938 298.438, 182.467 317.464, 199.713 321.044 C 209.991 323.178, 221.636 319.387, 228.818 311.568 C 232.510 307.548, 258.548 263.467, 263.448 252.940 C 266.482 246.423, 266.902 236.004, 264.425 228.734 C 262.365 222.687, 255.972 215.526, 249.877 212.438 C 244.376 209.650, 235.481 208.586, 229.734 210.030 M 228.753 227.279 C 224.055 230.123, 224.953 228.787, 207.387 259.073 C 194.704 280.941, 192.579 285.216, 192.208 289.612 C 191.674 295.925, 194.037 301.442, 198.420 304.114 C 204.006 307.520, 213.005 306.007, 217.659 300.879 C 222.024 296.070, 249.909 246.422, 250.571 242.281 C 251.450 236.787, 249.622 231.753, 245.404 228.050 C 240.957 224.146, 234.427 223.843, 228.753 227.279 M 377.217 240.115 C 376.062 240.543, 374.319 242.110, 373.344 243.598 C 371.619 246.231, 371.653 246.621, 374.627 257.973 L 377.683 269.642 371.173 273.018 C 367.550 274.896, 361.524 279.410, 357.585 283.196 C 353.691 286.938, 350.417 290, 350.309 290 C 350.201 290, 345.885 287.525, 340.718 284.500 C 335.552 281.475, 330.106 279, 328.617 279 C 323.154 279, 319.292 285.939, 321.969 290.942 C 322.502 291.938, 327.401 295.302, 332.856 298.418 L 342.774 304.082 338.393 317.901 C 335.983 325.501, 333.098 333.786, 331.980 336.311 L 329.949 340.904 320.636 335.452 C 314.986 332.144, 310.149 330, 308.336 330 C 301.875 330, 298.510 338.726, 303.250 343.191 C 304.488 344.357, 309.244 347.422, 313.820 350.001 L 322.141 354.692 316.111 362.096 C 312.794 366.168, 307.025 372.764, 303.291 376.753 L 296.500 384.007 287 378.533 C 276.561 372.519, 272.314 371.686, 269 375 C 266.439 377.561, 266.345 383.345, 268.824 385.824 C 269.828 386.828, 274.710 389.973, 279.673 392.813 L 288.697 397.977 286.700 403.739 C 285.360 407.606, 284.548 413.155, 284.231 420.618 L 283.758 431.737 273.629 434.438 C 268.058 435.923, 262.527 437.767, 261.337 438.535 C 258.314 440.487, 257.394 445.426, 259.464 448.585 C 262.449 453.141, 265.102 453.347, 277.272 449.969 C 286.052 447.531, 288.490 447.169, 289.145 448.201 C 289.599 448.915, 289.976 449.849, 289.985 450.275 C 290.027 452.428, 298.662 464.336, 303.495 468.907 L 308.999 474.112 303.500 483.457 C 297.050 494.416, 296.401 498.597, 300.635 501.927 C 306.468 506.516, 310.423 503.970, 317.500 491.070 C 321.722 483.373, 322.811 482.047, 324.500 482.543 C 325.600 482.867, 328.975 483.861, 332 484.751 C 335.276 485.716, 341.370 486.397, 347.069 486.435 L 356.638 486.500 359.468 497.399 C 362.545 509.251, 364.352 512, 369.066 512 C 377.360 512, 378.635 507.981, 374.923 493.548 C 372.150 482.769, 372.051 481, 374.225 481 C 376.018 481, 389.787 472.091, 396.051 466.878 L 401.835 462.065 408.167 469.425 C 416.924 479.602, 420.871 481.220, 425.545 476.545 C 429.804 472.287, 428.919 469.215, 420.606 459.394 L 413.212 450.658 418.106 444.777 C 425.295 436.139, 424.734 429.643, 416.688 428.337 C 412.971 427.734, 412.725 427.893, 406.197 435.110 C 389.499 453.571, 374.370 465.261, 362.385 468.963 C 354.619 471.361, 342.992 471.640, 335.368 469.610 C 311.513 463.258, 295.671 438.836, 299.934 414.984 C 301.906 403.949, 306.456 396.051, 318.072 383.500 C 336.434 363.660, 344.601 349.603, 352.639 324 C 357.619 308.137, 360.209 302.899, 366.379 296.205 C 384.935 276.074, 416.736 275.397, 435.813 294.728 C 446.084 305.136, 449.969 315.171, 449.988 331.343 C 450.010 349.684, 444.026 371.166, 432.430 394.366 C 425.689 407.856, 424.863 411.462, 427.750 414.803 C 430.841 418.380, 454.219 431.326, 457.657 431.365 C 463.329 431.428, 466.768 426.501, 464.864 421.039 C 464.026 418.635, 461.743 416.835, 453.903 412.396 C 448.456 409.312, 444 406.678, 444 406.542 C 444 406.406, 446.204 401.616, 448.897 395.897 C 451.591 390.179, 454.852 382.462, 456.144 378.750 C 457.436 375.038, 459.008 372, 459.637 372 C 460.265 372, 465.103 372.889, 470.386 373.977 C 481.035 376.168, 483.802 375.758, 486.536 371.585 C 488.624 368.399, 487.680 363.491, 484.589 361.467 C 483.359 360.661, 478.336 359.272, 473.426 358.381 C 468.517 357.490, 464.190 356.477, 463.812 356.131 C 463.434 355.784, 463.805 351, 464.638 345.500 C 465.470 340, 466.003 332.052, 465.822 327.838 L 465.493 320.176 475.997 317.441 C 488.245 314.252, 491 312.316, 491 306.898 C 491 304.035, 490.375 302.654, 488.365 301.073 C 485.037 298.455, 484.656 298.476, 472 301.969 C 466.225 303.563, 461.380 304.536, 461.233 304.131 C 459.723 299.978, 452.254 289.321, 447.250 284.179 C 443.813 280.648, 441 277.613, 441 277.436 C 441 277.258, 443.475 272.885, 446.500 267.718 C 449.525 262.552, 452 257.106, 452 255.617 C 452 250.154, 445.061 246.292, 440.057 248.969 C 439.061 249.503, 435.676 254.477, 432.536 260.024 C 429.229 265.863, 426.336 269.900, 425.663 269.614 C 419.130 266.835, 412.375 265.609, 403.319 265.558 L 393.138 265.500 390.392 255.160 C 388.881 249.472, 386.835 243.789, 385.845 242.530 C 383.808 239.941, 380.325 238.966, 377.217 240.115 M 122.500 242.850 C 114.544 246.627, 109.909 251.912, 101.215 267.119 C 93.915 279.886, 92.961 283.046, 95.425 286.296 C 97.121 288.531, 103.045 289.581, 105.760 288.128 C 106.880 287.529, 110.645 281.968, 114.128 275.770 C 117.611 269.571, 121.982 262.816, 123.840 260.757 C 129.437 254.558, 138.386 253.370, 144.320 258.037 C 147.883 260.840, 150.415 267.957, 149.539 272.707 C 148.631 277.635, 120.649 326.392, 115.997 331.154 C 108.262 339.071, 97.135 337.962, 92.398 328.802 C 90.567 325.263, 90.617 317.854, 92.500 313.346 C 94.499 308.561, 94.394 306.770, 91.927 303.635 C 90.513 301.837, 88.904 301, 86.862 301 C 82.287 301, 80.493 302.446, 77.916 308.210 C 74.692 315.420, 74.570 327.410, 77.652 334.122 C 84.425 348.873, 100.505 355.593, 115.493 349.937 C 125.522 346.151, 130.317 340.241, 147 311.100 C 164.216 281.027, 165.356 278.262, 164.778 267.962 C 164.277 259.022, 160.856 251.745, 154.665 246.445 C 146.373 239.348, 133.021 237.855, 122.500 242.850 M 393.857 297.389 C 378.272 302.957, 371.593 317.189, 377.699 331.817 C 379.861 336.998, 386.537 343.546, 392.273 346.112 C 399.540 349.363, 410.609 349.349, 417 346.081 C 427.095 340.919, 431.429 334.153, 431.464 323.500 C 431.483 317.584, 431.026 315.667, 428.514 311.121 C 421.945 299.232, 406.181 292.987, 393.857 297.389 M 396.121 312.710 C 388.963 316.236, 388.669 325.358, 395.544 330.601 C 407.850 339.988, 424.362 326.172, 413.238 315.797 C 407.688 310.622, 402.324 309.655, 396.121 312.710 M 161.357 389.103 C 149.878 390.559, 138.774 398.318, 133.197 408.782 C 122.797 428.295, 130.667 451.788, 150.799 461.326 C 156.867 464.200, 158.400 464.500, 167.022 464.500 C 175.758 464.500, 177.092 464.230, 183.193 461.226 C 191.472 457.150, 198.959 449.256, 202.143 441.247 C 203.917 436.784, 204.433 433.490, 204.451 426.500 C 204.472 418.501, 204.133 416.777, 201.401 411 C 194.088 395.537, 178.375 386.945, 161.357 389.103 M 159 405.254 C 154.104 406.889, 146.714 414.593, 145.222 419.616 C 140.727 434.752, 150.904 449.084, 166.235 449.206 C 179.504 449.312, 188.928 439.990, 188.978 426.710 C 189.011 418.083, 184.270 410.260, 176.609 406.298 C 172.791 404.324, 163.444 403.770, 159 405.254" stroke="none" fill="#050505" fill-rule="evenodd"/><path d="M 207 45.501 C 188.134 47.807, 172.097 52.370, 158.785 59.218 C 149.505 63.991, 143.385 69.192, 138.740 76.249 C 120.232 104.370, 133.689 140.083, 166.345 149.510 C 174.012 151.723, 185.017 151.105, 199.500 147.649 C 223.291 141.971, 241.715 141.967, 265.500 147.633 C 285.863 152.483, 296.502 151.917, 309.182 145.307 C 315.366 142.083, 320.082 137.778, 329.237 127 C 331.553 124.272, 332.510 123.841, 335.473 124.187 C 338.859 124.582, 339.020 124.447, 340.393 120.048 C 342.802 112.327, 342.944 111, 341.361 111 C 337.965 111, 335.335 106.570, 334.627 99.661 C 332.628 80.152, 322.943 67.149, 303.491 57.857 C 279.221 46.264, 240.898 41.356, 207 45.501 M 286.205 77.894 C 278.720 80.480, 274.023 84.659, 270.162 92.170 C 267.304 97.729, 266.824 99.681, 266.824 105.738 C 266.824 121.759, 277.646 133.417, 292.453 133.346 C 300.307 133.308, 306.642 130.304, 312.419 123.879 C 319.758 115.716, 321.995 104.212, 318.333 93.463 C 315.980 86.558, 308.820 79.618, 301.941 77.575 C 295.222 75.580, 292.761 75.630, 286.205 77.894 M 230.500 226.881 C 228.300 227.891, 225.769 229.569, 224.876 230.609 C 222.356 233.544, 194.463 282.232, 193.159 285.973 C 191.793 289.892, 191.685 293.955, 192.896 295.867 C 193.594 296.967, 194.443 297.009, 197.257 296.080 C 204.220 293.782, 207.484 289.392, 225.499 258.095 C 235.124 241.372, 243 227.362, 243 226.962 C 243 226.105, 239.352 225.024, 236.500 225.036 C 235.400 225.040, 232.700 225.870, 230.500 226.881 M 132.477 256.036 C 125.820 257.398, 123.998 259.481, 113.536 277.695 C 107.405 288.370, 104.698 290.715, 99.899 289.511 C 97.782 288.979, 97.053 289.650, 93.858 295.066 C 90.298 301.103, 90.263 301.263, 92.113 303.113 C 94.389 305.389, 94.516 309.287, 92.500 315 C 90.878 319.597, 90.569 324.774, 91.801 326.712 C 92.799 328.283, 101.540 324.309, 104.739 320.830 C 107.881 317.412, 142.128 258.016, 141.522 257.035 C 140.795 255.859, 135.955 255.325, 132.477 256.036 M 390.870 282.060 C 384.773 283.503, 376.764 287.492, 371.392 291.762 C 363.128 298.331, 358.787 305.926, 353.087 323.789 C 344.078 352.027, 336.966 363.946, 315.109 387.441 C 310.031 392.899, 306.597 397.747, 304.135 402.931 C 300.950 409.639, 300.508 411.555, 300.162 420.183 C 299.682 432.128, 301.978 440.744, 308.073 449.872 C 313.008 457.262, 318.420 461.865, 326.874 465.863 C 339.499 471.833, 354.214 472.267, 366.436 467.027 C 377.623 462.232, 393.155 449.343, 407.297 433.119 C 411.910 427.827, 412.062 427.747, 416.536 428.251 L 421.086 428.764 425.096 422.858 L 429.107 416.952 427.054 414.341 C 425.924 412.905, 425 410.907, 425 409.901 C 425 408.894, 427.670 402.768, 430.933 396.286 C 434.196 389.803, 438.263 380.900, 439.972 376.500 C 447.472 357.190, 451.267 334.888, 449.260 321.923 C 446.341 303.068, 432.162 287.324, 413.664 282.399 C 407.987 280.887, 396.545 280.717, 390.870 282.060 M 390.500 298.353 C 380.525 303.008, 374.239 313.341, 375.276 323.381 C 376.778 337.942, 387.689 347.907, 403.105 348.800 C 409.718 349.183, 411.532 348.903, 416.149 346.789 C 426.507 342.047, 431.947 334.038, 431.968 323.500 C 431.991 312.310, 424 301.232, 413.266 297.575 C 406.299 295.201, 396.539 295.535, 390.500 298.353" stroke="none" fill="#bbe7e9" fill-rule="evenodd"/></svg>